<?xml version="1.0" encoding="utf-8"?>
<svg xmlns="http://www.w3.org/2000/svg" xmlns:xlink="http://www.w3.org/1999/xlink" width="600" height="400" viewBox="0 0 2400 1600">
<defs>
  <clipPath id="clip130">
    <rect x="0" y="0" width="2400" height="1600"/>
  </clipPath>
</defs>
<path clip-path="url(#clip130)" d="
M0 1600 L2400 1600 L2400 0 L0 0  Z
  " fill="#ffffff" fill-rule="evenodd" fill-opacity="1"/>
<defs>
  <clipPath id="clip131">
    <rect x="480" y="0" width="1681" height="1600"/>
  </clipPath>
</defs>
<defs>
  <clipPath id="clip132">
    <rect x="262" y="47" width="2092" height="1432"/>
  </clipPath>
</defs>
<path clip-path="url(#clip130)" d="
M262.009 1477.81 L2352.76 1477.81 L2352.76 47.2441 L262.009 47.2441  Z
  " fill="#ffffff" fill-rule="evenodd" fill-opacity="1"/>
<polyline clip-path="url(#clip130)" style="stroke:#000000; stroke-linecap:round; stroke-linejoin:round; stroke-width:4; stroke-opacity:1; fill:none" points="
  262.009,1477.81 2352.76,1477.81 
  "/>
<polyline clip-path="url(#clip130)" style="stroke:#000000; stroke-linecap:round; stroke-linejoin:round; stroke-width:4; stroke-opacity:1; fill:none" points="
  262.009,47.2441 2352.76,47.2441 
  "/>
<polyline clip-path="url(#clip130)" style="stroke:#000000; stroke-linecap:round; stroke-linejoin:round; stroke-width:4; stroke-opacity:1; fill:none" points="
  321.181,1477.81 321.181,1458.91 
  "/>
<polyline clip-path="url(#clip130)" style="stroke:#000000; stroke-linecap:round; stroke-linejoin:round; stroke-width:4; stroke-opacity:1; fill:none" points="
  978.649,1477.81 978.649,1458.91 
  "/>
<polyline clip-path="url(#clip130)" style="stroke:#000000; stroke-linecap:round; stroke-linejoin:round; stroke-width:4; stroke-opacity:1; fill:none" points="
  1636.12,1477.81 1636.12,1458.91 
  "/>
<polyline clip-path="url(#clip130)" style="stroke:#000000; stroke-linecap:round; stroke-linejoin:round; stroke-width:4; stroke-opacity:1; fill:none" points="
  2293.58,1477.81 2293.58,1458.91 
  "/>
<polyline clip-path="url(#clip130)" style="stroke:#000000; stroke-linecap:round; stroke-linejoin:round; stroke-width:4; stroke-opacity:1; fill:none" points="
  649.915,1477.81 649.915,1468.36 
  "/>
<polyline clip-path="url(#clip130)" style="stroke:#000000; stroke-linecap:round; stroke-linejoin:round; stroke-width:4; stroke-opacity:1; fill:none" points="
  1307.38,1477.81 1307.38,1468.36 
  "/>
<polyline clip-path="url(#clip130)" style="stroke:#000000; stroke-linecap:round; stroke-linejoin:round; stroke-width:4; stroke-opacity:1; fill:none" points="
  1964.85,1477.81 1964.85,1468.36 
  "/>
<path clip-path="url(#clip130)" d="M256.445 1529.27 Q256.445 1519.14 260.222 1510.97 Q261.832 1507.54 264.087 1504.68 Q266.341 1501.81 267.834 1500.55 Q269.327 1499.29 269.737 1499.29 Q270.323 1499.29 270.352 1499.87 Q270.352 1500.17 269.562 1500.9 Q259.9 1510.74 259.929 1529.27 Q259.929 1547.86 269.327 1557.32 Q270.352 1558.34 270.352 1558.66 Q270.352 1559.25 269.737 1559.25 Q269.327 1559.25 267.893 1558.05 Q266.458 1556.85 264.233 1554.1 Q262.008 1551.34 260.398 1547.98 Q256.445 1539.81 256.445 1529.27 Z" fill="#000000" fill-rule="evenodd" fill-opacity="1" /><path clip-path="url(#clip130)" d="M276.111 1525.08 Q276.111 1516.27 278.336 1511.47 Q281.439 1504.32 288.759 1504.32 Q290.31 1504.32 291.921 1504.76 Q293.56 1505.17 295.61 1506.78 Q297.689 1508.39 298.947 1511.03 Q301.348 1516.12 301.348 1525.08 Q301.348 1533.84 299.123 1538.61 Q295.873 1545.58 288.7 1545.58 Q286.007 1545.58 283.254 1544.2 Q280.532 1542.82 278.804 1539.52 Q276.111 1534.57 276.111 1525.08 M281.088 1524.35 Q281.088 1533.4 281.732 1537 Q282.464 1540.89 284.455 1542.59 Q286.475 1544.26 288.7 1544.26 Q291.101 1544.26 293.092 1542.47 Q295.112 1540.66 295.727 1536.76 Q296.4 1532.93 296.371 1524.35 Q296.371 1516.01 295.785 1512.67 Q294.995 1508.77 292.887 1507.22 Q290.808 1505.64 288.7 1505.64 Q287.91 1505.64 287.061 1505.88 Q286.241 1506.11 285.04 1506.78 Q283.84 1507.46 282.903 1509.13 Q281.995 1510.79 281.556 1513.31 Q281.088 1516.56 281.088 1524.35 Z" fill="#000000" fill-rule="evenodd" fill-opacity="1" /><path clip-path="url(#clip130)" d="M306.655 1543.29 Q305.806 1542.33 305.806 1541.07 Q305.806 1539.81 306.626 1538.87 Q307.475 1537.91 308.997 1537.91 Q310.783 1537.91 311.808 1539.63 Q312.833 1541.33 312.833 1544.2 Q312.833 1547.3 311.574 1550.17 Q310.315 1553.07 309.085 1554.45 Q307.855 1555.82 307.358 1555.82 Q306.772 1555.82 306.772 1555.18 Q306.772 1554.95 307.182 1554.51 Q311.486 1549.88 311.515 1544.2 Q311.515 1543.29 311.398 1543.29 L311.252 1543.41 Q310.227 1544.26 308.997 1544.26 Q307.504 1544.26 306.655 1543.29 Z" fill="#000000" fill-rule="evenodd" fill-opacity="1" /><path clip-path="url(#clip130)" d="M331.756 1525.08 Q331.756 1516.27 333.981 1511.47 Q337.085 1504.32 344.404 1504.32 Q345.956 1504.32 347.566 1504.76 Q349.206 1505.17 351.255 1506.78 Q353.334 1508.39 354.593 1511.03 Q356.994 1516.12 356.994 1525.08 Q356.994 1533.84 354.769 1538.61 Q351.519 1545.58 344.346 1545.58 Q341.652 1545.58 338.9 1544.2 Q336.177 1542.82 334.45 1539.52 Q331.756 1534.57 331.756 1525.08 M336.733 1524.35 Q336.733 1533.4 337.377 1537 Q338.109 1540.89 340.1 1542.59 Q342.12 1544.26 344.346 1544.26 Q346.746 1544.26 348.737 1542.47 Q350.758 1540.66 351.372 1536.76 Q352.046 1532.93 352.016 1524.35 Q352.016 1516.01 351.431 1512.67 Q350.64 1508.77 348.532 1507.22 Q346.454 1505.64 344.346 1505.64 Q343.555 1505.64 342.706 1505.88 Q341.886 1506.11 340.686 1506.78 Q339.485 1507.46 338.549 1509.13 Q337.641 1510.79 337.202 1513.31 Q336.733 1516.56 336.733 1524.35 Z" fill="#000000" fill-rule="evenodd" fill-opacity="1" /><path clip-path="url(#clip130)" d="M362.891 1558.66 Q362.891 1558.37 363.653 1557.64 Q373.314 1547.8 373.314 1529.27 Q373.314 1510.68 364.033 1501.28 Q362.891 1500.2 362.891 1499.87 Q362.891 1499.29 363.477 1499.29 Q363.887 1499.29 365.321 1500.49 Q366.785 1501.69 368.981 1504.44 Q371.206 1507.19 372.846 1510.56 Q376.798 1518.73 376.798 1529.27 Q376.798 1539.4 373.022 1547.57 Q371.411 1550.99 369.157 1553.86 Q366.902 1556.73 365.409 1557.99 Q363.916 1559.25 363.477 1559.25 Q362.891 1559.25 362.891 1558.66 Z" fill="#000000" fill-rule="evenodd" fill-opacity="1" /><path clip-path="url(#clip130)" d="M909.046 1529.27 Q909.046 1519.14 912.823 1510.97 Q914.433 1507.54 916.687 1504.68 Q918.942 1501.81 920.435 1500.55 Q921.928 1499.29 922.338 1499.29 Q922.924 1499.29 922.953 1499.87 Q922.953 1500.17 922.162 1500.9 Q912.501 1510.74 912.53 1529.27 Q912.53 1547.86 921.928 1557.32 Q922.953 1558.34 922.953 1558.66 Q922.953 1559.25 922.338 1559.25 Q921.928 1559.25 920.494 1558.05 Q919.059 1556.85 916.834 1554.1 Q914.609 1551.34 912.998 1547.98 Q909.046 1539.81 909.046 1529.27 Z" fill="#000000" fill-rule="evenodd" fill-opacity="1" /><path clip-path="url(#clip130)" d="M959.893 1519.84 Q959.893 1521.89 956.965 1521.89 L950.114 1521.89 Q949.06 1526.75 949.06 1531.44 Q949.06 1537.03 950.787 1541.33 Q951.139 1542.18 951.139 1542.65 Q951.139 1543.53 950.348 1544.23 Q949.587 1544.93 948.679 1544.93 Q947.918 1544.93 947.42 1544.35 Q946.952 1543.76 946.542 1541.92 Q946.044 1539.75 946.044 1537.35 Q946.044 1534.48 946.513 1531.73 Q946.981 1528.95 948.562 1521.89 L941.799 1521.89 L938.432 1535.15 Q937.232 1539.63 936.822 1541.01 Q936.558 1541.83 936.47 1542.09 Q936.383 1542.36 936.119 1543 Q935.885 1543.62 935.709 1543.85 Q935.534 1544.05 935.241 1544.38 Q934.948 1544.73 934.597 1544.82 Q934.245 1544.93 933.806 1544.93 Q933.133 1544.93 932.606 1544.49 Q932.079 1544.08 932.079 1543.29 Q932.079 1542.77 932.547 1541.86 Q938.11 1529.85 940.218 1521.89 L936.822 1521.89 Q932.137 1521.89 929.209 1526.52 Q928.741 1527.13 928.477 1527.19 Q928.36 1527.22 928.243 1527.22 Q927.921 1527.22 927.716 1527.07 Q927.541 1526.93 927.541 1526.78 L927.511 1526.63 Q927.511 1526.46 927.95 1525.67 Q928.419 1524.85 929.297 1523.59 Q930.205 1522.33 931.171 1521.25 Q932.108 1520.25 933.016 1519.64 Q933.952 1518.99 934.831 1518.76 Q935.709 1518.52 936.207 1518.47 Q936.705 1518.41 937.407 1518.41 L957.492 1518.41 Q958.253 1518.41 958.663 1518.47 Q959.073 1518.49 959.483 1518.85 Q959.893 1519.17 959.893 1519.84 Z" fill="#000000" fill-rule="evenodd" fill-opacity="1" /><path clip-path="url(#clip130)" d="M962.203 1543.29 Q961.354 1542.33 961.354 1541.07 Q961.354 1539.81 962.173 1538.87 Q963.022 1537.91 964.545 1537.91 Q966.331 1537.91 967.356 1539.63 Q968.38 1541.33 968.38 1544.2 Q968.38 1547.3 967.121 1550.17 Q965.862 1553.07 964.633 1554.45 Q963.403 1555.82 962.905 1555.82 Q962.32 1555.82 962.32 1555.18 Q962.32 1554.95 962.73 1554.51 Q967.033 1549.88 967.063 1544.2 Q967.063 1543.29 966.946 1543.29 L966.799 1543.41 Q965.775 1544.26 964.545 1544.26 Q963.052 1544.26 962.203 1543.29 Z" fill="#000000" fill-rule="evenodd" fill-opacity="1" /><path clip-path="url(#clip130)" d="M1019.69 1519.84 Q1019.69 1521.89 1016.76 1521.89 L1009.91 1521.89 Q1008.85 1526.75 1008.85 1531.44 Q1008.85 1537.03 1010.58 1541.33 Q1010.93 1542.18 1010.93 1542.65 Q1010.93 1543.53 1010.14 1544.23 Q1009.38 1544.93 1008.47 1544.93 Q1007.71 1544.93 1007.21 1544.35 Q1006.74 1543.76 1006.33 1541.92 Q1005.84 1539.75 1005.84 1537.35 Q1005.84 1534.48 1006.31 1531.73 Q1006.77 1528.95 1008.35 1521.89 L1001.59 1521.89 L998.224 1535.15 Q997.024 1539.63 996.614 1541.01 Q996.351 1541.83 996.263 1542.09 Q996.175 1542.36 995.911 1543 Q995.677 1543.62 995.502 1543.85 Q995.326 1544.05 995.033 1544.38 Q994.74 1544.73 994.389 1544.82 Q994.038 1544.93 993.598 1544.93 Q992.925 1544.93 992.398 1544.49 Q991.871 1544.08 991.871 1543.29 Q991.871 1542.77 992.339 1541.86 Q997.902 1529.85 1000.01 1521.89 L996.614 1521.89 Q991.93 1521.89 989.002 1526.52 Q988.533 1527.13 988.27 1527.19 Q988.153 1527.22 988.036 1527.22 Q987.714 1527.22 987.509 1527.07 Q987.333 1526.93 987.333 1526.78 L987.304 1526.63 Q987.304 1526.46 987.743 1525.67 Q988.211 1524.85 989.09 1523.59 Q989.997 1522.33 990.963 1521.25 Q991.9 1520.25 992.808 1519.64 Q993.745 1518.99 994.623 1518.76 Q995.502 1518.52 995.999 1518.47 Q996.497 1518.41 997.2 1518.41 L1017.28 1518.41 Q1018.05 1518.41 1018.46 1518.47 Q1018.87 1518.49 1019.28 1518.85 Q1019.69 1519.17 1019.69 1519.84 Z" fill="#000000" fill-rule="evenodd" fill-opacity="1" /><path clip-path="url(#clip130)" d="M1025.23 1558.66 Q1025.23 1558.37 1025.99 1557.64 Q1035.65 1547.8 1035.65 1529.27 Q1035.65 1510.68 1026.37 1501.28 Q1025.23 1500.2 1025.23 1499.87 Q1025.23 1499.29 1025.81 1499.29 Q1026.22 1499.29 1027.66 1500.49 Q1029.12 1501.69 1031.32 1504.44 Q1033.54 1507.19 1035.18 1510.56 Q1039.13 1518.73 1039.13 1529.27 Q1039.13 1539.4 1035.36 1547.57 Q1033.75 1550.99 1031.49 1553.86 Q1029.24 1556.73 1027.74 1557.99 Q1026.25 1559.25 1025.81 1559.25 Q1025.23 1559.25 1025.23 1558.66 Z" fill="#000000" fill-rule="evenodd" fill-opacity="1" /><path clip-path="url(#clip130)" d="M1569.91 1529.27 Q1569.91 1519.14 1573.68 1510.97 Q1575.29 1507.54 1577.55 1504.68 Q1579.8 1501.81 1581.3 1500.55 Q1582.79 1499.29 1583.2 1499.29 Q1583.78 1499.29 1583.81 1499.87 Q1583.81 1500.17 1583.02 1500.9 Q1573.36 1510.74 1573.39 1529.27 Q1573.39 1547.86 1582.79 1557.32 Q1583.81 1558.34 1583.81 1558.66 Q1583.81 1559.25 1583.2 1559.25 Q1582.79 1559.25 1581.35 1558.05 Q1579.92 1556.85 1577.69 1554.1 Q1575.47 1551.34 1573.86 1547.98 Q1569.91 1539.81 1569.91 1529.27 Z" fill="#000000" fill-rule="evenodd" fill-opacity="1" /><path clip-path="url(#clip130)" d="M1620.75 1519.84 Q1620.75 1521.89 1617.83 1521.89 L1610.98 1521.89 Q1609.92 1526.75 1609.92 1531.44 Q1609.92 1537.03 1611.65 1541.33 Q1612 1542.18 1612 1542.65 Q1612 1543.53 1611.21 1544.23 Q1610.45 1544.93 1609.54 1544.93 Q1608.78 1544.93 1608.28 1544.35 Q1607.81 1543.76 1607.4 1541.92 Q1606.91 1539.75 1606.91 1537.35 Q1606.91 1534.48 1607.37 1531.73 Q1607.84 1528.95 1609.42 1521.89 L1602.66 1521.89 L1599.29 1535.15 Q1598.09 1539.63 1597.68 1541.01 Q1597.42 1541.83 1597.33 1542.09 Q1597.24 1542.36 1596.98 1543 Q1596.75 1543.62 1596.57 1543.85 Q1596.39 1544.05 1596.1 1544.38 Q1595.81 1544.73 1595.46 1544.82 Q1595.11 1544.93 1594.67 1544.93 Q1593.99 1544.93 1593.47 1544.49 Q1592.94 1544.08 1592.94 1543.29 Q1592.94 1542.77 1593.41 1541.86 Q1598.97 1529.85 1601.08 1521.89 L1597.68 1521.89 Q1593 1521.89 1590.07 1526.52 Q1589.6 1527.13 1589.34 1527.19 Q1589.22 1527.22 1589.1 1527.22 Q1588.78 1527.22 1588.58 1527.07 Q1588.4 1526.93 1588.4 1526.78 L1588.37 1526.63 Q1588.37 1526.46 1588.81 1525.67 Q1589.28 1524.85 1590.16 1523.59 Q1591.07 1522.33 1592.03 1521.25 Q1592.97 1520.25 1593.88 1519.64 Q1594.81 1518.99 1595.69 1518.76 Q1596.57 1518.52 1597.07 1518.47 Q1597.57 1518.41 1598.27 1518.41 L1618.35 1518.41 Q1619.11 1518.41 1619.52 1518.47 Q1619.93 1518.49 1620.34 1518.85 Q1620.75 1519.17 1620.75 1519.84 Z" fill="#000000" fill-rule="evenodd" fill-opacity="1" /><path clip-path="url(#clip130)" d="M1623.06 1543.29 Q1622.21 1542.33 1622.21 1541.07 Q1622.21 1539.81 1623.03 1538.87 Q1623.88 1537.91 1625.41 1537.91 Q1627.19 1537.91 1628.22 1539.63 Q1629.24 1541.33 1629.24 1544.2 Q1629.24 1547.3 1627.98 1550.17 Q1626.72 1553.07 1625.49 1554.45 Q1624.26 1555.82 1623.77 1555.82 Q1623.18 1555.82 1623.18 1555.18 Q1623.18 1554.95 1623.59 1554.51 Q1627.89 1549.88 1627.92 1544.2 Q1627.92 1543.29 1627.81 1543.29 L1627.66 1543.41 Q1626.64 1544.26 1625.41 1544.26 Q1623.91 1544.26 1623.06 1543.29 Z" fill="#000000" fill-rule="evenodd" fill-opacity="1" /><path clip-path="url(#clip130)" d="M1648.16 1525.08 Q1648.16 1516.27 1650.39 1511.47 Q1653.49 1504.32 1660.81 1504.32 Q1662.36 1504.32 1663.97 1504.76 Q1665.61 1505.17 1667.66 1506.78 Q1669.74 1508.39 1671 1511.03 Q1673.4 1516.12 1673.4 1525.08 Q1673.4 1533.84 1671.18 1538.61 Q1667.93 1545.58 1660.75 1545.58 Q1658.06 1545.58 1655.31 1544.2 Q1652.59 1542.82 1650.86 1539.52 Q1648.16 1534.57 1648.16 1525.08 M1653.14 1524.35 Q1653.14 1533.4 1653.79 1537 Q1654.52 1540.89 1656.51 1542.59 Q1658.53 1544.26 1660.75 1544.26 Q1663.16 1544.26 1665.15 1542.47 Q1667.17 1540.66 1667.78 1536.76 Q1668.45 1532.93 1668.43 1524.35 Q1668.43 1516.01 1667.84 1512.67 Q1667.05 1508.77 1664.94 1507.22 Q1662.86 1505.64 1660.75 1505.64 Q1659.96 1505.64 1659.11 1505.88 Q1658.29 1506.11 1657.09 1506.78 Q1655.89 1507.46 1654.96 1509.13 Q1654.05 1510.79 1653.61 1513.31 Q1653.14 1516.56 1653.14 1524.35 Z" fill="#000000" fill-rule="evenodd" fill-opacity="1" /><path clip-path="url(#clip130)" d="M1679.3 1558.66 Q1679.3 1558.37 1680.06 1557.64 Q1689.72 1547.8 1689.72 1529.27 Q1689.72 1510.68 1680.44 1501.28 Q1679.3 1500.2 1679.3 1499.87 Q1679.3 1499.29 1679.89 1499.29 Q1680.3 1499.29 1681.73 1500.49 Q1683.19 1501.69 1685.39 1504.44 Q1687.61 1507.19 1689.25 1510.56 Q1693.21 1518.73 1693.21 1529.27 Q1693.21 1539.4 1689.43 1547.57 Q1687.82 1550.99 1685.57 1553.86 Q1683.31 1556.73 1681.82 1557.99 Q1680.32 1559.25 1679.89 1559.25 Q1679.3 1559.25 1679.3 1558.66 Z" fill="#000000" fill-rule="evenodd" fill-opacity="1" /><path clip-path="url(#clip130)" d="M2228.85 1529.27 Q2228.85 1519.14 2232.62 1510.97 Q2234.24 1507.54 2236.49 1504.68 Q2238.74 1501.81 2240.24 1500.55 Q2241.73 1499.29 2242.14 1499.29 Q2242.73 1499.29 2242.76 1499.87 Q2242.76 1500.17 2241.96 1500.9 Q2232.3 1510.74 2232.33 1529.27 Q2232.33 1547.86 2241.73 1557.32 Q2242.76 1558.34 2242.76 1558.66 Q2242.76 1559.25 2242.14 1559.25 Q2241.73 1559.25 2240.3 1558.05 Q2238.86 1556.85 2236.64 1554.1 Q2234.41 1551.34 2232.8 1547.98 Q2228.85 1539.81 2228.85 1529.27 Z" fill="#000000" fill-rule="evenodd" fill-opacity="1" /><path clip-path="url(#clip130)" d="M2248.51 1525.08 Q2248.51 1516.27 2250.74 1511.47 Q2253.84 1504.32 2261.16 1504.32 Q2262.71 1504.32 2264.32 1504.76 Q2265.96 1505.17 2268.01 1506.78 Q2270.09 1508.39 2271.35 1511.03 Q2273.75 1516.12 2273.75 1525.08 Q2273.75 1533.84 2271.53 1538.61 Q2268.28 1545.58 2261.1 1545.58 Q2258.41 1545.58 2255.66 1544.2 Q2252.93 1542.82 2251.21 1539.52 Q2248.51 1534.57 2248.51 1525.08 M2253.49 1524.35 Q2253.49 1533.4 2254.13 1537 Q2254.87 1540.89 2256.86 1542.59 Q2258.88 1544.26 2261.1 1544.26 Q2263.5 1544.26 2265.49 1542.47 Q2267.51 1540.66 2268.13 1536.76 Q2268.8 1532.93 2268.77 1524.35 Q2268.77 1516.01 2268.19 1512.67 Q2267.4 1508.77 2265.29 1507.22 Q2263.21 1505.64 2261.1 1505.64 Q2260.31 1505.64 2259.46 1505.88 Q2258.64 1506.11 2257.44 1506.78 Q2256.24 1507.46 2255.31 1509.13 Q2254.4 1510.79 2253.96 1513.31 Q2253.49 1516.56 2253.49 1524.35 Z" fill="#000000" fill-rule="evenodd" fill-opacity="1" /><path clip-path="url(#clip130)" d="M2279.06 1543.29 Q2278.21 1542.33 2278.21 1541.07 Q2278.21 1539.81 2279.03 1538.87 Q2279.88 1537.91 2281.4 1537.91 Q2283.19 1537.91 2284.21 1539.63 Q2285.24 1541.33 2285.24 1544.2 Q2285.24 1547.3 2283.98 1550.17 Q2282.72 1553.07 2281.49 1554.45 Q2280.26 1555.82 2279.76 1555.82 Q2279.17 1555.82 2279.17 1555.18 Q2279.17 1554.95 2279.58 1554.51 Q2283.89 1549.88 2283.92 1544.2 Q2283.92 1543.29 2283.8 1543.29 L2283.65 1543.41 Q2282.63 1544.26 2281.4 1544.26 Q2279.91 1544.26 2279.06 1543.29 Z" fill="#000000" fill-rule="evenodd" fill-opacity="1" /><path clip-path="url(#clip130)" d="M2304.16 1525.08 Q2304.16 1516.27 2306.38 1511.47 Q2309.49 1504.32 2316.81 1504.32 Q2318.36 1504.32 2319.97 1504.76 Q2321.61 1505.17 2323.66 1506.78 Q2325.74 1508.39 2327 1511.03 Q2329.4 1516.12 2329.4 1525.08 Q2329.4 1533.84 2327.17 1538.61 Q2323.92 1545.58 2316.75 1545.58 Q2314.05 1545.58 2311.3 1544.2 Q2308.58 1542.82 2306.85 1539.52 Q2304.16 1534.57 2304.16 1525.08 M2309.14 1524.35 Q2309.14 1533.4 2309.78 1537 Q2310.51 1540.89 2312.5 1542.59 Q2314.52 1544.26 2316.75 1544.26 Q2319.15 1544.26 2321.14 1542.47 Q2323.16 1540.66 2323.78 1536.76 Q2324.45 1532.93 2324.42 1524.35 Q2324.42 1516.01 2323.83 1512.67 Q2323.04 1508.77 2320.94 1507.22 Q2318.86 1505.64 2316.75 1505.64 Q2315.96 1505.64 2315.11 1505.88 Q2314.29 1506.11 2313.09 1506.78 Q2311.89 1507.46 2310.95 1509.13 Q2310.04 1510.79 2309.6 1513.31 Q2309.14 1516.56 2309.14 1524.35 Z" fill="#000000" fill-rule="evenodd" fill-opacity="1" /><path clip-path="url(#clip130)" d="M2335.29 1558.66 Q2335.29 1558.37 2336.06 1557.64 Q2345.72 1547.8 2345.72 1529.27 Q2345.72 1510.68 2336.44 1501.28 Q2335.29 1500.2 2335.29 1499.87 Q2335.29 1499.29 2335.88 1499.29 Q2336.29 1499.29 2337.72 1500.49 Q2339.19 1501.69 2341.38 1504.44 Q2343.61 1507.19 2345.25 1510.56 Q2349.2 1518.73 2349.2 1529.27 Q2349.2 1539.4 2345.42 1547.57 Q2343.81 1550.99 2341.56 1553.86 Q2339.31 1556.73 2337.81 1557.99 Q2336.32 1559.25 2335.88 1559.25 Q2335.29 1559.25 2335.29 1558.66 Z" fill="#000000" fill-rule="evenodd" fill-opacity="1" /><polyline clip-path="url(#clip130)" style="stroke:#000000; stroke-linecap:round; stroke-linejoin:round; stroke-width:4; stroke-opacity:1; fill:none" points="
  262.009,1477.81 262.009,47.2441 
  "/>
<polyline clip-path="url(#clip130)" style="stroke:#000000; stroke-linecap:round; stroke-linejoin:round; stroke-width:4; stroke-opacity:1; fill:none" points="
  2352.76,1477.81 2352.76,47.2441 
  "/>
<polyline clip-path="url(#clip130)" style="stroke:#000000; stroke-linecap:round; stroke-linejoin:round; stroke-width:4; stroke-opacity:1; fill:none" points="
  262.009,1477.81 280.907,1477.81 
  "/>
<polyline clip-path="url(#clip130)" style="stroke:#000000; stroke-linecap:round; stroke-linejoin:round; stroke-width:4; stroke-opacity:1; fill:none" points="
  262.009,1137.2 280.907,1137.2 
  "/>
<polyline clip-path="url(#clip130)" style="stroke:#000000; stroke-linecap:round; stroke-linejoin:round; stroke-width:4; stroke-opacity:1; fill:none" points="
  262.009,796.587 280.907,796.587 
  "/>
<polyline clip-path="url(#clip130)" style="stroke:#000000; stroke-linecap:round; stroke-linejoin:round; stroke-width:4; stroke-opacity:1; fill:none" points="
  262.009,455.977 280.907,455.977 
  "/>
<polyline clip-path="url(#clip130)" style="stroke:#000000; stroke-linecap:round; stroke-linejoin:round; stroke-width:4; stroke-opacity:1; fill:none" points="
  262.009,115.366 280.907,115.366 
  "/>
<polyline clip-path="url(#clip130)" style="stroke:#000000; stroke-linecap:round; stroke-linejoin:round; stroke-width:4; stroke-opacity:1; fill:none" points="
  262.009,1307.5 271.458,1307.5 
  "/>
<polyline clip-path="url(#clip130)" style="stroke:#000000; stroke-linecap:round; stroke-linejoin:round; stroke-width:4; stroke-opacity:1; fill:none" points="
  262.009,966.892 271.458,966.892 
  "/>
<polyline clip-path="url(#clip130)" style="stroke:#000000; stroke-linecap:round; stroke-linejoin:round; stroke-width:4; stroke-opacity:1; fill:none" points="
  262.009,626.282 271.458,626.282 
  "/>
<polyline clip-path="url(#clip130)" style="stroke:#000000; stroke-linecap:round; stroke-linejoin:round; stroke-width:4; stroke-opacity:1; fill:none" points="
  262.009,285.671 271.458,285.671 
  "/>
<path clip-path="url(#clip130)" d="M118.58 1479.18 Q118.58 1469.89 120.927 1464.82 Q124.2 1457.29 131.92 1457.29 Q133.557 1457.29 135.255 1457.75 Q136.984 1458.18 139.146 1459.88 Q141.338 1461.58 142.666 1464.36 Q145.198 1469.73 145.198 1479.18 Q145.198 1488.41 142.851 1493.45 Q139.424 1500.8 131.858 1500.8 Q129.017 1500.8 126.115 1499.35 Q123.243 1497.89 121.421 1494.41 Q118.58 1489.19 118.58 1479.18 M123.83 1478.41 Q123.83 1487.95 124.509 1491.75 Q125.281 1495.86 127.381 1497.65 Q129.511 1499.41 131.858 1499.41 Q134.39 1499.41 136.49 1497.52 Q138.621 1495.61 139.269 1491.5 Q139.979 1487.46 139.949 1478.41 Q139.949 1469.61 139.331 1466.09 Q138.497 1461.98 136.274 1460.35 Q134.082 1458.68 131.858 1458.68 Q131.024 1458.68 130.129 1458.93 Q129.264 1459.17 127.998 1459.88 Q126.732 1460.59 125.744 1462.35 Q124.787 1464.11 124.324 1466.77 Q123.83 1470.2 123.83 1478.41 Z" fill="#000000" fill-rule="evenodd" fill-opacity="1" /><path clip-path="url(#clip130)" d="M154.06 1498.39 Q153.103 1497.37 153.103 1496.04 Q153.103 1494.71 154.06 1493.76 Q155.018 1492.77 156.469 1492.77 Q157.858 1492.77 158.785 1493.7 Q159.742 1494.59 159.742 1496.07 Q159.742 1497.52 158.723 1498.48 Q157.735 1499.41 156.469 1499.41 Q155.018 1499.41 154.06 1498.39 Z" fill="#000000" fill-rule="evenodd" fill-opacity="1" /><path clip-path="url(#clip130)" d="M167.771 1479.18 Q167.771 1469.89 170.118 1464.82 Q173.391 1457.29 181.111 1457.29 Q182.747 1457.29 184.445 1457.75 Q186.175 1458.18 188.336 1459.88 Q190.529 1461.58 191.856 1464.36 Q194.389 1469.73 194.389 1479.18 Q194.389 1488.41 192.042 1493.45 Q188.614 1500.8 181.049 1500.8 Q178.208 1500.8 175.305 1499.35 Q172.433 1497.89 170.612 1494.41 Q167.771 1489.19 167.771 1479.18 M173.02 1478.41 Q173.02 1487.95 173.7 1491.75 Q174.472 1495.86 176.571 1497.65 Q178.702 1499.41 181.049 1499.41 Q183.581 1499.41 185.681 1497.52 Q187.811 1495.61 188.46 1491.5 Q189.17 1487.46 189.139 1478.41 Q189.139 1469.61 188.522 1466.09 Q187.688 1461.98 185.465 1460.35 Q183.272 1458.68 181.049 1458.68 Q180.215 1458.68 179.32 1458.93 Q178.455 1459.17 177.189 1459.88 Q175.923 1460.59 174.935 1462.35 Q173.977 1464.11 173.514 1466.77 Q173.02 1470.2 173.02 1478.41 Z" fill="#000000" fill-rule="evenodd" fill-opacity="1" /><path clip-path="url(#clip130)" d="M199.391 1479.18 Q199.391 1469.89 201.738 1464.82 Q205.011 1457.29 212.731 1457.29 Q214.367 1457.29 216.066 1457.75 Q217.795 1458.18 219.957 1459.88 Q222.149 1461.58 223.477 1464.36 Q226.009 1469.73 226.009 1479.18 Q226.009 1488.41 223.662 1493.45 Q220.234 1500.8 212.669 1500.8 Q209.828 1500.8 206.926 1499.35 Q204.054 1497.89 202.232 1494.41 Q199.391 1489.19 199.391 1479.18 M204.64 1478.41 Q204.64 1487.95 205.32 1491.75 Q206.092 1495.86 208.192 1497.65 Q210.322 1499.41 212.669 1499.41 Q215.201 1499.41 217.301 1497.52 Q219.432 1495.61 220.08 1491.5 Q220.79 1487.46 220.759 1478.41 Q220.759 1469.61 220.142 1466.09 Q219.308 1461.98 217.085 1460.35 Q214.892 1458.68 212.669 1458.68 Q211.835 1458.68 210.94 1458.93 Q210.075 1459.17 208.809 1459.88 Q207.543 1460.59 206.555 1462.35 Q205.598 1464.11 205.135 1466.77 Q204.64 1470.2 204.64 1478.41 Z" fill="#000000" fill-rule="evenodd" fill-opacity="1" /><path clip-path="url(#clip130)" d="M119.259 1138.57 Q119.259 1129.28 121.606 1124.21 Q124.88 1116.68 132.599 1116.68 Q134.236 1116.68 135.934 1117.14 Q137.664 1117.57 139.825 1119.27 Q142.017 1120.97 143.345 1123.75 Q145.877 1129.12 145.877 1138.57 Q145.877 1147.8 143.531 1152.84 Q140.103 1160.19 132.538 1160.19 Q129.697 1160.19 126.794 1158.74 Q123.922 1157.28 122.1 1153.8 Q119.259 1148.58 119.259 1138.57 M124.509 1137.8 Q124.509 1147.34 125.188 1151.14 Q125.96 1155.25 128.06 1157.04 Q130.191 1158.8 132.538 1158.8 Q135.07 1158.8 137.169 1156.91 Q139.3 1155 139.949 1150.89 Q140.659 1146.85 140.628 1137.8 Q140.628 1129 140.01 1125.48 Q139.177 1121.37 136.953 1119.74 Q134.761 1118.07 132.538 1118.07 Q131.704 1118.07 130.808 1118.31 Q129.944 1118.56 128.678 1119.27 Q127.412 1119.98 126.423 1121.74 Q125.466 1123.5 125.003 1126.16 Q124.509 1129.59 124.509 1137.8 Z" fill="#000000" fill-rule="evenodd" fill-opacity="1" /><path clip-path="url(#clip130)" d="M154.74 1157.78 Q153.782 1156.76 153.782 1155.43 Q153.782 1154.1 154.74 1153.15 Q155.697 1152.16 157.148 1152.16 Q158.538 1152.16 159.464 1153.08 Q160.421 1153.98 160.421 1155.46 Q160.421 1156.91 159.402 1157.87 Q158.414 1158.8 157.148 1158.8 Q155.697 1158.8 154.74 1157.78 Z" fill="#000000" fill-rule="evenodd" fill-opacity="1" /><path clip-path="url(#clip130)" d="M169.129 1158.8 Q169.129 1157.65 169.222 1157.32 Q169.346 1156.98 169.84 1156.45 L181.975 1142.93 Q188.614 1135.45 188.614 1128.94 Q188.614 1124.71 186.391 1121.68 Q184.198 1118.65 180.153 1118.65 Q177.374 1118.65 175.027 1120.35 Q172.681 1122.05 171.6 1125.08 Q171.785 1125.02 172.433 1125.02 Q174.008 1125.02 174.873 1126 Q175.768 1126.99 175.768 1128.32 Q175.768 1130.02 174.657 1130.85 Q173.576 1131.65 172.495 1131.65 Q172.063 1131.65 171.476 1131.56 Q170.92 1131.47 170.025 1130.6 Q169.129 1129.71 169.129 1128.13 Q169.129 1123.72 172.464 1120.2 Q175.83 1116.68 180.956 1116.68 Q186.761 1116.68 190.56 1120.14 Q194.389 1123.56 194.389 1128.94 Q194.389 1130.82 193.802 1132.55 Q193.246 1134.25 192.474 1135.58 Q191.733 1136.9 189.695 1139.03 Q187.657 1141.17 186.02 1142.68 Q184.384 1144.19 180.709 1147.4 L174.008 1153.92 L185.403 1153.92 Q190.961 1153.92 191.393 1153.42 Q192.011 1152.53 192.783 1147.8 L194.389 1147.8 L192.598 1158.8 L169.129 1158.8 Z" fill="#000000" fill-rule="evenodd" fill-opacity="1" /><path clip-path="url(#clip130)" d="M200.75 1148.61 Q200.75 1146.72 201.769 1146.01 Q202.788 1145.27 203.869 1145.27 Q205.32 1145.27 206.154 1146.2 Q207.018 1147.09 207.018 1148.36 Q207.018 1149.63 206.154 1150.55 Q205.32 1151.45 203.869 1151.45 Q203.158 1151.45 202.788 1151.32 Q203.621 1154.23 206.154 1156.33 Q208.717 1158.43 212.082 1158.43 Q216.313 1158.43 218.845 1154.32 Q220.358 1151.66 220.358 1145.64 Q220.358 1140.33 219.215 1137.68 Q217.455 1133.63 213.842 1133.63 Q208.717 1133.63 205.69 1138.05 Q205.32 1138.6 204.888 1138.63 Q204.27 1138.63 204.116 1138.29 Q203.992 1137.92 203.992 1136.97 L203.992 1118.25 Q203.992 1116.74 204.61 1116.74 Q204.857 1116.74 205.382 1116.93 Q209.365 1118.69 213.781 1118.72 Q218.32 1118.72 222.396 1116.86 Q222.705 1116.68 222.89 1116.68 Q223.508 1116.68 223.539 1117.39 Q223.539 1117.64 223.014 1118.38 Q222.52 1119.09 221.439 1120.04 Q220.358 1120.97 218.968 1121.87 Q217.579 1122.76 215.541 1123.38 Q213.534 1123.97 211.31 1123.97 Q208.655 1123.97 205.937 1123.13 L205.937 1135.45 Q209.211 1132.24 213.966 1132.24 Q219.03 1132.24 222.52 1136.32 Q226.009 1140.39 226.009 1146.08 Q226.009 1152.03 221.871 1156.11 Q217.764 1160.19 212.206 1160.19 Q207.142 1160.19 203.93 1156.57 Q200.75 1152.96 200.75 1148.61 Z" fill="#000000" fill-rule="evenodd" fill-opacity="1" /><path clip-path="url(#clip130)" d="M118.58 797.961 Q118.58 788.667 120.927 783.602 Q124.2 776.068 131.92 776.068 Q133.557 776.068 135.255 776.531 Q136.984 776.963 139.146 778.662 Q141.338 780.36 142.666 783.139 Q145.198 788.512 145.198 797.961 Q145.198 807.194 142.851 812.227 Q139.424 819.577 131.858 819.577 Q129.017 819.577 126.115 818.125 Q123.243 816.674 121.421 813.185 Q118.58 807.966 118.58 797.961 M123.83 797.189 Q123.83 806.731 124.509 810.529 Q125.281 814.636 127.381 816.427 Q129.511 818.187 131.858 818.187 Q134.39 818.187 136.49 816.303 Q138.621 814.389 139.269 810.282 Q139.979 806.237 139.949 797.189 Q139.949 788.389 139.331 784.868 Q138.497 780.761 136.274 779.125 Q134.082 777.457 131.858 777.457 Q131.024 777.457 130.129 777.704 Q129.264 777.951 127.998 778.662 Q126.732 779.372 125.744 781.132 Q124.787 782.892 124.324 785.548 Q123.83 788.975 123.83 797.189 Z" fill="#000000" fill-rule="evenodd" fill-opacity="1" /><path clip-path="url(#clip130)" d="M154.06 817.168 Q153.103 816.149 153.103 814.821 Q153.103 813.493 154.06 812.536 Q155.018 811.548 156.469 811.548 Q157.858 811.548 158.785 812.474 Q159.742 813.37 159.742 814.852 Q159.742 816.303 158.723 817.261 Q157.735 818.187 156.469 818.187 Q155.018 818.187 154.06 817.168 Z" fill="#000000" fill-rule="evenodd" fill-opacity="1" /><path clip-path="url(#clip130)" d="M168.45 807.997 Q168.45 806.113 169.469 805.403 Q170.488 804.662 171.569 804.662 Q173.02 804.662 173.854 805.588 Q174.719 806.484 174.719 807.75 Q174.719 809.016 173.854 809.942 Q173.02 810.838 171.569 810.838 Q170.859 810.838 170.488 810.714 Q171.322 813.617 173.854 815.717 Q176.417 817.816 179.783 817.816 Q184.013 817.816 186.545 813.71 Q188.058 811.054 188.058 805.032 Q188.058 799.721 186.916 797.066 Q185.156 793.02 181.543 793.02 Q176.417 793.02 173.391 797.436 Q173.02 797.992 172.588 798.023 Q171.97 798.023 171.816 797.683 Q171.692 797.313 171.692 796.355 L171.692 777.643 Q171.692 776.13 172.31 776.13 Q172.557 776.13 173.082 776.315 Q177.065 778.075 181.481 778.106 Q186.02 778.106 190.096 776.253 Q190.405 776.068 190.59 776.068 Q191.208 776.068 191.239 776.778 Q191.239 777.025 190.714 777.766 Q190.22 778.476 189.139 779.434 Q188.058 780.36 186.669 781.256 Q185.279 782.151 183.241 782.769 Q181.234 783.355 179.011 783.355 Q176.355 783.355 173.638 782.522 L173.638 794.842 Q176.911 791.631 181.666 791.631 Q186.731 791.631 190.22 795.707 Q193.709 799.783 193.709 805.465 Q193.709 811.424 189.571 815.501 Q185.465 819.577 179.906 819.577 Q174.842 819.577 171.631 815.964 Q168.45 812.351 168.45 807.997 Z" fill="#000000" fill-rule="evenodd" fill-opacity="1" /><path clip-path="url(#clip130)" d="M199.391 797.961 Q199.391 788.667 201.738 783.602 Q205.011 776.068 212.731 776.068 Q214.367 776.068 216.066 776.531 Q217.795 776.963 219.957 778.662 Q222.149 780.36 223.477 783.139 Q226.009 788.512 226.009 797.961 Q226.009 807.194 223.662 812.227 Q220.234 819.577 212.669 819.577 Q209.828 819.577 206.926 818.125 Q204.054 816.674 202.232 813.185 Q199.391 807.966 199.391 797.961 M204.64 797.189 Q204.64 806.731 205.32 810.529 Q206.092 814.636 208.192 816.427 Q210.322 818.187 212.669 818.187 Q215.201 818.187 217.301 816.303 Q219.432 814.389 220.08 810.282 Q220.79 806.237 220.759 797.189 Q220.759 788.389 220.142 784.868 Q219.308 780.761 217.085 779.125 Q214.892 777.457 212.669 777.457 Q211.835 777.457 210.94 777.704 Q210.075 777.951 208.809 778.662 Q207.543 779.372 206.555 781.132 Q205.598 782.892 205.135 785.548 Q204.64 788.975 204.64 797.189 Z" fill="#000000" fill-rule="evenodd" fill-opacity="1" /><path clip-path="url(#clip130)" d="M119.259 457.351 Q119.259 448.056 121.606 442.992 Q124.88 435.457 132.599 435.457 Q134.236 435.457 135.934 435.921 Q137.664 436.353 139.825 438.051 Q142.017 439.75 143.345 442.529 Q145.877 447.902 145.877 457.351 Q145.877 466.584 143.531 471.617 Q140.103 478.966 132.538 478.966 Q129.697 478.966 126.794 477.515 Q123.922 476.064 122.1 472.574 Q119.259 467.356 119.259 457.351 M124.509 456.579 Q124.509 466.12 125.188 469.919 Q125.96 474.025 128.06 475.816 Q130.191 477.577 132.538 477.577 Q135.07 477.577 137.169 475.693 Q139.3 473.778 139.949 469.672 Q140.659 465.626 140.628 456.579 Q140.628 447.778 140.01 444.258 Q139.177 440.151 136.953 438.514 Q134.761 436.847 132.538 436.847 Q131.704 436.847 130.808 437.094 Q129.944 437.341 128.678 438.051 Q127.412 438.761 126.423 440.522 Q125.466 442.282 125.003 444.937 Q124.509 448.365 124.509 456.579 Z" fill="#000000" fill-rule="evenodd" fill-opacity="1" /><path clip-path="url(#clip130)" d="M154.74 476.558 Q153.782 475.539 153.782 474.211 Q153.782 472.883 154.74 471.926 Q155.697 470.938 157.148 470.938 Q158.538 470.938 159.464 471.864 Q160.421 472.759 160.421 474.242 Q160.421 475.693 159.402 476.65 Q158.414 477.577 157.148 477.577 Q155.697 477.577 154.74 476.558 Z" fill="#000000" fill-rule="evenodd" fill-opacity="1" /><path clip-path="url(#clip130)" d="M169.531 447.84 L171.6 434.84 L173.175 434.84 Q173.36 435.612 173.669 435.951 Q174.008 436.291 175.799 436.569 Q177.621 436.847 181.296 436.847 L196.643 436.847 Q196.643 438.298 196.087 439.07 L187.533 451.082 Q184.816 454.88 183.612 461.89 Q182.902 466.584 182.932 472.265 L182.932 475.477 Q182.932 478.966 179.999 478.966 Q177.096 478.966 177.096 475.477 Q177.096 463.403 184.878 451.7 Q185.712 450.496 188.769 446.203 Q191.856 441.911 191.98 441.726 L178.887 441.726 Q173.144 441.726 172.681 442.096 Q172.063 442.652 171.106 447.84 L169.531 447.84 Z" fill="#000000" fill-rule="evenodd" fill-opacity="1" /><path clip-path="url(#clip130)" d="M200.75 467.386 Q200.75 465.503 201.769 464.793 Q202.788 464.052 203.869 464.052 Q205.32 464.052 206.154 464.978 Q207.018 465.873 207.018 467.139 Q207.018 468.405 206.154 469.332 Q205.32 470.227 203.869 470.227 Q203.158 470.227 202.788 470.104 Q203.621 473.006 206.154 475.106 Q208.717 477.206 212.082 477.206 Q216.313 477.206 218.845 473.099 Q220.358 470.444 220.358 464.422 Q220.358 459.111 219.215 456.455 Q217.455 452.41 213.842 452.41 Q208.717 452.41 205.69 456.826 Q205.32 457.382 204.888 457.412 Q204.27 457.412 204.116 457.073 Q203.992 456.702 203.992 455.745 L203.992 437.032 Q203.992 435.519 204.61 435.519 Q204.857 435.519 205.382 435.704 Q209.365 437.465 213.781 437.495 Q218.32 437.495 222.396 435.643 Q222.705 435.457 222.89 435.457 Q223.508 435.457 223.539 436.168 Q223.539 436.415 223.014 437.156 Q222.52 437.866 221.439 438.823 Q220.358 439.75 218.968 440.645 Q217.579 441.541 215.541 442.158 Q213.534 442.745 211.31 442.745 Q208.655 442.745 205.937 441.911 L205.937 454.232 Q209.211 451.02 213.966 451.02 Q219.03 451.02 222.52 455.097 Q226.009 459.173 226.009 464.854 Q226.009 470.814 221.871 474.89 Q217.764 478.966 212.206 478.966 Q207.142 478.966 203.93 475.353 Q200.75 471.74 200.75 467.386 Z" fill="#000000" fill-rule="evenodd" fill-opacity="1" /><path clip-path="url(#clip130)" d="M121.73 100.868 L121.73 98.8921 Q129.326 98.8921 133.248 94.847 Q134.329 94.847 134.514 95.094 Q134.699 95.341 134.699 96.4835 L134.699 131.964 Q134.699 133.847 135.625 134.434 Q136.552 135.021 140.597 135.021 L142.604 135.021 L142.604 136.966 Q140.381 136.781 132.352 136.781 Q124.324 136.781 122.131 136.966 L122.131 135.021 L124.138 135.021 Q128.122 135.021 129.079 134.465 Q130.036 133.878 130.036 131.964 L130.036 99.2009 Q126.732 100.868 121.73 100.868 Z" fill="#000000" fill-rule="evenodd" fill-opacity="1" /><path clip-path="url(#clip130)" d="M154.06 135.947 Q153.103 134.928 153.103 133.6 Q153.103 132.273 154.06 131.315 Q155.018 130.327 156.469 130.327 Q157.858 130.327 158.785 131.254 Q159.742 132.149 159.742 133.631 Q159.742 135.083 158.723 136.04 Q157.735 136.966 156.469 136.966 Q155.018 136.966 154.06 135.947 Z" fill="#000000" fill-rule="evenodd" fill-opacity="1" /><path clip-path="url(#clip130)" d="M167.771 116.74 Q167.771 107.446 170.118 102.381 Q173.391 94.847 181.111 94.847 Q182.747 94.847 184.445 95.3101 Q186.175 95.7424 188.336 97.4408 Q190.529 99.1392 191.856 101.918 Q194.389 107.291 194.389 116.74 Q194.389 125.973 192.042 131.006 Q188.614 138.356 181.049 138.356 Q178.208 138.356 175.305 136.904 Q172.433 135.453 170.612 131.964 Q167.771 126.745 167.771 116.74 M173.02 115.968 Q173.02 125.51 173.7 129.308 Q174.472 133.415 176.571 135.206 Q178.702 136.966 181.049 136.966 Q183.581 136.966 185.681 135.083 Q187.811 133.168 188.46 129.061 Q189.17 125.016 189.139 115.968 Q189.139 107.168 188.522 103.648 Q187.688 99.5406 185.465 97.904 Q183.272 96.2365 181.049 96.2365 Q180.215 96.2365 179.32 96.4835 Q178.455 96.7306 177.189 97.4408 Q175.923 98.151 174.935 99.9111 Q173.977 101.671 173.514 104.327 Q173.02 107.754 173.02 115.968 Z" fill="#000000" fill-rule="evenodd" fill-opacity="1" /><path clip-path="url(#clip130)" d="M199.391 116.74 Q199.391 107.446 201.738 102.381 Q205.011 94.847 212.731 94.847 Q214.367 94.847 216.066 95.3101 Q217.795 95.7424 219.957 97.4408 Q222.149 99.1392 223.477 101.918 Q226.009 107.291 226.009 116.74 Q226.009 125.973 223.662 131.006 Q220.234 138.356 212.669 138.356 Q209.828 138.356 206.926 136.904 Q204.054 135.453 202.232 131.964 Q199.391 126.745 199.391 116.74 M204.64 115.968 Q204.64 125.51 205.32 129.308 Q206.092 133.415 208.192 135.206 Q210.322 136.966 212.669 136.966 Q215.201 136.966 217.301 135.083 Q219.432 133.168 220.08 129.061 Q220.79 125.016 220.759 115.968 Q220.759 107.168 220.142 103.648 Q219.308 99.5406 217.085 97.904 Q214.892 96.2365 212.669 96.2365 Q211.835 96.2365 210.94 96.4835 Q210.075 96.7306 208.809 97.4408 Q207.543 98.151 206.555 99.9111 Q205.598 101.671 205.135 104.327 Q204.64 107.754 204.64 115.968 Z" fill="#000000" fill-rule="evenodd" fill-opacity="1" /><path clip-path="url(#clip130)" d="M83.9671 816.089 Q84.5644 816.089 84.986 816.511 Q85.4076 816.932 85.4076 817.53 Q85.4076 818.549 84.459 818.9 L49.9226 832.286 Q49.782 832.356 49.4307 832.356 Q49.0794 832.356 48.9388 832.286 L14.4024 818.9 Q13.4538 818.549 13.4538 817.53 Q13.4538 816.932 13.8754 816.511 Q14.297 816.089 14.8943 816.089 Q15.2456 816.089 15.3862 816.16 L49.4307 829.405 L83.4752 816.16 Q83.6157 816.089 83.9671 816.089 Z" fill="#000000" fill-rule="evenodd" fill-opacity="1" /><path clip-path="url(#clip130)" d="M57.125 765.659 Q57.406 765.659 58.4952 765.975 Q59.5843 766.291 61.2707 767.064 Q62.9572 767.802 64.503 768.821 Q66.0138 769.84 67.1381 771.526 Q68.2272 773.177 68.2272 775.075 Q68.2272 777.604 66.5408 779.291 Q64.8544 780.977 62.3247 780.977 Q60.9194 780.977 58.987 780.239 Q46.5146 775.567 42.2283 775.567 Q37.2042 775.567 37.2042 779.466 Q37.2042 781.399 37.942 783.226 Q38.6447 785.017 39.6284 786.247 Q40.6121 787.477 41.9824 788.601 Q43.3174 789.69 44.2309 790.252 Q45.1092 790.779 45.9876 791.201 L49.5712 792.114 Q50.555 792.325 54.3845 793.344 L60.8843 794.925 Q65.7327 796.049 66.1894 796.295 Q67.1732 796.647 67.7002 797.42 Q68.2272 798.193 68.2272 798.966 Q68.2272 799.844 67.7002 800.441 Q67.1732 801.038 66.2597 801.038 Q66.1192 801.038 65.5922 800.933 Q65.0652 800.828 64.3274 800.652 Q63.5896 800.476 63.168 800.406 L46.5497 796.225 Q43.5282 795.452 42.5796 795.277 Q41.5959 795.066 40.5067 795.066 Q37.2042 795.066 37.2042 797.314 Q37.2042 799.141 39.3825 800.336 Q41.5607 801.53 45.7768 802.549 Q46.9362 802.865 47.1821 803.076 Q47.4281 803.252 47.4281 803.779 Q47.3929 804.657 46.6903 804.657 Q46.5146 804.657 45.3552 804.376 Q44.1958 804.095 42.5445 803.568 Q40.8581 803.006 39.7338 802.479 Q38.8906 802.022 38.5041 801.776 Q38.0825 801.495 37.2744 800.828 Q36.4312 800.125 36.0448 799.211 Q35.6232 798.263 35.6232 797.103 Q35.6232 794.504 37.3096 792.606 Q38.9609 790.709 41.877 790.463 Q35.6232 785.79 35.6232 779.256 Q35.6232 775.391 37.6609 773.177 Q39.6987 770.964 43.3174 770.964 Q44.1606 770.964 45.2498 771.14 Q46.3038 771.28 47.6389 771.632 Q48.974 771.948 49.9928 772.229 Q51.0117 772.51 52.663 773.072 Q54.2791 773.634 54.9818 773.88 Q55.6845 774.126 57.3358 774.723 Q58.9519 775.285 59.1276 775.356 Q62.395 776.656 64.2571 776.656 Q65.4868 776.656 66.0489 776.269 Q66.6111 775.848 66.6111 774.934 Q66.6111 772.475 64.1868 770.648 Q61.7275 768.786 57.7222 767.591 Q56.8439 767.31 56.6331 767.17 Q56.4223 766.994 56.4223 766.502 Q56.4223 765.659 57.125 765.659 Z" fill="#000000" fill-rule="evenodd" fill-opacity="1" /><path clip-path="url(#clip130)" d="M88.9863 730.66 Q88.8388 733.242 88.8388 735.898 Q88.8388 739.809 88.9863 742.047 L86.6253 742.047 Q86.6253 740.473 86.1581 740.473 Q86.0843 740.473 85.8137 740.694 Q85.5186 740.891 85.0759 741.235 Q84.6087 741.579 84.4119 741.727 L78.0668 746.818 Q79.0751 748.244 80.231 749.695 L86.6253 749.695 L86.6253 746.228 L88.9863 746.228 L88.8388 752.302 L88.9863 758.352 L86.6253 758.352 L86.6253 754.885 L58.7608 754.885 Q57.3344 754.885 57.0639 755.401 Q56.7933 755.917 56.7933 758.352 L54.4324 758.352 L54.0389 749.449 L77.0584 749.449 L69.5328 739.932 Q69.2869 740.178 69.2131 740.325 Q69.1147 740.448 69.0655 740.768 Q68.9917 741.063 68.9917 741.629 L66.6308 741.629 L66.7783 735.849 Q66.7783 733.267 66.6308 731.914 L68.9917 731.914 Q68.9917 733.513 69.1147 734.447 Q69.2377 735.357 69.4098 735.677 Q69.5574 735.997 69.9017 736.439 L74.9926 743.006 L85.617 734.472 Q86.281 733.931 86.4532 733.488 Q86.6253 733.045 86.6253 731.521 L86.6253 730.66 L88.9863 730.66 Z" fill="#000000" fill-rule="evenodd" fill-opacity="1" /><path clip-path="url(#clip130)" d="M48.9388 704.233 Q49.0794 704.163 49.4307 704.163 Q49.782 704.163 49.9226 704.233 L84.459 717.619 Q85.4076 717.971 85.4076 718.954 Q85.4076 719.552 84.986 719.973 Q84.5644 720.395 83.9671 720.395 Q83.6157 720.395 83.4752 720.324 L49.4307 707.114 L15.3862 720.324 Q15.2456 720.395 14.8943 720.395 Q14.297 720.395 13.8754 719.973 Q13.4538 719.552 13.4538 718.954 Q13.4538 717.971 14.4024 717.619 L48.9388 704.233 Z" fill="#000000" fill-rule="evenodd" fill-opacity="1" /><polyline clip-path="url(#clip132)" style="stroke:#009af9; stroke-linecap:round; stroke-linejoin:round; stroke-width:4; stroke-opacity:1; fill:none" points="
  321.181,121.694 540.337,125.931 759.493,1444.04 978.649,1463.04 1197.8,1458.5 1416.96,1241.51 1636.12,218.775 1855.27,131.841 2074.43,123.904 2293.58,121.694 
  
  "/>
<path clip-path="url(#clip132)" d="M301.181 101.694 L301.181 141.694 L341.181 141.694 L341.181 101.694 L301.181 101.694 Z" fill="#009af9" fill-rule="evenodd" fill-opacity="1" stroke="#000000" stroke-opacity="1" stroke-width="3.84"/>
<path clip-path="url(#clip132)" d="M520.337 105.931 L520.337 145.931 L560.337 145.931 L560.337 105.931 L520.337 105.931 Z" fill="#009af9" fill-rule="evenodd" fill-opacity="1" stroke="#000000" stroke-opacity="1" stroke-width="3.84"/>
<path clip-path="url(#clip132)" d="M739.493 1424.04 L739.493 1464.04 L779.493 1464.04 L779.493 1424.04 L739.493 1424.04 Z" fill="#009af9" fill-rule="evenodd" fill-opacity="1" stroke="#000000" stroke-opacity="1" stroke-width="3.84"/>
<path clip-path="url(#clip132)" d="M958.649 1443.04 L958.649 1483.04 L998.649 1483.04 L998.649 1443.04 L958.649 1443.04 Z" fill="#009af9" fill-rule="evenodd" fill-opacity="1" stroke="#000000" stroke-opacity="1" stroke-width="3.84"/>
<path clip-path="url(#clip132)" d="M1177.8 1438.5 L1177.8 1478.5 L1217.8 1478.5 L1217.8 1438.5 L1177.8 1438.5 Z" fill="#009af9" fill-rule="evenodd" fill-opacity="1" stroke="#000000" stroke-opacity="1" stroke-width="3.84"/>
<path clip-path="url(#clip132)" d="M1396.96 1221.51 L1396.96 1261.51 L1436.96 1261.51 L1436.96 1221.51 L1396.96 1221.51 Z" fill="#009af9" fill-rule="evenodd" fill-opacity="1" stroke="#000000" stroke-opacity="1" stroke-width="3.84"/>
<path clip-path="url(#clip132)" d="M1616.12 198.775 L1616.12 238.775 L1656.12 238.775 L1656.12 198.775 L1616.12 198.775 Z" fill="#009af9" fill-rule="evenodd" fill-opacity="1" stroke="#000000" stroke-opacity="1" stroke-width="3.84"/>
<path clip-path="url(#clip132)" d="M1835.27 111.841 L1835.27 151.841 L1875.27 151.841 L1875.27 111.841 L1835.27 111.841 Z" fill="#009af9" fill-rule="evenodd" fill-opacity="1" stroke="#000000" stroke-opacity="1" stroke-width="3.84"/>
<path clip-path="url(#clip132)" d="M2054.43 103.904 L2054.43 143.904 L2094.43 143.904 L2094.43 103.904 L2054.43 103.904 Z" fill="#009af9" fill-rule="evenodd" fill-opacity="1" stroke="#000000" stroke-opacity="1" stroke-width="3.84"/>
<path clip-path="url(#clip132)" d="M2273.58 101.694 L2273.58 141.694 L2313.58 141.694 L2313.58 101.694 L2273.58 101.694 Z" fill="#009af9" fill-rule="evenodd" fill-opacity="1" stroke="#000000" stroke-opacity="1" stroke-width="3.84"/>
<polyline clip-path="url(#clip132)" style="stroke:#e26f46; stroke-linecap:round; stroke-linejoin:round; stroke-width:4; stroke-opacity:1; fill:none" points="
  321.181,121.948 540.337,125.589 759.493,1441.66 978.649,1463.76 1197.8,1459.12 1416.96,1170.25 1636.12,247.482 1855.27,132.907 2074.43,123.696 2293.58,121.948 
  
  "/>
<path clip-path="url(#clip132)" d="M301.181 101.948 L301.181 141.948 L341.181 141.948 L341.181 101.948 L301.181 101.948 Z" fill="#e26f46" fill-rule="evenodd" fill-opacity="1" stroke="#000000" stroke-opacity="1" stroke-width="3.84"/>
<path clip-path="url(#clip132)" d="M520.337 105.589 L520.337 145.589 L560.337 145.589 L560.337 105.589 L520.337 105.589 Z" fill="#e26f46" fill-rule="evenodd" fill-opacity="1" stroke="#000000" stroke-opacity="1" stroke-width="3.84"/>
<path clip-path="url(#clip132)" d="M739.493 1421.66 L739.493 1461.66 L779.493 1461.66 L779.493 1421.66 L739.493 1421.66 Z" fill="#e26f46" fill-rule="evenodd" fill-opacity="1" stroke="#000000" stroke-opacity="1" stroke-width="3.84"/>
<path clip-path="url(#clip132)" d="M958.649 1443.76 L958.649 1483.76 L998.649 1483.76 L998.649 1443.76 L958.649 1443.76 Z" fill="#e26f46" fill-rule="evenodd" fill-opacity="1" stroke="#000000" stroke-opacity="1" stroke-width="3.84"/>
<path clip-path="url(#clip132)" d="M1177.8 1439.12 L1177.8 1479.12 L1217.8 1479.12 L1217.8 1439.12 L1177.8 1439.12 Z" fill="#e26f46" fill-rule="evenodd" fill-opacity="1" stroke="#000000" stroke-opacity="1" stroke-width="3.84"/>
<path clip-path="url(#clip132)" d="M1396.96 1150.25 L1396.96 1190.25 L1436.96 1190.25 L1436.96 1150.25 L1396.96 1150.25 Z" fill="#e26f46" fill-rule="evenodd" fill-opacity="1" stroke="#000000" stroke-opacity="1" stroke-width="3.84"/>
<path clip-path="url(#clip132)" d="M1616.12 227.482 L1616.12 267.482 L1656.12 267.482 L1656.12 227.482 L1616.12 227.482 Z" fill="#e26f46" fill-rule="evenodd" fill-opacity="1" stroke="#000000" stroke-opacity="1" stroke-width="3.84"/>
<path clip-path="url(#clip132)" d="M1835.27 112.907 L1835.27 152.907 L1875.27 152.907 L1875.27 112.907 L1835.27 112.907 Z" fill="#e26f46" fill-rule="evenodd" fill-opacity="1" stroke="#000000" stroke-opacity="1" stroke-width="3.84"/>
<path clip-path="url(#clip132)" d="M2054.43 103.696 L2054.43 143.696 L2094.43 143.696 L2094.43 103.696 L2054.43 103.696 Z" fill="#e26f46" fill-rule="evenodd" fill-opacity="1" stroke="#000000" stroke-opacity="1" stroke-width="3.84"/>
<path clip-path="url(#clip132)" d="M2273.58 101.948 L2273.58 141.948 L2313.58 141.948 L2313.58 101.948 L2273.58 101.948 Z" fill="#e26f46" fill-rule="evenodd" fill-opacity="1" stroke="#000000" stroke-opacity="1" stroke-width="3.84"/>
<polyline clip-path="url(#clip132)" style="stroke:#009af9; stroke-linecap:round; stroke-linejoin:round; stroke-width:4; stroke-opacity:1; fill:none" points="
  321.181,121.074 540.337,123.956 759.493,1451.62 978.649,1464.39 1197.8,1461.6 1416.96,1427.2 1636.12,144.915 1855.27,126.104 2074.43,123.563 2293.58,121.074 
  
  "/>
<circle clip-path="url(#clip132)" cx="321.181" cy="121.074" r="21.6" fill="#009af9" fill-rule="evenodd" fill-opacity="1" stroke="#000000" stroke-opacity="1" stroke-width="3.84"/>
<circle clip-path="url(#clip132)" cx="540.337" cy="123.956" r="21.6" fill="#009af9" fill-rule="evenodd" fill-opacity="1" stroke="#000000" stroke-opacity="1" stroke-width="3.84"/>
<circle clip-path="url(#clip132)" cx="759.493" cy="1451.62" r="21.6" fill="#009af9" fill-rule="evenodd" fill-opacity="1" stroke="#000000" stroke-opacity="1" stroke-width="3.84"/>
<circle clip-path="url(#clip132)" cx="978.649" cy="1464.39" r="21.6" fill="#009af9" fill-rule="evenodd" fill-opacity="1" stroke="#000000" stroke-opacity="1" stroke-width="3.84"/>
<circle clip-path="url(#clip132)" cx="1197.8" cy="1461.6" r="21.6" fill="#009af9" fill-rule="evenodd" fill-opacity="1" stroke="#000000" stroke-opacity="1" stroke-width="3.84"/>
<circle clip-path="url(#clip132)" cx="1416.96" cy="1427.2" r="21.6" fill="#009af9" fill-rule="evenodd" fill-opacity="1" stroke="#000000" stroke-opacity="1" stroke-width="3.84"/>
<circle clip-path="url(#clip132)" cx="1636.12" cy="144.915" r="21.6" fill="#009af9" fill-rule="evenodd" fill-opacity="1" stroke="#000000" stroke-opacity="1" stroke-width="3.84"/>
<circle clip-path="url(#clip132)" cx="1855.27" cy="126.104" r="21.6" fill="#009af9" fill-rule="evenodd" fill-opacity="1" stroke="#000000" stroke-opacity="1" stroke-width="3.84"/>
<circle clip-path="url(#clip132)" cx="2074.43" cy="123.563" r="21.6" fill="#009af9" fill-rule="evenodd" fill-opacity="1" stroke="#000000" stroke-opacity="1" stroke-width="3.84"/>
<circle clip-path="url(#clip132)" cx="2293.58" cy="121.074" r="21.6" fill="#009af9" fill-rule="evenodd" fill-opacity="1" stroke="#000000" stroke-opacity="1" stroke-width="3.84"/>
<polyline clip-path="url(#clip132)" style="stroke:#e26f46; stroke-linecap:round; stroke-linejoin:round; stroke-width:4; stroke-opacity:1; fill:none" points="
  321.181,121.112 540.337,124.303 759.493,1450.55 978.649,1464.04 1197.8,1461.29 1416.96,1391.85 1636.12,155.615 1855.27,127.806 2074.43,123.773 2293.58,121.112 
  
  "/>
<circle clip-path="url(#clip132)" cx="321.181" cy="121.112" r="21.6" fill="#e26f46" fill-rule="evenodd" fill-opacity="1" stroke="#000000" stroke-opacity="1" stroke-width="3.84"/>
<circle clip-path="url(#clip132)" cx="540.337" cy="124.303" r="21.6" fill="#e26f46" fill-rule="evenodd" fill-opacity="1" stroke="#000000" stroke-opacity="1" stroke-width="3.84"/>
<circle clip-path="url(#clip132)" cx="759.493" cy="1450.55" r="21.6" fill="#e26f46" fill-rule="evenodd" fill-opacity="1" stroke="#000000" stroke-opacity="1" stroke-width="3.84"/>
<circle clip-path="url(#clip132)" cx="978.649" cy="1464.04" r="21.6" fill="#e26f46" fill-rule="evenodd" fill-opacity="1" stroke="#000000" stroke-opacity="1" stroke-width="3.84"/>
<circle clip-path="url(#clip132)" cx="1197.8" cy="1461.29" r="21.6" fill="#e26f46" fill-rule="evenodd" fill-opacity="1" stroke="#000000" stroke-opacity="1" stroke-width="3.84"/>
<circle clip-path="url(#clip132)" cx="1416.96" cy="1391.85" r="21.6" fill="#e26f46" fill-rule="evenodd" fill-opacity="1" stroke="#000000" stroke-opacity="1" stroke-width="3.84"/>
<circle clip-path="url(#clip132)" cx="1636.12" cy="155.615" r="21.6" fill="#e26f46" fill-rule="evenodd" fill-opacity="1" stroke="#000000" stroke-opacity="1" stroke-width="3.84"/>
<circle clip-path="url(#clip132)" cx="1855.27" cy="127.806" r="21.6" fill="#e26f46" fill-rule="evenodd" fill-opacity="1" stroke="#000000" stroke-opacity="1" stroke-width="3.84"/>
<circle clip-path="url(#clip132)" cx="2074.43" cy="123.773" r="21.6" fill="#e26f46" fill-rule="evenodd" fill-opacity="1" stroke="#000000" stroke-opacity="1" stroke-width="3.84"/>
<circle clip-path="url(#clip132)" cx="2293.58" cy="121.112" r="21.6" fill="#e26f46" fill-rule="evenodd" fill-opacity="1" stroke="#000000" stroke-opacity="1" stroke-width="3.84"/>
<path clip-path="url(#clip130)" d="
M1771.17 1430.12 L2283.06 1430.12 L2283.06 1106.12 L1771.17 1106.12  Z
  " fill="#ffffff" fill-rule="evenodd" fill-opacity="1"/>
<polyline clip-path="url(#clip130)" style="stroke:#000000; stroke-linecap:round; stroke-linejoin:round; stroke-width:4; stroke-opacity:0; fill:none" points="
  1771.17,1430.12 2283.06,1430.12 2283.06,1106.12 1771.17,1106.12 1771.17,1430.12 
  "/>
<polyline clip-path="url(#clip130)" style="stroke:#009af9; stroke-linecap:round; stroke-linejoin:round; stroke-width:5; stroke-opacity:1; fill:none" points="
  1794.4,1170.92 1933.78,1170.92 
  "/>
<path clip-path="url(#clip130)" d="M1846.88 1153.71 L1846.88 1188.13 L1881.3 1188.13 L1881.3 1153.71 L1846.88 1153.71 Z" fill="#009af9" fill-rule="evenodd" fill-opacity="1" stroke="#000000" stroke-opacity="1" stroke-width="6.144"/>
<path clip-path="url(#clip130)" d="M1957.01 1165.64 Q1957.01 1156.59 1963.19 1150.24 Q1969.37 1143.86 1977.86 1143.86 Q1980.49 1143.86 1982.84 1144.82 Q1985.18 1145.79 1986.26 1146.64 Q1987.35 1147.46 1988.9 1149.01 L1991.91 1144.59 Q1992.38 1143.86 1992.85 1143.86 Q1993.35 1143.86 1993.44 1144.15 Q1993.52 1144.41 1993.52 1145.29 L1993.52 1159.52 Q1993.52 1160.49 1993.41 1160.72 Q1993.29 1160.95 1992.56 1160.95 Q1991.97 1160.95 1991.83 1160.78 Q1991.71 1160.6 1991.59 1159.93 Q1990.68 1153.46 1987.08 1149.59 Q1983.51 1145.73 1978.53 1145.73 Q1977.1 1145.73 1975.49 1146.05 Q1973.91 1146.37 1971.59 1147.6 Q1969.31 1148.83 1967.52 1150.88 Q1965.77 1152.9 1964.48 1156.77 Q1963.19 1160.6 1963.19 1165.7 Q1963.19 1170.73 1964.48 1174.6 Q1965.77 1178.46 1967.52 1180.48 Q1969.31 1182.47 1971.59 1183.7 Q1973.91 1184.93 1975.52 1185.28 Q1977.16 1185.61 1978.59 1185.61 Q1983.74 1185.61 1987.7 1181.95 Q1991.65 1178.29 1992.03 1172.11 Q1992.09 1171.82 1992.09 1171.7 Q1992.09 1171.55 1992.15 1171.41 Q1992.21 1171.26 1992.35 1171.2 Q1992.5 1171.14 1992.73 1171.14 Q1993.52 1171.14 1993.52 1172.17 Q1993.52 1177.88 1989.13 1182.68 Q1984.77 1187.45 1977.86 1187.45 Q1969.34 1187.45 1963.16 1181.13 Q1957.01 1174.8 1957.01 1165.64 Z" fill="#000000" fill-rule="evenodd" fill-opacity="1" /><path clip-path="url(#clip130)" d="M2004.67 1186.13 L2004.67 1184.29 L2006.11 1184.29 Q2009.36 1184.29 2010.09 1183.76 Q2010.85 1183.21 2010.85 1181.45 L2010.85 1150.03 Q2010.85 1148.31 2010.09 1147.78 Q2009.33 1147.22 2006.11 1147.22 L2004.67 1147.22 L2004.67 1145.35 L2038.43 1145.35 L2040.1 1158.85 L2038.61 1158.85 Q2038.2 1155.42 2037.64 1153.46 Q2037.12 1151.47 2035.8 1149.95 Q2034.51 1148.42 2032.37 1147.84 Q2030.26 1147.22 2026.84 1147.22 L2019.11 1147.22 Q2017.06 1147.22 2016.62 1147.66 Q2016.18 1148.07 2016.18 1149.62 L2016.18 1164 L2021.57 1164 Q2025.7 1164 2026.87 1162.56 Q2028.04 1161.13 2028.04 1157 L2029.56 1157 L2029.56 1172.87 L2028.04 1172.87 Q2028.04 1168.8 2026.87 1167.34 Q2025.7 1165.87 2021.57 1165.87 L2016.18 1165.87 L2016.18 1181.89 Q2016.18 1183.44 2016.62 1183.88 Q2017.09 1184.29 2019.11 1184.29 L2027.1 1184.29 Q2029.68 1184.29 2031.55 1183.97 Q2033.46 1183.62 2034.77 1182.8 Q2036.09 1181.95 2036.97 1180.98 Q2037.88 1180.01 2038.49 1178.29 Q2039.14 1176.53 2039.49 1174.92 Q2039.87 1173.31 2040.28 1170.67 L2041.77 1170.67 L2039.25 1186.13 L2004.67 1186.13 Z" fill="#000000" fill-rule="evenodd" fill-opacity="1" /><path clip-path="url(#clip130)" d="M2045.89 1185.17 Q2045.04 1184.2 2045.04 1182.94 Q2045.04 1181.68 2045.86 1180.75 Q2046.71 1179.78 2048.23 1179.78 Q2050.02 1179.78 2051.04 1181.51 Q2052.07 1183.21 2052.07 1186.07 Q2052.07 1189.18 2050.81 1192.05 Q2049.55 1194.95 2048.32 1196.32 Q2047.09 1197.7 2046.59 1197.7 Q2046.01 1197.7 2046.01 1197.05 Q2046.01 1196.82 2046.42 1196.38 Q2050.72 1191.75 2050.75 1186.07 Q2050.75 1185.17 2050.63 1185.17 L2050.49 1185.28 Q2049.46 1186.13 2048.23 1186.13 Q2046.74 1186.13 2045.89 1185.17 Z" fill="#000000" fill-rule="evenodd" fill-opacity="1" /><path clip-path="url(#clip130)" d="M2103.64 1151.7 Q2103.64 1152.46 2103.32 1153.93 Q2102.29 1158.06 2098.45 1160.9 Q2097.81 1161.42 2096.67 1162.1 Q2098.05 1163 2099.25 1164.67 Q2101.03 1167.42 2101.03 1171.14 Q2101.03 1172.87 2100.56 1174.98 Q2099.25 1179.87 2094.62 1183.38 Q2089.96 1186.81 2084.43 1186.81 Q2081.44 1186.81 2079.39 1185.23 Q2077.37 1183.62 2076.58 1180.92 L2072.51 1197.35 Q2072.43 1197.76 2071.9 1197.76 L2071.61 1197.76 Q2070.99 1197.76 2070.99 1197.05 L2080.24 1160.16 Q2080.86 1157.68 2081.85 1155.33 Q2082.85 1152.99 2084.23 1150.88 Q2085.63 1148.77 2087.24 1147.22 Q2088.85 1145.64 2090.84 1144.73 Q2092.83 1143.8 2094.94 1143.8 Q2099.36 1143.8 2101.88 1146.81 Q2103.64 1148.95 2103.64 1151.7 M2100.27 1150.65 Q2100.27 1148.83 2099.54 1147.57 Q2098.05 1145.17 2094.88 1145.17 Q2092.98 1145.17 2091.16 1146.05 Q2089.38 1146.9 2087.94 1148.36 Q2086.51 1149.83 2085.28 1151.82 Q2084.05 1153.81 2083.14 1155.98 Q2082.26 1158.11 2081.68 1160.46 L2078.08 1174.98 Q2077.73 1176.53 2077.73 1177.91 Q2077.73 1181.19 2079.54 1183.32 Q2081.36 1185.46 2084.49 1185.46 Q2088.65 1185.46 2092.22 1182.36 Q2095.32 1179.58 2096.61 1174.69 Q2097.34 1171.61 2097.34 1169.47 Q2097.34 1167.13 2096.49 1165.32 Q2095.88 1163.85 2094.68 1162.97 Q2092.45 1163.76 2090.2 1163.76 Q2089.12 1163.76 2088.53 1163.74 Q2087.97 1163.71 2087.15 1163.59 Q2086.36 1163.47 2085.98 1163.15 Q2085.63 1162.83 2085.63 1162.33 Q2085.63 1162.04 2085.69 1161.92 Q2085.81 1161.45 2086.19 1161.13 Q2086.57 1160.81 2087.01 1160.66 Q2087.45 1160.49 2088.18 1160.4 Q2088.94 1160.31 2089.44 1160.31 Q2089.94 1160.28 2090.78 1160.28 Q2092.78 1160.28 2094.8 1161.07 Q2095.56 1160.66 2096.38 1159.93 Q2098.98 1157.5 2099.86 1153.63 Q2100.27 1152.2 2100.27 1150.65 M2092.89 1161.98 Q2091.66 1161.66 2090.73 1161.66 Q2087.3 1161.66 2087.12 1162.21 Q2087.12 1162.27 2087.24 1162.33 Q2087.36 1162.36 2087.62 1162.39 Q2087.91 1162.39 2088.15 1162.42 Q2088.41 1162.45 2088.85 1162.45 Q2089.29 1162.45 2089.53 1162.45 Q2089.79 1162.45 2090.26 1162.45 Q2091.43 1162.45 2092.89 1161.98 Z" fill="#000000" fill-rule="evenodd" fill-opacity="1" /><path clip-path="url(#clip130)" d="M2121.24 1177.03 Q2121.3 1176.3 2122.44 1176.3 L2159.18 1176.3 Q2160.91 1176.3 2160.94 1176.97 Q2160.94 1177.7 2159.3 1177.67 L2122.85 1177.67 Q2121.24 1177.7 2121.24 1177.03 M2121.24 1165.32 Q2121.24 1164.58 2122.5 1164.61 L2159.13 1164.61 Q2160.91 1164.61 2160.94 1165.32 Q2160.94 1165.99 2159.42 1165.99 L2122.44 1165.99 Q2121.24 1165.99 2121.24 1165.32 Z" fill="#000000" fill-rule="evenodd" fill-opacity="1" /><path clip-path="url(#clip130)" d="M2184.07 1176.24 L2184.07 1174.39 L2202.49 1146.26 Q2202.96 1145.52 2203.69 1145.55 Q2204.36 1145.55 2204.51 1145.82 Q2204.66 1146.08 2204.66 1147.11 L2204.66 1174.39 L2210.66 1174.39 L2210.66 1176.24 L2204.66 1176.24 L2204.66 1181.45 Q2204.66 1183.18 2205.36 1183.73 Q2206.09 1184.29 2209.2 1184.29 L2210.45 1184.29 L2210.45 1186.13 Q2207.99 1185.96 2202.31 1185.96 Q2196.66 1185.96 2194.2 1186.13 L2194.2 1184.29 L2195.46 1184.29 Q2198.57 1184.29 2199.3 1183.76 Q2200.03 1183.21 2200.03 1181.45 L2200.03 1176.24 L2184.07 1176.24 M2185.77 1174.39 L2200.38 1174.39 L2200.38 1152.02 L2185.77 1174.39 Z" fill="#000000" fill-rule="evenodd" fill-opacity="1" /><polyline clip-path="url(#clip130)" style="stroke:#e26f46; stroke-linecap:round; stroke-linejoin:round; stroke-width:5; stroke-opacity:1; fill:none" points="
  1794.4,1235.72 1933.78,1235.72 
  "/>
<path clip-path="url(#clip130)" d="M1846.88 1218.51 L1846.88 1252.93 L1881.3 1252.93 L1881.3 1218.51 L1846.88 1218.51 Z" fill="#e26f46" fill-rule="evenodd" fill-opacity="1" stroke="#000000" stroke-opacity="1" stroke-width="6.144"/>
<path clip-path="url(#clip130)" d="M1963.16 1245.9 Q1957.01 1239.54 1957.01 1230.44 Q1957.01 1221.3 1963.22 1214.98 Q1969.43 1208.66 1977.86 1208.66 Q1979.97 1208.66 1981.75 1209.15 Q1983.57 1209.62 1985 1210.59 Q1986.44 1211.53 1987.17 1212.17 Q1987.93 1212.78 1988.96 1213.81 L1991.97 1209.39 Q1992.44 1208.66 1992.91 1208.66 Q1993.41 1208.66 1993.49 1208.95 Q1993.58 1209.21 1993.58 1210.09 L1993.58 1224.32 Q1993.58 1225.29 1993.47 1225.52 Q1993.35 1225.75 1992.62 1225.75 Q1992.03 1225.75 1991.91 1225.58 Q1991.8 1225.4 1991.65 1224.73 Q1990.74 1218.26 1987.11 1214.39 Q1983.51 1210.53 1978.59 1210.53 Q1977.16 1210.53 1975.55 1210.85 Q1973.97 1211.17 1971.62 1212.4 Q1969.31 1213.63 1967.52 1215.65 Q1965.77 1217.64 1964.48 1221.51 Q1963.19 1225.34 1963.19 1230.44 Q1963.19 1235.47 1964.48 1239.34 Q1965.77 1243.2 1967.55 1245.22 Q1969.37 1247.22 1971.71 1248.47 Q1974.08 1249.73 1975.75 1250.08 Q1977.45 1250.41 1978.94 1250.41 Q1979.97 1250.41 1981.17 1250.2 Q1982.37 1249.97 1984.15 1249.32 Q1985.97 1248.65 1987.11 1247.07 Q1988.25 1245.49 1988.25 1243.15 L1988.25 1239.31 Q1988.25 1237.52 1987.38 1236.97 Q1986.5 1236.41 1982.66 1236.41 L1980.76 1236.41 L1980.76 1234.57 Q1982.93 1234.74 1990.39 1234.74 Q1991.06 1234.74 1997.71 1234.57 L1997.71 1236.41 Q1994.84 1236.41 1994.2 1236.85 Q1993.58 1237.26 1993.58 1239.05 L1993.58 1249.5 Q1993.58 1250.87 1993.06 1250.87 Q1992.59 1250.87 1991.18 1249.53 Q1989.81 1248.18 1989.19 1247.16 Q1987.76 1249.67 1984.62 1250.96 Q1981.52 1252.25 1977.98 1252.25 Q1969.34 1252.25 1963.16 1245.9 Z" fill="#000000" fill-rule="evenodd" fill-opacity="1" /><path clip-path="url(#clip130)" d="M2003.08 1230.44 Q2003.08 1221.39 2009.26 1215.04 Q2015.43 1208.66 2023.92 1208.66 Q2026.56 1208.66 2028.9 1209.62 Q2031.24 1210.59 2032.33 1211.44 Q2033.41 1212.26 2034.96 1213.81 L2037.98 1209.39 Q2038.45 1208.66 2038.91 1208.66 Q2039.41 1208.66 2039.5 1208.95 Q2039.59 1209.21 2039.59 1210.09 L2039.59 1224.32 Q2039.59 1225.29 2039.47 1225.52 Q2039.35 1225.75 2038.62 1225.75 Q2038.04 1225.75 2037.89 1225.58 Q2037.77 1225.4 2037.66 1224.73 Q2036.75 1218.26 2033.15 1214.39 Q2029.57 1210.53 2024.6 1210.53 Q2023.16 1210.53 2021.55 1210.85 Q2019.97 1211.17 2017.66 1212.4 Q2015.37 1213.63 2013.59 1215.68 Q2011.83 1217.7 2010.54 1221.57 Q2009.26 1225.4 2009.26 1230.5 Q2009.26 1235.53 2010.54 1239.4 Q2011.83 1243.26 2013.59 1245.28 Q2015.37 1247.27 2017.66 1248.5 Q2019.97 1249.73 2021.58 1250.08 Q2023.22 1250.41 2024.66 1250.41 Q2029.81 1250.41 2033.76 1246.75 Q2037.71 1243.09 2038.09 1236.91 Q2038.15 1236.62 2038.15 1236.5 Q2038.15 1236.35 2038.21 1236.21 Q2038.27 1236.06 2038.42 1236 Q2038.56 1235.94 2038.8 1235.94 Q2039.59 1235.94 2039.59 1236.97 Q2039.59 1242.68 2035.2 1247.48 Q2030.83 1252.25 2023.92 1252.25 Q2015.4 1252.25 2009.23 1245.93 Q2003.08 1239.6 2003.08 1230.44 Z" fill="#000000" fill-rule="evenodd" fill-opacity="1" /><path clip-path="url(#clip130)" d="M2050.74 1250.93 L2050.74 1249.09 L2052.17 1249.09 Q2055.42 1249.09 2056.16 1248.56 Q2056.92 1248.01 2056.92 1246.25 L2056.92 1214.83 Q2056.92 1213.11 2056.16 1212.58 Q2055.39 1212.02 2052.17 1212.02 L2050.74 1212.02 L2050.74 1210.15 L2084.5 1210.15 L2086.17 1223.65 L2084.67 1223.65 Q2084.26 1220.22 2083.71 1218.26 Q2083.18 1216.27 2081.86 1214.75 Q2080.57 1213.22 2078.44 1212.64 Q2076.33 1212.02 2072.9 1212.02 L2065.17 1212.02 Q2063.12 1212.02 2062.68 1212.46 Q2062.25 1212.87 2062.25 1214.42 L2062.25 1228.8 L2067.63 1228.8 Q2071.76 1228.8 2072.93 1227.36 Q2074.1 1225.93 2074.1 1221.8 L2075.63 1221.8 L2075.63 1237.67 L2074.1 1237.67 Q2074.1 1233.6 2072.93 1232.14 Q2071.76 1230.67 2067.63 1230.67 L2062.25 1230.67 L2062.25 1246.69 Q2062.25 1248.24 2062.68 1248.68 Q2063.15 1249.09 2065.17 1249.09 L2073.17 1249.09 Q2075.74 1249.09 2077.62 1248.77 Q2079.52 1248.42 2080.84 1247.6 Q2082.15 1246.75 2083.03 1245.78 Q2083.94 1244.81 2084.56 1243.09 Q2085.2 1241.33 2085.55 1239.72 Q2085.93 1238.11 2086.34 1235.47 L2087.83 1235.47 L2085.32 1250.93 L2050.74 1250.93 Z" fill="#000000" fill-rule="evenodd" fill-opacity="1" /><path clip-path="url(#clip130)" d="M2091.95 1249.97 Q2091.11 1249 2091.11 1247.74 Q2091.11 1246.48 2091.93 1245.55 Q2092.77 1244.58 2094.3 1244.58 Q2096.08 1244.58 2097.11 1246.31 Q2098.13 1248.01 2098.13 1250.87 Q2098.13 1253.98 2096.87 1256.85 Q2095.61 1259.75 2094.39 1261.12 Q2093.16 1262.5 2092.66 1262.5 Q2092.07 1262.5 2092.07 1261.85 Q2092.07 1261.62 2092.48 1261.18 Q2096.79 1256.55 2096.82 1250.87 Q2096.82 1249.97 2096.7 1249.97 L2096.55 1250.08 Q2095.53 1250.93 2094.3 1250.93 Q2092.8 1250.93 2091.95 1249.97 Z" fill="#000000" fill-rule="evenodd" fill-opacity="1" /><path clip-path="url(#clip130)" d="M2149.7 1216.5 Q2149.7 1217.26 2149.38 1218.73 Q2148.35 1222.86 2144.52 1225.7 Q2143.87 1226.22 2142.73 1226.9 Q2144.11 1227.8 2145.31 1229.47 Q2147.1 1232.22 2147.1 1235.94 Q2147.1 1237.67 2146.63 1239.78 Q2145.31 1244.67 2140.68 1248.18 Q2136.03 1251.61 2130.49 1251.61 Q2127.51 1251.61 2125.46 1250.03 Q2123.44 1248.42 2122.65 1245.72 L2118.58 1262.15 Q2118.49 1262.56 2117.96 1262.56 L2117.67 1262.56 Q2117.06 1262.56 2117.06 1261.85 L2126.31 1224.96 Q2126.92 1222.48 2127.92 1220.13 Q2128.91 1217.79 2130.29 1215.68 Q2131.7 1213.57 2133.31 1212.02 Q2134.92 1210.44 2136.91 1209.53 Q2138.9 1208.6 2141.01 1208.6 Q2145.43 1208.6 2147.94 1211.61 Q2149.7 1213.75 2149.7 1216.5 M2146.33 1215.45 Q2146.33 1213.63 2145.6 1212.37 Q2144.11 1209.97 2140.95 1209.97 Q2139.04 1209.97 2137.23 1210.85 Q2135.44 1211.7 2134.01 1213.16 Q2132.57 1214.63 2131.34 1216.62 Q2130.11 1218.61 2129.21 1220.78 Q2128.33 1222.91 2127.74 1225.26 L2124.14 1239.78 Q2123.79 1241.33 2123.79 1242.71 Q2123.79 1245.99 2125.61 1248.12 Q2127.42 1250.26 2130.55 1250.26 Q2134.71 1250.26 2138.28 1247.16 Q2141.39 1244.38 2142.67 1239.49 Q2143.41 1236.41 2143.41 1234.27 Q2143.41 1231.93 2142.56 1230.12 Q2141.94 1228.65 2140.74 1227.77 Q2138.52 1228.56 2136.26 1228.56 Q2135.18 1228.56 2134.59 1228.54 Q2134.04 1228.51 2133.22 1228.39 Q2132.43 1228.27 2132.05 1227.95 Q2131.7 1227.63 2131.7 1227.13 Q2131.7 1226.84 2131.75 1226.72 Q2131.87 1226.25 2132.25 1225.93 Q2132.63 1225.61 2133.07 1225.46 Q2133.51 1225.29 2134.24 1225.2 Q2135 1225.11 2135.5 1225.11 Q2136 1225.08 2136.85 1225.08 Q2138.84 1225.08 2140.86 1225.87 Q2141.62 1225.46 2142.44 1224.73 Q2145.05 1222.3 2145.92 1218.43 Q2146.33 1217 2146.33 1215.45 M2138.96 1226.78 Q2137.73 1226.46 2136.79 1226.46 Q2133.36 1226.46 2133.19 1227.01 Q2133.19 1227.07 2133.31 1227.13 Q2133.42 1227.16 2133.69 1227.19 Q2133.98 1227.19 2134.21 1227.22 Q2134.48 1227.25 2134.92 1227.25 Q2135.35 1227.25 2135.59 1227.25 Q2135.85 1227.25 2136.32 1227.25 Q2137.49 1227.25 2138.96 1226.78 Z" fill="#000000" fill-rule="evenodd" fill-opacity="1" /><path clip-path="url(#clip130)" d="M2167.3 1241.83 Q2167.36 1241.1 2168.5 1241.1 L2205.25 1241.1 Q2206.98 1241.1 2207.01 1241.77 Q2207.01 1242.5 2205.37 1242.47 L2168.91 1242.47 Q2167.3 1242.5 2167.3 1241.83 M2167.3 1230.12 Q2167.3 1229.38 2168.56 1229.41 L2205.19 1229.41 Q2206.98 1229.41 2207.01 1230.12 Q2207.01 1230.79 2205.48 1230.79 L2168.5 1230.79 Q2167.3 1230.79 2167.3 1230.12 Z" fill="#000000" fill-rule="evenodd" fill-opacity="1" /><path clip-path="url(#clip130)" d="M2230.14 1241.04 L2230.14 1239.19 L2248.55 1211.06 Q2249.02 1210.32 2249.75 1210.35 Q2250.43 1210.35 2250.57 1210.62 Q2250.72 1210.88 2250.72 1211.91 L2250.72 1239.19 L2256.72 1239.19 L2256.72 1241.04 L2250.72 1241.04 L2250.72 1246.25 Q2250.72 1247.98 2251.42 1248.53 Q2252.16 1249.09 2255.26 1249.09 L2256.52 1249.09 L2256.52 1250.93 Q2254.06 1250.76 2248.38 1250.76 Q2242.73 1250.76 2240.27 1250.93 L2240.27 1249.09 L2241.53 1249.09 Q2244.63 1249.09 2245.36 1248.56 Q2246.1 1248.01 2246.1 1246.25 L2246.1 1241.04 L2230.14 1241.04 M2231.84 1239.19 L2246.45 1239.19 L2246.45 1216.82 L2231.84 1239.19 Z" fill="#000000" fill-rule="evenodd" fill-opacity="1" /><polyline clip-path="url(#clip130)" style="stroke:#009af9; stroke-linecap:round; stroke-linejoin:round; stroke-width:5; stroke-opacity:1; fill:none" points="
  1794.4,1300.52 1933.78,1300.52 
  "/>
<circle clip-path="url(#clip130)" cx="1864.09" cy="1300.52" r="15.487" fill="#009af9" fill-rule="evenodd" fill-opacity="1" stroke="#000000" stroke-opacity="1" stroke-width="5.12"/>
<path clip-path="url(#clip130)" d="M1957.01 1295.24 Q1957.01 1286.19 1963.19 1279.84 Q1969.37 1273.46 1977.86 1273.46 Q1980.49 1273.46 1982.84 1274.42 Q1985.18 1275.39 1986.26 1276.24 Q1987.35 1277.06 1988.9 1278.61 L1991.91 1274.19 Q1992.38 1273.46 1992.85 1273.46 Q1993.35 1273.46 1993.44 1273.75 Q1993.52 1274.01 1993.52 1274.89 L1993.52 1289.12 Q1993.52 1290.09 1993.41 1290.32 Q1993.29 1290.55 1992.56 1290.55 Q1991.97 1290.55 1991.83 1290.38 Q1991.71 1290.2 1991.59 1289.53 Q1990.68 1283.06 1987.08 1279.19 Q1983.51 1275.33 1978.53 1275.33 Q1977.1 1275.33 1975.49 1275.65 Q1973.91 1275.97 1971.59 1277.2 Q1969.31 1278.43 1967.52 1280.48 Q1965.77 1282.5 1964.48 1286.37 Q1963.19 1290.2 1963.19 1295.3 Q1963.19 1300.33 1964.48 1304.2 Q1965.77 1308.06 1967.52 1310.08 Q1969.31 1312.07 1971.59 1313.3 Q1973.91 1314.53 1975.52 1314.88 Q1977.16 1315.21 1978.59 1315.21 Q1983.74 1315.21 1987.7 1311.55 Q1991.65 1307.89 1992.03 1301.71 Q1992.09 1301.42 1992.09 1301.3 Q1992.09 1301.15 1992.15 1301.01 Q1992.21 1300.86 1992.35 1300.8 Q1992.5 1300.74 1992.73 1300.74 Q1993.52 1300.74 1993.52 1301.77 Q1993.52 1307.48 1989.13 1312.28 Q1984.77 1317.05 1977.86 1317.05 Q1969.34 1317.05 1963.16 1310.73 Q1957.01 1304.4 1957.01 1295.24 Z" fill="#000000" fill-rule="evenodd" fill-opacity="1" /><path clip-path="url(#clip130)" d="M2004.67 1315.73 L2004.67 1313.89 L2006.11 1313.89 Q2009.36 1313.89 2010.09 1313.36 Q2010.85 1312.81 2010.85 1311.05 L2010.85 1279.63 Q2010.85 1277.91 2010.09 1277.38 Q2009.33 1276.82 2006.11 1276.82 L2004.67 1276.82 L2004.67 1274.95 L2038.43 1274.95 L2040.1 1288.45 L2038.61 1288.45 Q2038.2 1285.02 2037.64 1283.06 Q2037.12 1281.07 2035.8 1279.55 Q2034.51 1278.02 2032.37 1277.44 Q2030.26 1276.82 2026.84 1276.82 L2019.11 1276.82 Q2017.06 1276.82 2016.62 1277.26 Q2016.18 1277.67 2016.18 1279.22 L2016.18 1293.6 L2021.57 1293.6 Q2025.7 1293.6 2026.87 1292.16 Q2028.04 1290.73 2028.04 1286.6 L2029.56 1286.6 L2029.56 1302.47 L2028.04 1302.47 Q2028.04 1298.4 2026.87 1296.94 Q2025.7 1295.47 2021.57 1295.47 L2016.18 1295.47 L2016.18 1311.49 Q2016.18 1313.04 2016.62 1313.48 Q2017.09 1313.89 2019.11 1313.89 L2027.1 1313.89 Q2029.68 1313.89 2031.55 1313.57 Q2033.46 1313.22 2034.77 1312.4 Q2036.09 1311.55 2036.97 1310.58 Q2037.88 1309.61 2038.49 1307.89 Q2039.14 1306.13 2039.49 1304.52 Q2039.87 1302.91 2040.28 1300.27 L2041.77 1300.27 L2039.25 1315.73 L2004.67 1315.73 Z" fill="#000000" fill-rule="evenodd" fill-opacity="1" /><path clip-path="url(#clip130)" d="M2045.89 1314.77 Q2045.04 1313.8 2045.04 1312.54 Q2045.04 1311.28 2045.86 1310.35 Q2046.71 1309.38 2048.23 1309.38 Q2050.02 1309.38 2051.04 1311.11 Q2052.07 1312.81 2052.07 1315.67 Q2052.07 1318.78 2050.81 1321.65 Q2049.55 1324.55 2048.32 1325.92 Q2047.09 1327.3 2046.59 1327.3 Q2046.01 1327.3 2046.01 1326.65 Q2046.01 1326.42 2046.42 1325.98 Q2050.72 1321.35 2050.75 1315.67 Q2050.75 1314.77 2050.63 1314.77 L2050.49 1314.88 Q2049.46 1315.73 2048.23 1315.73 Q2046.74 1315.73 2045.89 1314.77 Z" fill="#000000" fill-rule="evenodd" fill-opacity="1" /><path clip-path="url(#clip130)" d="M2103.64 1281.3 Q2103.64 1282.06 2103.32 1283.53 Q2102.29 1287.66 2098.45 1290.5 Q2097.81 1291.02 2096.67 1291.7 Q2098.05 1292.6 2099.25 1294.27 Q2101.03 1297.02 2101.03 1300.74 Q2101.03 1302.47 2100.56 1304.58 Q2099.25 1309.47 2094.62 1312.98 Q2089.96 1316.41 2084.43 1316.41 Q2081.44 1316.41 2079.39 1314.83 Q2077.37 1313.22 2076.58 1310.52 L2072.51 1326.95 Q2072.43 1327.36 2071.9 1327.36 L2071.61 1327.36 Q2070.99 1327.36 2070.99 1326.65 L2080.24 1289.76 Q2080.86 1287.28 2081.85 1284.93 Q2082.85 1282.59 2084.23 1280.48 Q2085.63 1278.37 2087.24 1276.82 Q2088.85 1275.24 2090.84 1274.33 Q2092.83 1273.4 2094.94 1273.4 Q2099.36 1273.4 2101.88 1276.41 Q2103.64 1278.55 2103.64 1281.3 M2100.27 1280.25 Q2100.27 1278.43 2099.54 1277.17 Q2098.05 1274.77 2094.88 1274.77 Q2092.98 1274.77 2091.16 1275.65 Q2089.38 1276.5 2087.94 1277.96 Q2086.51 1279.43 2085.28 1281.42 Q2084.05 1283.41 2083.14 1285.58 Q2082.26 1287.71 2081.68 1290.06 L2078.08 1304.58 Q2077.73 1306.13 2077.73 1307.51 Q2077.73 1310.79 2079.54 1312.92 Q2081.36 1315.06 2084.49 1315.06 Q2088.65 1315.06 2092.22 1311.96 Q2095.32 1309.18 2096.61 1304.29 Q2097.34 1301.21 2097.34 1299.07 Q2097.34 1296.73 2096.49 1294.92 Q2095.88 1293.45 2094.68 1292.57 Q2092.45 1293.36 2090.2 1293.36 Q2089.12 1293.36 2088.53 1293.34 Q2087.97 1293.31 2087.15 1293.19 Q2086.36 1293.07 2085.98 1292.75 Q2085.63 1292.43 2085.63 1291.93 Q2085.63 1291.64 2085.69 1291.52 Q2085.81 1291.05 2086.19 1290.73 Q2086.57 1290.41 2087.01 1290.26 Q2087.45 1290.09 2088.18 1290 Q2088.94 1289.91 2089.44 1289.91 Q2089.94 1289.88 2090.78 1289.88 Q2092.78 1289.88 2094.8 1290.67 Q2095.56 1290.26 2096.38 1289.53 Q2098.98 1287.1 2099.86 1283.23 Q2100.27 1281.8 2100.27 1280.25 M2092.89 1291.58 Q2091.66 1291.26 2090.73 1291.26 Q2087.3 1291.26 2087.12 1291.81 Q2087.12 1291.87 2087.24 1291.93 Q2087.36 1291.96 2087.62 1291.99 Q2087.91 1291.99 2088.15 1292.02 Q2088.41 1292.05 2088.85 1292.05 Q2089.29 1292.05 2089.53 1292.05 Q2089.79 1292.05 2090.26 1292.05 Q2091.43 1292.05 2092.89 1291.58 Z" fill="#000000" fill-rule="evenodd" fill-opacity="1" /><path clip-path="url(#clip130)" d="M2121.24 1306.63 Q2121.3 1305.9 2122.44 1305.9 L2159.18 1305.9 Q2160.91 1305.9 2160.94 1306.57 Q2160.94 1307.3 2159.3 1307.27 L2122.85 1307.27 Q2121.24 1307.3 2121.24 1306.63 M2121.24 1294.92 Q2121.24 1294.18 2122.5 1294.21 L2159.13 1294.21 Q2160.91 1294.21 2160.94 1294.92 Q2160.94 1295.59 2159.42 1295.59 L2122.44 1295.59 Q2121.24 1295.59 2121.24 1294.92 Z" fill="#000000" fill-rule="evenodd" fill-opacity="1" /><path clip-path="url(#clip130)" d="M2184.07 1306.69 Q2184.07 1299.98 2192.71 1295.65 Q2188.99 1293.13 2188.32 1292.4 Q2185.68 1289.47 2185.68 1285.81 Q2185.68 1281.62 2188.85 1278.73 Q2192.04 1275.8 2196.55 1275.8 Q2200.85 1275.8 2204.1 1278.29 Q2207.35 1280.78 2207.35 1284.73 Q2207.35 1290.29 2200.09 1294.04 Q2204.89 1297.02 2206.03 1298.28 Q2208.96 1301.53 2208.96 1305.66 Q2208.96 1310.46 2205.27 1313.77 Q2201.58 1317.05 2196.49 1317.05 Q2191.51 1317.05 2187.79 1314.15 Q2184.07 1311.25 2184.07 1306.69 M2187.06 1306.69 Q2187.06 1310.4 2189.84 1312.89 Q2192.65 1315.38 2196.55 1315.38 Q2200.32 1315.38 2203.13 1313.22 Q2205.97 1311.05 2205.97 1307.83 Q2205.97 1306.57 2205.54 1305.49 Q2205.13 1304.4 2204.28 1303.55 Q2203.46 1302.68 2202.93 1302.29 Q2202.43 1301.88 2201.47 1301.21 L2194.09 1296.56 Q2187.06 1300.45 2187.06 1306.69 M2188.32 1283.47 Q2188.32 1286.34 2191.34 1288.33 L2198.77 1293.13 Q2204.72 1289.65 2204.72 1284.73 Q2204.72 1281.54 2202.29 1279.43 Q2199.86 1277.29 2196.49 1277.29 Q2193.18 1277.29 2190.75 1279.05 Q2188.32 1280.78 2188.32 1283.47 Z" fill="#000000" fill-rule="evenodd" fill-opacity="1" /><polyline clip-path="url(#clip130)" style="stroke:#e26f46; stroke-linecap:round; stroke-linejoin:round; stroke-width:5; stroke-opacity:1; fill:none" points="
  1794.4,1365.32 1933.78,1365.32 
  "/>
<circle clip-path="url(#clip130)" cx="1864.09" cy="1365.32" r="15.487" fill="#e26f46" fill-rule="evenodd" fill-opacity="1" stroke="#000000" stroke-opacity="1" stroke-width="5.12"/>
<path clip-path="url(#clip130)" d="M1963.16 1375.5 Q1957.01 1369.14 1957.01 1360.04 Q1957.01 1350.9 1963.22 1344.58 Q1969.43 1338.26 1977.86 1338.26 Q1979.97 1338.26 1981.75 1338.75 Q1983.57 1339.22 1985 1340.19 Q1986.44 1341.13 1987.17 1341.77 Q1987.93 1342.38 1988.96 1343.41 L1991.97 1338.99 Q1992.44 1338.26 1992.91 1338.26 Q1993.41 1338.26 1993.49 1338.55 Q1993.58 1338.81 1993.58 1339.69 L1993.58 1353.92 Q1993.58 1354.89 1993.47 1355.12 Q1993.35 1355.35 1992.62 1355.35 Q1992.03 1355.35 1991.91 1355.18 Q1991.8 1355 1991.65 1354.33 Q1990.74 1347.86 1987.11 1343.99 Q1983.51 1340.13 1978.59 1340.13 Q1977.16 1340.13 1975.55 1340.45 Q1973.97 1340.77 1971.62 1342 Q1969.31 1343.23 1967.52 1345.25 Q1965.77 1347.24 1964.48 1351.11 Q1963.19 1354.94 1963.19 1360.04 Q1963.19 1365.07 1964.48 1368.94 Q1965.77 1372.8 1967.55 1374.82 Q1969.37 1376.82 1971.71 1378.07 Q1974.08 1379.33 1975.75 1379.68 Q1977.45 1380.01 1978.94 1380.01 Q1979.97 1380.01 1981.17 1379.8 Q1982.37 1379.57 1984.15 1378.92 Q1985.97 1378.25 1987.11 1376.67 Q1988.25 1375.09 1988.25 1372.75 L1988.25 1368.91 Q1988.25 1367.12 1987.38 1366.57 Q1986.5 1366.01 1982.66 1366.01 L1980.76 1366.01 L1980.76 1364.17 Q1982.93 1364.34 1990.39 1364.34 Q1991.06 1364.34 1997.71 1364.17 L1997.71 1366.01 Q1994.84 1366.01 1994.2 1366.45 Q1993.58 1366.86 1993.58 1368.65 L1993.58 1379.1 Q1993.58 1380.47 1993.06 1380.47 Q1992.59 1380.47 1991.18 1379.13 Q1989.81 1377.78 1989.19 1376.76 Q1987.76 1379.27 1984.62 1380.56 Q1981.52 1381.85 1977.98 1381.85 Q1969.34 1381.85 1963.16 1375.5 Z" fill="#000000" fill-rule="evenodd" fill-opacity="1" /><path clip-path="url(#clip130)" d="M2003.08 1360.04 Q2003.08 1350.99 2009.26 1344.64 Q2015.43 1338.26 2023.92 1338.26 Q2026.56 1338.26 2028.9 1339.22 Q2031.24 1340.19 2032.33 1341.04 Q2033.41 1341.86 2034.96 1343.41 L2037.98 1338.99 Q2038.45 1338.26 2038.91 1338.26 Q2039.41 1338.26 2039.5 1338.55 Q2039.59 1338.81 2039.59 1339.69 L2039.59 1353.92 Q2039.59 1354.89 2039.47 1355.12 Q2039.35 1355.35 2038.62 1355.35 Q2038.04 1355.35 2037.89 1355.18 Q2037.77 1355 2037.66 1354.33 Q2036.75 1347.86 2033.15 1343.99 Q2029.57 1340.13 2024.6 1340.13 Q2023.16 1340.13 2021.55 1340.45 Q2019.97 1340.77 2017.66 1342 Q2015.37 1343.23 2013.59 1345.28 Q2011.83 1347.3 2010.54 1351.17 Q2009.26 1355 2009.26 1360.1 Q2009.26 1365.13 2010.54 1369 Q2011.83 1372.86 2013.59 1374.88 Q2015.37 1376.87 2017.66 1378.1 Q2019.97 1379.33 2021.58 1379.68 Q2023.22 1380.01 2024.66 1380.01 Q2029.81 1380.01 2033.76 1376.35 Q2037.71 1372.69 2038.09 1366.51 Q2038.15 1366.22 2038.15 1366.1 Q2038.15 1365.95 2038.21 1365.81 Q2038.27 1365.66 2038.42 1365.6 Q2038.56 1365.54 2038.8 1365.54 Q2039.59 1365.54 2039.59 1366.57 Q2039.59 1372.28 2035.2 1377.08 Q2030.83 1381.85 2023.92 1381.85 Q2015.4 1381.85 2009.23 1375.53 Q2003.08 1369.2 2003.08 1360.04 Z" fill="#000000" fill-rule="evenodd" fill-opacity="1" /><path clip-path="url(#clip130)" d="M2050.74 1380.53 L2050.74 1378.69 L2052.17 1378.69 Q2055.42 1378.69 2056.16 1378.16 Q2056.92 1377.61 2056.92 1375.85 L2056.92 1344.43 Q2056.92 1342.71 2056.16 1342.18 Q2055.39 1341.62 2052.17 1341.62 L2050.74 1341.62 L2050.74 1339.75 L2084.5 1339.75 L2086.17 1353.25 L2084.67 1353.25 Q2084.26 1349.82 2083.71 1347.86 Q2083.18 1345.87 2081.86 1344.35 Q2080.57 1342.82 2078.44 1342.24 Q2076.33 1341.62 2072.9 1341.62 L2065.17 1341.62 Q2063.12 1341.62 2062.68 1342.06 Q2062.25 1342.47 2062.25 1344.02 L2062.25 1358.4 L2067.63 1358.4 Q2071.76 1358.4 2072.93 1356.96 Q2074.1 1355.53 2074.1 1351.4 L2075.63 1351.4 L2075.63 1367.27 L2074.1 1367.27 Q2074.1 1363.2 2072.93 1361.74 Q2071.76 1360.27 2067.63 1360.27 L2062.25 1360.27 L2062.25 1376.29 Q2062.25 1377.84 2062.68 1378.28 Q2063.15 1378.69 2065.17 1378.69 L2073.17 1378.69 Q2075.74 1378.69 2077.62 1378.37 Q2079.52 1378.02 2080.84 1377.2 Q2082.15 1376.35 2083.03 1375.38 Q2083.94 1374.41 2084.56 1372.69 Q2085.2 1370.93 2085.55 1369.32 Q2085.93 1367.71 2086.34 1365.07 L2087.83 1365.07 L2085.32 1380.53 L2050.74 1380.53 Z" fill="#000000" fill-rule="evenodd" fill-opacity="1" /><path clip-path="url(#clip130)" d="M2091.95 1379.57 Q2091.11 1378.6 2091.11 1377.34 Q2091.11 1376.08 2091.93 1375.15 Q2092.77 1374.18 2094.3 1374.18 Q2096.08 1374.18 2097.11 1375.91 Q2098.13 1377.61 2098.13 1380.47 Q2098.13 1383.58 2096.87 1386.45 Q2095.61 1389.35 2094.39 1390.72 Q2093.16 1392.1 2092.66 1392.1 Q2092.07 1392.1 2092.07 1391.45 Q2092.07 1391.22 2092.48 1390.78 Q2096.79 1386.15 2096.82 1380.47 Q2096.82 1379.57 2096.7 1379.57 L2096.55 1379.68 Q2095.53 1380.53 2094.3 1380.53 Q2092.8 1380.53 2091.95 1379.57 Z" fill="#000000" fill-rule="evenodd" fill-opacity="1" /><path clip-path="url(#clip130)" d="M2149.7 1346.1 Q2149.7 1346.86 2149.38 1348.33 Q2148.35 1352.46 2144.52 1355.3 Q2143.87 1355.82 2142.73 1356.5 Q2144.11 1357.4 2145.31 1359.07 Q2147.1 1361.82 2147.1 1365.54 Q2147.1 1367.27 2146.63 1369.38 Q2145.31 1374.27 2140.68 1377.78 Q2136.03 1381.21 2130.49 1381.21 Q2127.51 1381.21 2125.46 1379.63 Q2123.44 1378.02 2122.65 1375.32 L2118.58 1391.75 Q2118.49 1392.16 2117.96 1392.16 L2117.67 1392.16 Q2117.06 1392.16 2117.06 1391.45 L2126.31 1354.56 Q2126.92 1352.08 2127.92 1349.73 Q2128.91 1347.39 2130.29 1345.28 Q2131.7 1343.17 2133.31 1341.62 Q2134.92 1340.04 2136.91 1339.13 Q2138.9 1338.2 2141.01 1338.2 Q2145.43 1338.2 2147.94 1341.21 Q2149.7 1343.35 2149.7 1346.1 M2146.33 1345.05 Q2146.33 1343.23 2145.6 1341.97 Q2144.11 1339.57 2140.95 1339.57 Q2139.04 1339.57 2137.23 1340.45 Q2135.44 1341.3 2134.01 1342.76 Q2132.57 1344.23 2131.34 1346.22 Q2130.11 1348.21 2129.21 1350.38 Q2128.33 1352.51 2127.74 1354.86 L2124.14 1369.38 Q2123.79 1370.93 2123.79 1372.31 Q2123.79 1375.59 2125.61 1377.72 Q2127.42 1379.86 2130.55 1379.86 Q2134.71 1379.86 2138.28 1376.76 Q2141.39 1373.98 2142.67 1369.09 Q2143.41 1366.01 2143.41 1363.87 Q2143.41 1361.53 2142.56 1359.72 Q2141.94 1358.25 2140.74 1357.37 Q2138.52 1358.16 2136.26 1358.16 Q2135.18 1358.16 2134.59 1358.14 Q2134.04 1358.11 2133.22 1357.99 Q2132.43 1357.87 2132.05 1357.55 Q2131.7 1357.23 2131.7 1356.73 Q2131.7 1356.44 2131.75 1356.32 Q2131.87 1355.85 2132.25 1355.53 Q2132.63 1355.21 2133.07 1355.06 Q2133.51 1354.89 2134.24 1354.8 Q2135 1354.71 2135.5 1354.71 Q2136 1354.68 2136.85 1354.68 Q2138.84 1354.68 2140.86 1355.47 Q2141.62 1355.06 2142.44 1354.33 Q2145.05 1351.9 2145.92 1348.03 Q2146.33 1346.6 2146.33 1345.05 M2138.96 1356.38 Q2137.73 1356.06 2136.79 1356.06 Q2133.36 1356.06 2133.19 1356.61 Q2133.19 1356.67 2133.31 1356.73 Q2133.42 1356.76 2133.69 1356.79 Q2133.98 1356.79 2134.21 1356.82 Q2134.48 1356.85 2134.92 1356.85 Q2135.35 1356.85 2135.59 1356.85 Q2135.85 1356.85 2136.32 1356.85 Q2137.49 1356.85 2138.96 1356.38 Z" fill="#000000" fill-rule="evenodd" fill-opacity="1" /><path clip-path="url(#clip130)" d="M2167.3 1371.43 Q2167.36 1370.7 2168.5 1370.7 L2205.25 1370.7 Q2206.98 1370.7 2207.01 1371.37 Q2207.01 1372.1 2205.37 1372.07 L2168.91 1372.07 Q2167.3 1372.1 2167.3 1371.43 M2167.3 1359.72 Q2167.3 1358.98 2168.56 1359.01 L2205.19 1359.01 Q2206.98 1359.01 2207.01 1359.72 Q2207.01 1360.39 2205.48 1360.39 L2168.5 1360.39 Q2167.3 1360.39 2167.3 1359.72 Z" fill="#000000" fill-rule="evenodd" fill-opacity="1" /><path clip-path="url(#clip130)" d="M2230.14 1371.49 Q2230.14 1364.78 2238.78 1360.45 Q2235.06 1357.93 2234.38 1357.2 Q2231.75 1354.27 2231.75 1350.61 Q2231.75 1346.42 2234.91 1343.53 Q2238.1 1340.6 2242.61 1340.6 Q2246.91 1340.6 2250.16 1343.09 Q2253.41 1345.58 2253.41 1349.53 Q2253.41 1355.09 2246.15 1358.84 Q2250.96 1361.82 2252.1 1363.08 Q2255.02 1366.33 2255.02 1370.46 Q2255.02 1375.26 2251.34 1378.57 Q2247.65 1381.85 2242.55 1381.85 Q2237.58 1381.85 2233.86 1378.95 Q2230.14 1376.05 2230.14 1371.49 M2233.12 1371.49 Q2233.12 1375.2 2235.91 1377.69 Q2238.72 1380.18 2242.61 1380.18 Q2246.39 1380.18 2249.2 1378.02 Q2252.04 1375.85 2252.04 1372.63 Q2252.04 1371.37 2251.6 1370.29 Q2251.19 1369.2 2250.34 1368.35 Q2249.52 1367.48 2248.99 1367.09 Q2248.5 1366.68 2247.53 1366.01 L2240.15 1361.36 Q2233.12 1365.25 2233.12 1371.49 M2234.38 1348.27 Q2234.38 1351.14 2237.4 1353.13 L2244.84 1357.93 Q2250.78 1354.45 2250.78 1349.53 Q2250.78 1346.34 2248.35 1344.23 Q2245.92 1342.09 2242.55 1342.09 Q2239.24 1342.09 2236.81 1343.85 Q2234.38 1345.58 2234.38 1348.27 Z" fill="#000000" fill-rule="evenodd" fill-opacity="1" /></svg>
