<?xml version="1.0" encoding="utf-8"?>
<svg xmlns="http://www.w3.org/2000/svg" xmlns:xlink="http://www.w3.org/1999/xlink" width="600" height="400" viewBox="0 0 2400 1600">
<defs>
  <clipPath id="clip700">
    <rect x="0" y="0" width="2400" height="1600"/>
  </clipPath>
</defs>
<path clip-path="url(#clip700)" d="
M0 1600 L2400 1600 L2400 0 L0 0  Z
  " fill="#ffffff" fill-rule="evenodd" fill-opacity="1"/>
<defs>
  <clipPath id="clip701">
    <rect x="480" y="0" width="1681" height="1600"/>
  </clipPath>
</defs>
<defs>
  <clipPath id="clip702">
    <rect x="262" y="47" width="2092" height="1364"/>
  </clipPath>
</defs>
<path clip-path="url(#clip700)" d="
M262.009 1410.22 L2352.76 1410.22 L2352.76 47.2441 L262.009 47.2441  Z
  " fill="#ffffff" fill-rule="evenodd" fill-opacity="1"/>
<polyline clip-path="url(#clip700)" style="stroke:#000000; stroke-linecap:butt; stroke-linejoin:round; stroke-width:4; stroke-opacity:1; fill:none" points="
  262.009,1410.22 2352.76,1410.22 
  "/>
<polyline clip-path="url(#clip700)" style="stroke:#000000; stroke-linecap:butt; stroke-linejoin:round; stroke-width:4; stroke-opacity:1; fill:none" points="
  262.009,47.2441 2352.76,47.2441 
  "/>
<polyline clip-path="url(#clip700)" style="stroke:#000000; stroke-linecap:butt; stroke-linejoin:round; stroke-width:4; stroke-opacity:1; fill:none" points="
  622.764,1410.22 622.764,1391.32 
  "/>
<polyline clip-path="url(#clip700)" style="stroke:#000000; stroke-linecap:butt; stroke-linejoin:round; stroke-width:4; stroke-opacity:1; fill:none" points="
  1040.47,1410.22 1040.47,1391.32 
  "/>
<polyline clip-path="url(#clip700)" style="stroke:#000000; stroke-linecap:butt; stroke-linejoin:round; stroke-width:4; stroke-opacity:1; fill:none" points="
  1458.17,1410.22 1458.17,1391.32 
  "/>
<polyline clip-path="url(#clip700)" style="stroke:#000000; stroke-linecap:butt; stroke-linejoin:round; stroke-width:4; stroke-opacity:1; fill:none" points="
  1875.88,1410.22 1875.88,1391.32 
  "/>
<polyline clip-path="url(#clip700)" style="stroke:#000000; stroke-linecap:butt; stroke-linejoin:round; stroke-width:4; stroke-opacity:1; fill:none" points="
  2293.58,1410.22 2293.58,1391.32 
  "/>
<polyline clip-path="url(#clip700)" style="stroke:#000000; stroke-linecap:butt; stroke-linejoin:round; stroke-width:4; stroke-opacity:1; fill:none" points="
  344.294,1410.22 344.294,1400.77 
  "/>
<polyline clip-path="url(#clip700)" style="stroke:#000000; stroke-linecap:butt; stroke-linejoin:round; stroke-width:4; stroke-opacity:1; fill:none" points="
  483.529,1410.22 483.529,1400.77 
  "/>
<polyline clip-path="url(#clip700)" style="stroke:#000000; stroke-linecap:butt; stroke-linejoin:round; stroke-width:4; stroke-opacity:1; fill:none" points="
  761.999,1410.22 761.999,1400.77 
  "/>
<polyline clip-path="url(#clip700)" style="stroke:#000000; stroke-linecap:butt; stroke-linejoin:round; stroke-width:4; stroke-opacity:1; fill:none" points="
  901.234,1410.22 901.234,1400.77 
  "/>
<polyline clip-path="url(#clip700)" style="stroke:#000000; stroke-linecap:butt; stroke-linejoin:round; stroke-width:4; stroke-opacity:1; fill:none" points="
  1179.7,1410.22 1179.7,1400.77 
  "/>
<polyline clip-path="url(#clip700)" style="stroke:#000000; stroke-linecap:butt; stroke-linejoin:round; stroke-width:4; stroke-opacity:1; fill:none" points="
  1318.94,1410.22 1318.94,1400.77 
  "/>
<polyline clip-path="url(#clip700)" style="stroke:#000000; stroke-linecap:butt; stroke-linejoin:round; stroke-width:4; stroke-opacity:1; fill:none" points="
  1597.41,1410.22 1597.41,1400.77 
  "/>
<polyline clip-path="url(#clip700)" style="stroke:#000000; stroke-linecap:butt; stroke-linejoin:round; stroke-width:4; stroke-opacity:1; fill:none" points="
  1736.64,1410.22 1736.64,1400.77 
  "/>
<polyline clip-path="url(#clip700)" style="stroke:#000000; stroke-linecap:butt; stroke-linejoin:round; stroke-width:4; stroke-opacity:1; fill:none" points="
  2015.11,1410.22 2015.11,1400.77 
  "/>
<polyline clip-path="url(#clip700)" style="stroke:#000000; stroke-linecap:butt; stroke-linejoin:round; stroke-width:4; stroke-opacity:1; fill:none" points="
  2154.35,1410.22 2154.35,1400.77 
  "/>
<path clip-path="url(#clip700)" d="M585.199 1463.19 Q585.199 1453.9 587.546 1448.84 Q590.819 1441.3 598.539 1441.3 Q600.176 1441.3 601.874 1441.76 Q603.603 1442.2 605.765 1443.89 Q607.957 1445.59 609.285 1448.37 Q611.817 1453.74 611.817 1463.19 Q611.817 1472.43 609.47 1477.46 Q606.043 1484.81 598.477 1484.81 Q595.637 1484.81 592.734 1483.36 Q589.862 1481.91 588.04 1478.42 Q585.199 1473.2 585.199 1463.19 M590.449 1462.42 Q590.449 1471.96 591.128 1475.76 Q591.9 1479.87 594 1481.66 Q596.131 1483.42 598.477 1483.42 Q601.01 1483.42 603.109 1481.54 Q605.24 1479.62 605.888 1475.51 Q606.599 1471.47 606.568 1462.42 Q606.568 1453.62 605.95 1450.1 Q605.116 1445.99 602.893 1444.36 Q600.701 1442.69 598.477 1442.69 Q597.644 1442.69 596.748 1442.94 Q595.884 1443.18 594.618 1443.89 Q593.352 1444.6 592.363 1446.36 Q591.406 1448.12 590.943 1450.78 Q590.449 1454.21 590.449 1462.42 Z" fill="#000000" fill-rule="evenodd" fill-opacity="1" /><path clip-path="url(#clip700)" d="M620.68 1482.4 Q619.722 1481.38 619.722 1480.05 Q619.722 1478.73 620.68 1477.77 Q621.637 1476.78 623.088 1476.78 Q624.478 1476.78 625.404 1477.71 Q626.361 1478.6 626.361 1480.08 Q626.361 1481.54 625.342 1482.49 Q624.354 1483.42 623.088 1483.42 Q621.637 1483.42 620.68 1482.4 Z" fill="#000000" fill-rule="evenodd" fill-opacity="1" /><path clip-path="url(#clip700)" d="M635.069 1483.42 Q635.069 1482.28 635.162 1481.94 Q635.285 1481.6 635.78 1481.07 L647.915 1467.55 Q654.554 1460.08 654.554 1453.56 Q654.554 1449.33 652.331 1446.3 Q650.138 1443.28 646.093 1443.28 Q643.314 1443.28 640.967 1444.98 Q638.62 1446.67 637.54 1449.7 Q637.725 1449.64 638.373 1449.64 Q639.948 1449.64 640.813 1450.63 Q641.708 1451.61 641.708 1452.94 Q641.708 1454.64 640.597 1455.47 Q639.516 1456.28 638.435 1456.28 Q638.003 1456.28 637.416 1456.18 Q636.86 1456.09 635.965 1455.23 Q635.069 1454.33 635.069 1452.76 Q635.069 1448.34 638.404 1444.82 Q641.77 1441.3 646.896 1441.3 Q652.701 1441.3 656.499 1444.76 Q660.329 1448.19 660.329 1453.56 Q660.329 1455.44 659.742 1457.17 Q659.186 1458.87 658.414 1460.2 Q657.673 1461.53 655.635 1463.66 Q653.597 1465.79 651.96 1467.3 Q650.324 1468.81 646.649 1472.03 L639.948 1478.54 L651.343 1478.54 Q656.901 1478.54 657.333 1478.05 Q657.951 1477.15 658.723 1472.43 L660.329 1472.43 L658.538 1483.42 L635.069 1483.42 Z" fill="#000000" fill-rule="evenodd" fill-opacity="1" /><path clip-path="url(#clip700)" d="M1002.21 1463.19 Q1002.21 1453.9 1004.56 1448.84 Q1007.83 1441.3 1015.55 1441.3 Q1017.19 1441.3 1018.88 1441.76 Q1020.61 1442.2 1022.78 1443.89 Q1024.97 1445.59 1026.3 1448.37 Q1028.83 1453.74 1028.83 1463.19 Q1028.83 1472.43 1026.48 1477.46 Q1023.05 1484.81 1015.49 1484.81 Q1012.65 1484.81 1009.74 1483.36 Q1006.87 1481.91 1005.05 1478.42 Q1002.21 1473.2 1002.21 1463.19 M1007.46 1462.42 Q1007.46 1471.96 1008.14 1475.76 Q1008.91 1479.87 1011.01 1481.66 Q1013.14 1483.42 1015.49 1483.42 Q1018.02 1483.42 1020.12 1481.54 Q1022.25 1479.62 1022.9 1475.51 Q1023.61 1471.47 1023.58 1462.42 Q1023.58 1453.62 1022.96 1450.1 Q1022.13 1445.99 1019.9 1444.36 Q1017.71 1442.69 1015.49 1442.69 Q1014.65 1442.69 1013.76 1442.94 Q1012.89 1443.18 1011.63 1443.89 Q1010.36 1444.6 1009.37 1446.36 Q1008.42 1448.12 1007.95 1450.78 Q1007.46 1454.21 1007.46 1462.42 Z" fill="#000000" fill-rule="evenodd" fill-opacity="1" /><path clip-path="url(#clip700)" d="M1037.69 1482.4 Q1036.73 1481.38 1036.73 1480.05 Q1036.73 1478.73 1037.69 1477.77 Q1038.65 1476.78 1040.1 1476.78 Q1041.49 1476.78 1042.41 1477.71 Q1043.37 1478.6 1043.37 1480.08 Q1043.37 1481.54 1042.35 1482.49 Q1041.36 1483.42 1040.1 1483.42 Q1038.65 1483.42 1037.69 1482.4 Z" fill="#000000" fill-rule="evenodd" fill-opacity="1" /><path clip-path="url(#clip700)" d="M1050.69 1472.98 L1050.69 1471.04 L1070.11 1441.36 Q1070.61 1440.59 1071.38 1440.62 Q1072.09 1440.62 1072.24 1440.9 Q1072.4 1441.18 1072.4 1442.26 L1072.4 1471.04 L1078.73 1471.04 L1078.73 1472.98 L1072.4 1472.98 L1072.4 1478.48 Q1072.4 1480.3 1073.14 1480.89 Q1073.91 1481.47 1077.18 1481.47 L1078.51 1481.47 L1078.51 1483.42 Q1075.92 1483.23 1069.93 1483.23 Q1063.97 1483.23 1061.37 1483.42 L1061.37 1481.47 L1062.7 1481.47 Q1065.98 1481.47 1066.75 1480.92 Q1067.52 1480.33 1067.52 1478.48 L1067.52 1472.98 L1050.69 1472.98 M1052.48 1471.04 L1067.89 1471.04 L1067.89 1447.45 L1052.48 1471.04 Z" fill="#000000" fill-rule="evenodd" fill-opacity="1" /><path clip-path="url(#clip700)" d="M1420.36 1463.19 Q1420.36 1453.9 1422.71 1448.84 Q1425.98 1441.3 1433.7 1441.3 Q1435.34 1441.3 1437.04 1441.76 Q1438.77 1442.2 1440.93 1443.89 Q1443.12 1445.59 1444.45 1448.37 Q1446.98 1453.74 1446.98 1463.19 Q1446.98 1472.43 1444.63 1477.46 Q1441.21 1484.81 1433.64 1484.81 Q1430.8 1484.81 1427.9 1483.36 Q1425.03 1481.91 1423.2 1478.42 Q1420.36 1473.2 1420.36 1463.19 M1425.61 1462.42 Q1425.61 1471.96 1426.29 1475.76 Q1427.06 1479.87 1429.16 1481.66 Q1431.29 1483.42 1433.64 1483.42 Q1436.17 1483.42 1438.27 1481.54 Q1440.4 1479.62 1441.05 1475.51 Q1441.76 1471.47 1441.73 1462.42 Q1441.73 1453.62 1441.11 1450.1 Q1440.28 1445.99 1438.06 1444.36 Q1435.86 1442.69 1433.64 1442.69 Q1432.81 1442.69 1431.91 1442.94 Q1431.05 1443.18 1429.78 1443.89 Q1428.51 1444.6 1427.53 1446.36 Q1426.57 1448.12 1426.11 1450.78 Q1425.61 1454.21 1425.61 1462.42 Z" fill="#000000" fill-rule="evenodd" fill-opacity="1" /><path clip-path="url(#clip700)" d="M1455.84 1482.4 Q1454.89 1481.38 1454.89 1480.05 Q1454.89 1478.73 1455.84 1477.77 Q1456.8 1476.78 1458.25 1476.78 Q1459.64 1476.78 1460.57 1477.71 Q1461.52 1478.6 1461.52 1480.08 Q1461.52 1481.54 1460.51 1482.49 Q1459.52 1483.42 1458.25 1483.42 Q1456.8 1483.42 1455.84 1482.4 Z" fill="#000000" fill-rule="evenodd" fill-opacity="1" /><path clip-path="url(#clip700)" d="M1469.74 1463.44 Q1469.74 1453.5 1474.8 1447.41 Q1479.87 1441.3 1486.38 1441.3 Q1490.18 1441.3 1492.28 1443.25 Q1494.41 1445.16 1494.41 1448.12 Q1494.41 1449.76 1493.45 1450.47 Q1492.5 1451.18 1491.51 1451.18 Q1490.37 1451.18 1489.47 1450.41 Q1488.57 1449.64 1488.57 1448.25 Q1488.57 1445.41 1492.06 1445.41 Q1490.43 1442.88 1486.51 1442.88 Q1485.3 1442.88 1484.07 1443.25 Q1482.83 1443.59 1481.23 1444.76 Q1479.62 1445.93 1478.38 1447.79 Q1477.15 1449.64 1476.28 1453.13 Q1475.42 1456.62 1475.42 1461.16 L1475.42 1462.67 Q1478.01 1456.4 1483.32 1456.43 Q1488.64 1456.43 1492.31 1460.48 Q1495.99 1464.52 1495.99 1470.51 Q1495.99 1476.66 1492.16 1480.73 Q1488.33 1484.81 1482.95 1484.81 Q1480.55 1484.81 1478.35 1483.79 Q1476.19 1482.8 1474.15 1480.52 Q1472.15 1478.23 1470.94 1473.85 Q1469.74 1469.46 1469.74 1463.44 M1475.54 1469.12 Q1475.54 1475.33 1476.69 1478.29 Q1476.87 1478.79 1477.27 1479.47 Q1477.7 1480.15 1478.42 1481.04 Q1479.16 1481.91 1480.36 1482.49 Q1481.56 1483.05 1482.95 1483.05 Q1487.18 1483.05 1489.22 1478.94 Q1490.3 1476.66 1490.3 1470.45 Q1490.3 1464.12 1489.16 1461.8 Q1487.22 1457.88 1483.26 1457.88 Q1480.61 1457.88 1478.75 1459.7 Q1476.93 1461.53 1476.22 1463.97 Q1475.54 1466.41 1475.54 1469.12 Z" fill="#000000" fill-rule="evenodd" fill-opacity="1" /><path clip-path="url(#clip700)" d="M1838.07 1463.19 Q1838.07 1453.9 1840.41 1448.84 Q1843.69 1441.3 1851.41 1441.3 Q1853.04 1441.3 1854.74 1441.76 Q1856.47 1442.2 1858.63 1443.89 Q1860.83 1445.59 1862.15 1448.37 Q1864.69 1453.74 1864.69 1463.19 Q1864.69 1472.43 1862.34 1477.46 Q1858.91 1484.81 1851.35 1484.81 Q1848.5 1484.81 1845.6 1483.36 Q1842.73 1481.91 1840.91 1478.42 Q1838.07 1473.2 1838.07 1463.19 M1843.32 1462.42 Q1843.32 1471.96 1844 1475.76 Q1844.77 1479.87 1846.87 1481.66 Q1849 1483.42 1851.35 1483.42 Q1853.88 1483.42 1855.98 1481.54 Q1858.11 1479.62 1858.76 1475.51 Q1859.47 1471.47 1859.44 1462.42 Q1859.44 1453.62 1858.82 1450.1 Q1857.98 1445.99 1855.76 1444.36 Q1853.57 1442.69 1851.35 1442.69 Q1850.51 1442.69 1849.62 1442.94 Q1848.75 1443.18 1847.49 1443.89 Q1846.22 1444.6 1845.23 1446.36 Q1844.27 1448.12 1843.81 1450.78 Q1843.32 1454.21 1843.32 1462.42 Z" fill="#000000" fill-rule="evenodd" fill-opacity="1" /><path clip-path="url(#clip700)" d="M1873.55 1482.4 Q1872.59 1481.38 1872.59 1480.05 Q1872.59 1478.73 1873.55 1477.77 Q1874.5 1476.78 1875.96 1476.78 Q1877.35 1476.78 1878.27 1477.71 Q1879.23 1478.6 1879.23 1480.08 Q1879.23 1481.54 1878.21 1482.49 Q1877.22 1483.42 1875.96 1483.42 Q1874.5 1483.42 1873.55 1482.4 Z" fill="#000000" fill-rule="evenodd" fill-opacity="1" /><path clip-path="url(#clip700)" d="M1887.44 1473.88 Q1887.44 1466.81 1896.55 1462.24 Q1892.63 1459.58 1891.92 1458.81 Q1889.14 1455.72 1889.14 1451.86 Q1889.14 1447.45 1892.48 1444.39 Q1895.84 1441.3 1900.6 1441.3 Q1905.14 1441.3 1908.56 1443.93 Q1911.99 1446.55 1911.99 1450.72 Q1911.99 1456.59 1904.33 1460.54 Q1909.4 1463.69 1910.6 1465.02 Q1913.69 1468.44 1913.69 1472.8 Q1913.69 1477.86 1909.8 1481.35 Q1905.91 1484.81 1900.54 1484.81 Q1895.29 1484.81 1891.36 1481.75 Q1887.44 1478.7 1887.44 1473.88 M1890.59 1473.88 Q1890.59 1477.8 1893.53 1480.42 Q1896.49 1483.05 1900.6 1483.05 Q1904.58 1483.05 1907.55 1480.76 Q1910.54 1478.48 1910.54 1475.08 Q1910.54 1473.75 1910.08 1472.61 Q1909.65 1471.47 1908.75 1470.57 Q1907.89 1469.65 1907.33 1469.25 Q1906.8 1468.81 1905.79 1468.1 L1898 1463.19 Q1890.59 1467.3 1890.59 1473.88 M1891.92 1449.39 Q1891.92 1452.42 1895.1 1454.52 L1902.94 1459.58 Q1909.21 1455.91 1909.21 1450.72 Q1909.21 1447.35 1906.65 1445.13 Q1904.09 1442.88 1900.54 1442.88 Q1897.05 1442.88 1894.48 1444.73 Q1891.92 1446.55 1891.92 1449.39 Z" fill="#000000" fill-rule="evenodd" fill-opacity="1" /><path clip-path="url(#clip700)" d="M2257.25 1447.32 L2257.25 1445.35 Q2264.85 1445.35 2268.77 1441.3 Q2269.85 1441.3 2270.04 1441.55 Q2270.22 1441.79 2270.22 1442.94 L2270.22 1478.42 Q2270.22 1480.3 2271.15 1480.89 Q2272.08 1481.47 2276.12 1481.47 L2278.13 1481.47 L2278.13 1483.42 Q2275.91 1483.23 2267.88 1483.23 Q2259.85 1483.23 2257.66 1483.42 L2257.66 1481.47 L2259.66 1481.47 Q2263.65 1481.47 2264.6 1480.92 Q2265.56 1480.33 2265.56 1478.42 L2265.56 1445.65 Q2262.26 1447.32 2257.25 1447.32 Z" fill="#000000" fill-rule="evenodd" fill-opacity="1" /><path clip-path="url(#clip700)" d="M2289.58 1482.4 Q2288.63 1481.38 2288.63 1480.05 Q2288.63 1478.73 2289.58 1477.77 Q2290.54 1476.78 2291.99 1476.78 Q2293.38 1476.78 2294.31 1477.71 Q2295.27 1478.6 2295.27 1480.08 Q2295.27 1481.54 2294.25 1482.49 Q2293.26 1483.42 2291.99 1483.42 Q2290.54 1483.42 2289.58 1482.4 Z" fill="#000000" fill-rule="evenodd" fill-opacity="1" /><path clip-path="url(#clip700)" d="M2303.3 1463.19 Q2303.3 1453.9 2305.64 1448.84 Q2308.92 1441.3 2316.64 1441.3 Q2318.27 1441.3 2319.97 1441.76 Q2321.7 1442.2 2323.86 1443.89 Q2326.05 1445.59 2327.38 1448.37 Q2329.91 1453.74 2329.91 1463.19 Q2329.91 1472.43 2327.57 1477.46 Q2324.14 1484.81 2316.57 1484.81 Q2313.73 1484.81 2310.83 1483.36 Q2307.96 1481.91 2306.14 1478.42 Q2303.3 1473.2 2303.3 1463.19 M2308.54 1462.42 Q2308.54 1471.96 2309.22 1475.76 Q2310 1479.87 2312.1 1481.66 Q2314.23 1483.42 2316.57 1483.42 Q2319.11 1483.42 2321.21 1481.54 Q2323.34 1479.62 2323.98 1475.51 Q2324.69 1471.47 2324.66 1462.42 Q2324.66 1453.62 2324.05 1450.1 Q2323.21 1445.99 2320.99 1444.36 Q2318.8 1442.69 2316.57 1442.69 Q2315.74 1442.69 2314.84 1442.94 Q2313.98 1443.18 2312.71 1443.89 Q2311.45 1444.6 2310.46 1446.36 Q2309.5 1448.12 2309.04 1450.78 Q2308.54 1454.21 2308.54 1462.42 Z" fill="#000000" fill-rule="evenodd" fill-opacity="1" /><path clip-path="url(#clip700)" d="M1138.88 1559.94 L1138.88 1557.73 L1140.6 1557.73 Q1144.5 1557.73 1145.38 1557.1 Q1146.29 1556.43 1146.29 1554.32 L1146.29 1516.62 Q1146.29 1514.55 1145.38 1513.92 Q1144.46 1513.25 1140.6 1513.25 L1138.88 1513.25 L1138.88 1511 L1178.37 1511 L1180.37 1527.2 L1178.58 1527.2 Q1178.09 1523.09 1177.42 1520.77 Q1176.79 1518.42 1175.31 1516.55 Q1173.84 1514.69 1171.34 1513.99 Q1168.88 1513.25 1164.84 1513.25 L1156.2 1513.25 Q1153.74 1513.25 1153.21 1513.78 Q1152.68 1514.27 1152.68 1516.13 L1152.68 1534.33 L1158.87 1534.33 Q1163.75 1534.33 1165.12 1532.58 Q1166.49 1530.82 1166.49 1525.9 L1168.28 1525.9 L1168.28 1544.98 L1166.49 1544.98 Q1166.49 1540.02 1165.12 1538.3 Q1163.75 1536.55 1158.87 1536.55 L1152.68 1536.55 L1152.68 1554.25 Q1152.68 1555.76 1152.93 1556.36 Q1153.18 1556.92 1154.69 1557.34 Q1156.2 1557.73 1159.5 1557.73 L1161.89 1557.73 L1161.89 1559.94 Q1159.29 1559.73 1149.8 1559.73 Q1141.41 1559.73 1138.88 1559.94 Z" fill="#000000" fill-rule="evenodd" fill-opacity="1" /><path clip-path="url(#clip700)" d="M1190.52 1559.94 L1190.52 1557.73 Q1194.35 1557.73 1195.23 1557.27 Q1196.11 1556.78 1196.11 1554.46 L1196.11 1535.1 Q1196.11 1532.43 1195.19 1531.8 Q1194.32 1531.17 1190.8 1531.17 L1190.8 1528.92 L1200.85 1528.15 L1200.85 1554.53 Q1200.85 1556.68 1201.62 1557.2 Q1202.4 1557.73 1205.91 1557.73 L1205.91 1559.94 Q1198.57 1559.73 1198.43 1559.73 Q1197.44 1559.73 1190.52 1559.94 M1193.54 1515.61 Q1193.54 1514.16 1194.63 1513.01 Q1195.76 1511.81 1197.34 1511.81 Q1198.92 1511.81 1200.04 1512.9 Q1201.17 1513.95 1201.17 1515.64 Q1201.17 1517.29 1200.04 1518.38 Q1198.92 1519.44 1197.34 1519.44 Q1195.69 1519.44 1194.6 1518.28 Q1193.54 1517.12 1193.54 1515.61 Z" fill="#000000" fill-rule="evenodd" fill-opacity="1" /><path clip-path="url(#clip700)" d="M1212.27 1559.94 L1212.27 1557.73 Q1216.1 1557.73 1216.98 1557.27 Q1217.85 1556.78 1217.85 1554.46 L1217.85 1517.05 Q1217.85 1514.38 1216.91 1513.71 Q1215.99 1513.04 1212.27 1513.04 L1212.27 1510.79 L1222.6 1510.02 L1222.6 1554.46 Q1222.6 1556.78 1223.51 1557.27 Q1224.42 1557.73 1228.22 1557.73 L1228.22 1559.94 Q1227.34 1559.94 1225.51 1559.87 Q1223.69 1559.8 1222.35 1559.77 Q1221.02 1559.73 1220.24 1559.73 Q1219.4 1559.73 1212.27 1559.94 Z" fill="#000000" fill-rule="evenodd" fill-opacity="1" /><path clip-path="url(#clip700)" d="M1232.86 1559.94 L1232.86 1557.73 Q1236.69 1557.73 1237.57 1557.27 Q1238.45 1556.78 1238.45 1554.46 L1238.45 1517.05 Q1238.45 1514.38 1237.5 1513.71 Q1236.59 1513.04 1232.86 1513.04 L1232.86 1510.79 L1243.19 1510.02 L1243.19 1554.46 Q1243.19 1556.78 1244.1 1557.27 Q1245.02 1557.73 1248.81 1557.73 L1248.81 1559.94 Q1247.93 1559.94 1246.11 1559.87 Q1244.28 1559.8 1242.95 1559.77 Q1241.61 1559.73 1240.84 1559.73 Q1239.99 1559.73 1232.86 1559.94 Z" fill="#000000" fill-rule="evenodd" fill-opacity="1" /><path clip-path="url(#clip700)" d="M1252.02 1559.94 L1252.02 1557.73 Q1255.85 1557.73 1256.72 1557.27 Q1257.6 1556.78 1257.6 1554.46 L1257.6 1535.1 Q1257.6 1532.43 1256.69 1531.8 Q1255.81 1531.17 1252.3 1531.17 L1252.3 1528.92 L1262.35 1528.15 L1262.35 1554.53 Q1262.35 1556.68 1263.12 1557.2 Q1263.89 1557.73 1267.4 1557.73 L1267.4 1559.94 Q1260.06 1559.73 1259.92 1559.73 Q1258.94 1559.73 1252.02 1559.94 M1255.04 1515.61 Q1255.04 1514.16 1256.13 1513.01 Q1257.25 1511.81 1258.83 1511.81 Q1260.41 1511.81 1261.54 1512.9 Q1262.66 1513.95 1262.66 1515.64 Q1262.66 1517.29 1261.54 1518.38 Q1260.41 1519.44 1258.83 1519.44 Q1257.18 1519.44 1256.09 1518.28 Q1255.04 1517.12 1255.04 1515.61 Z" fill="#000000" fill-rule="evenodd" fill-opacity="1" /><path clip-path="url(#clip700)" d="M1272.32 1559.94 L1272.32 1557.73 Q1276.15 1557.73 1277.03 1557.27 Q1277.91 1556.78 1277.91 1554.46 L1277.91 1535.17 Q1277.91 1532.5 1276.96 1531.84 Q1276.05 1531.17 1272.32 1531.17 L1272.32 1528.92 L1282.44 1528.15 L1282.44 1535.7 Q1285.81 1528.15 1293.09 1528.15 Q1298.5 1528.15 1300.64 1530.82 Q1302.22 1532.61 1302.54 1534.61 Q1302.89 1536.62 1302.89 1541.82 L1302.89 1555.55 Q1302.96 1557.06 1304.12 1557.41 Q1305.28 1557.73 1308.51 1557.73 L1308.51 1559.94 Q1301.17 1559.73 1300.43 1559.73 Q1299.87 1559.73 1292.31 1559.94 L1292.31 1557.73 Q1296.14 1557.73 1297.02 1557.27 Q1297.93 1556.78 1297.93 1554.46 L1297.93 1537.7 Q1297.93 1534.05 1296.81 1531.91 Q1295.69 1529.73 1292.59 1529.73 Q1288.87 1529.73 1285.88 1532.86 Q1282.9 1535.98 1282.9 1541.25 L1282.9 1554.46 Q1282.9 1556.78 1283.78 1557.27 Q1284.69 1557.73 1288.48 1557.73 L1288.48 1559.94 Q1281.14 1559.73 1280.44 1559.73 Q1279.88 1559.73 1272.32 1559.94 Z" fill="#000000" fill-rule="evenodd" fill-opacity="1" /><path clip-path="url(#clip700)" d="M1310.99 1565.64 Q1310.99 1563.32 1312.75 1561.31 Q1314.54 1559.31 1317.63 1558.43 Q1314.47 1556.43 1314.47 1552.04 Q1314.47 1548.67 1316.68 1546.07 Q1313.31 1543.26 1313.31 1538.65 Q1313.31 1534.4 1316.68 1531.28 Q1320.05 1528.15 1324.97 1528.15 Q1329.29 1528.15 1332.6 1530.75 Q1336.04 1527.38 1340.22 1527.34 Q1342.08 1527.34 1342.96 1528.5 Q1343.87 1529.66 1343.87 1530.89 Q1343.87 1531.98 1343.17 1532.5 Q1342.5 1533.03 1341.8 1533.03 Q1340.92 1533.03 1340.29 1532.47 Q1339.69 1531.87 1339.69 1530.96 Q1339.69 1529.45 1340.85 1528.99 Q1340.64 1528.92 1340.15 1528.92 Q1336.64 1528.92 1333.65 1531.73 Q1336.6 1534.47 1336.6 1538.72 Q1336.6 1542.97 1333.23 1546.1 Q1329.86 1549.23 1324.97 1549.23 Q1320.93 1549.23 1317.84 1546.98 Q1316.61 1548.42 1316.61 1550.39 Q1316.61 1552.18 1317.7 1553.58 Q1318.79 1554.99 1320.44 1555.2 Q1320.93 1555.27 1325.81 1555.27 Q1328.7 1555.27 1330.28 1555.34 Q1331.86 1555.41 1334.11 1555.9 Q1336.39 1556.36 1338.18 1557.27 Q1342.85 1559.87 1342.89 1565.5 Q1342.89 1569.61 1338.15 1572.17 Q1333.44 1574.77 1326.9 1574.77 Q1320.3 1574.77 1315.63 1572.14 Q1310.99 1569.54 1310.99 1565.64 M1314.75 1565.64 Q1314.75 1568.59 1318.23 1570.84 Q1321.7 1573.12 1326.97 1573.12 Q1332.14 1573.12 1335.62 1570.87 Q1339.13 1568.66 1339.13 1565.64 Q1339.13 1563.49 1337.9 1562.12 Q1336.67 1560.75 1334.14 1560.19 Q1331.65 1559.66 1329.89 1559.56 Q1328.13 1559.45 1324.9 1559.45 L1320.65 1559.45 Q1318.19 1559.59 1316.47 1561.38 Q1314.75 1563.18 1314.75 1565.64 M1318.68 1538.72 Q1318.68 1547.58 1324.97 1547.58 Q1328.13 1547.58 1330.07 1544.7 Q1331.23 1542.76 1331.23 1538.65 Q1331.23 1529.8 1324.97 1529.8 Q1321.81 1529.8 1319.84 1532.68 Q1318.68 1534.61 1318.68 1538.72 Z" fill="#000000" fill-rule="evenodd" fill-opacity="1" /><path clip-path="url(#clip700)" d="M1347.64 1558.78 Q1346.62 1557.63 1346.62 1556.11 Q1346.62 1554.6 1347.6 1553.48 Q1348.62 1552.32 1350.45 1552.32 Q1352.59 1552.32 1353.82 1554.39 Q1355.05 1556.43 1355.05 1559.87 Q1355.05 1563.6 1353.54 1567.04 Q1352.03 1570.52 1350.56 1572.17 Q1349.08 1573.82 1348.48 1573.82 Q1347.78 1573.82 1347.78 1573.05 Q1347.78 1572.77 1348.27 1572.24 Q1353.44 1566.69 1353.47 1559.87 Q1353.47 1558.78 1353.33 1558.78 L1353.16 1558.93 Q1351.93 1559.94 1350.45 1559.94 Q1348.66 1559.94 1347.64 1558.78 Z" fill="#000000" fill-rule="evenodd" fill-opacity="1" /><path clip-path="url(#clip700)" d="M1394.02 1576.49 Q1394.02 1577.09 1393.6 1577.51 Q1393.18 1577.93 1392.58 1577.93 Q1391.57 1577.93 1391.21 1576.98 L1377.83 1542.45 Q1377.76 1542.31 1377.76 1541.96 Q1377.76 1541.6 1377.83 1541.46 L1391.21 1506.93 Q1391.57 1505.98 1392.58 1505.98 Q1393.18 1505.98 1393.6 1506.4 Q1394.02 1506.82 1394.02 1507.42 Q1394.02 1507.77 1393.95 1507.91 L1380.71 1541.96 L1393.95 1576 Q1394.02 1576.14 1394.02 1576.49 Z" fill="#000000" fill-rule="evenodd" fill-opacity="1" /><path clip-path="url(#clip700)" d="M1444.46 1549.65 Q1444.46 1549.93 1444.14 1551.02 Q1443.82 1552.11 1443.05 1553.8 Q1442.31 1555.48 1441.29 1557.03 Q1440.27 1558.54 1438.59 1559.66 Q1436.94 1560.75 1435.04 1560.75 Q1432.51 1560.75 1430.82 1559.07 Q1429.14 1557.38 1429.14 1554.85 Q1429.14 1553.44 1429.87 1551.51 Q1434.55 1539.04 1434.55 1534.75 Q1434.55 1529.73 1430.65 1529.73 Q1428.72 1529.73 1426.89 1530.47 Q1425.1 1531.17 1423.87 1532.15 Q1422.64 1533.14 1421.51 1534.51 Q1420.42 1535.84 1419.86 1536.76 Q1419.33 1537.63 1418.91 1538.51 L1418 1542.1 Q1417.79 1543.08 1416.77 1546.91 L1415.19 1553.41 Q1414.06 1558.26 1413.82 1558.71 Q1413.47 1559.7 1412.69 1560.23 Q1411.92 1560.75 1411.15 1560.75 Q1410.27 1560.75 1409.67 1560.23 Q1409.08 1559.7 1409.08 1558.78 Q1409.08 1558.64 1409.18 1558.12 Q1409.29 1557.59 1409.46 1556.85 Q1409.64 1556.11 1409.71 1555.69 L1413.89 1539.07 Q1414.66 1536.05 1414.84 1535.1 Q1415.05 1534.12 1415.05 1533.03 Q1415.05 1529.73 1412.8 1529.73 Q1410.97 1529.73 1409.78 1531.91 Q1408.58 1534.09 1407.57 1538.3 Q1407.25 1539.46 1407.04 1539.71 Q1406.86 1539.95 1406.34 1539.95 Q1405.46 1539.92 1405.46 1539.22 Q1405.46 1539.04 1405.74 1537.88 Q1406.02 1536.72 1406.55 1535.07 Q1407.11 1533.38 1407.64 1532.26 Q1408.09 1531.42 1408.34 1531.03 Q1408.62 1530.61 1409.29 1529.8 Q1409.99 1528.96 1410.9 1528.57 Q1411.85 1528.15 1413.01 1528.15 Q1415.61 1528.15 1417.51 1529.83 Q1419.41 1531.49 1419.65 1534.4 Q1424.32 1528.15 1430.86 1528.15 Q1434.72 1528.15 1436.94 1530.19 Q1439.15 1532.22 1439.15 1535.84 Q1439.15 1536.69 1438.97 1537.77 Q1438.83 1538.83 1438.48 1540.16 Q1438.17 1541.5 1437.89 1542.52 Q1437.6 1543.54 1437.04 1545.19 Q1436.48 1546.8 1436.23 1547.51 Q1435.99 1548.21 1435.39 1549.86 Q1434.83 1551.48 1434.76 1551.65 Q1433.46 1554.92 1433.46 1556.78 Q1433.46 1558.01 1433.85 1558.57 Q1434.27 1559.14 1435.18 1559.14 Q1437.64 1559.14 1439.47 1556.71 Q1441.33 1554.25 1442.52 1550.25 Q1442.8 1549.37 1442.94 1549.16 Q1443.12 1548.95 1443.61 1548.95 Q1444.46 1548.95 1444.46 1549.65 Z" fill="#000000" fill-rule="evenodd" fill-opacity="1" /><path clip-path="url(#clip700)" d="M1464.35 1541.46 Q1464.42 1541.6 1464.42 1541.96 Q1464.42 1542.31 1464.35 1542.45 L1450.96 1576.98 Q1450.61 1577.93 1449.63 1577.93 Q1449.03 1577.93 1448.61 1577.51 Q1448.19 1577.09 1448.19 1576.49 Q1448.19 1576.14 1448.26 1576 L1461.47 1541.96 L1448.26 1507.91 Q1448.19 1507.77 1448.19 1507.42 Q1448.19 1506.82 1448.61 1506.4 Q1449.03 1505.98 1449.63 1505.98 Q1450.61 1505.98 1450.96 1506.93 L1464.35 1541.46 Z" fill="#000000" fill-rule="evenodd" fill-opacity="1" /><polyline clip-path="url(#clip700)" style="stroke:#000000; stroke-linecap:butt; stroke-linejoin:round; stroke-width:4; stroke-opacity:1; fill:none" points="
  262.009,1410.22 262.009,47.2441 
  "/>
<polyline clip-path="url(#clip700)" style="stroke:#000000; stroke-linecap:butt; stroke-linejoin:round; stroke-width:4; stroke-opacity:1; fill:none" points="
  2352.76,1410.22 2352.76,47.2441 
  "/>
<polyline clip-path="url(#clip700)" style="stroke:#000000; stroke-linecap:butt; stroke-linejoin:round; stroke-width:4; stroke-opacity:1; fill:none" points="
  262.009,1346.53 280.907,1346.53 
  "/>
<polyline clip-path="url(#clip700)" style="stroke:#000000; stroke-linecap:butt; stroke-linejoin:round; stroke-width:4; stroke-opacity:1; fill:none" points="
  262.009,1028.08 280.907,1028.08 
  "/>
<polyline clip-path="url(#clip700)" style="stroke:#000000; stroke-linecap:butt; stroke-linejoin:round; stroke-width:4; stroke-opacity:1; fill:none" points="
  262.009,709.625 280.907,709.625 
  "/>
<polyline clip-path="url(#clip700)" style="stroke:#000000; stroke-linecap:butt; stroke-linejoin:round; stroke-width:4; stroke-opacity:1; fill:none" points="
  262.009,391.173 280.907,391.173 
  "/>
<polyline clip-path="url(#clip700)" style="stroke:#000000; stroke-linecap:butt; stroke-linejoin:round; stroke-width:4; stroke-opacity:1; fill:none" points="
  262.009,72.7203 280.907,72.7203 
  "/>
<polyline clip-path="url(#clip700)" style="stroke:#000000; stroke-linecap:butt; stroke-linejoin:round; stroke-width:4; stroke-opacity:1; fill:none" points="
  262.009,1187.3 271.458,1187.3 
  "/>
<polyline clip-path="url(#clip700)" style="stroke:#000000; stroke-linecap:butt; stroke-linejoin:round; stroke-width:4; stroke-opacity:1; fill:none" points="
  262.009,868.851 271.458,868.851 
  "/>
<polyline clip-path="url(#clip700)" style="stroke:#000000; stroke-linecap:butt; stroke-linejoin:round; stroke-width:4; stroke-opacity:1; fill:none" points="
  262.009,550.399 271.458,550.399 
  "/>
<polyline clip-path="url(#clip700)" style="stroke:#000000; stroke-linecap:butt; stroke-linejoin:round; stroke-width:4; stroke-opacity:1; fill:none" points="
  262.009,231.946 271.458,231.946 
  "/>
<path clip-path="url(#clip700)" d="M118.58 1347.9 Q118.58 1338.61 120.927 1333.54 Q124.2 1326.01 131.92 1326.01 Q133.557 1326.01 135.255 1326.47 Q136.984 1326.91 139.146 1328.6 Q141.338 1330.3 142.666 1333.08 Q145.198 1338.45 145.198 1347.9 Q145.198 1357.14 142.851 1362.17 Q139.424 1369.52 131.858 1369.52 Q129.017 1369.52 126.115 1368.07 Q123.243 1366.62 121.421 1363.13 Q118.58 1357.91 118.58 1347.9 M123.83 1347.13 Q123.83 1356.67 124.509 1360.47 Q125.281 1364.58 127.381 1366.37 Q129.511 1368.13 131.858 1368.13 Q134.39 1368.13 136.49 1366.25 Q138.621 1364.33 139.269 1360.22 Q139.979 1356.18 139.949 1347.13 Q139.949 1338.33 139.331 1334.81 Q138.497 1330.7 136.274 1329.07 Q134.082 1327.4 131.858 1327.4 Q131.024 1327.4 130.129 1327.65 Q129.264 1327.89 127.998 1328.6 Q126.732 1329.31 125.744 1331.07 Q124.787 1332.83 124.324 1335.49 Q123.83 1338.92 123.83 1347.13 Z" fill="#000000" fill-rule="evenodd" fill-opacity="1" /><path clip-path="url(#clip700)" d="M154.06 1367.11 Q153.103 1366.09 153.103 1364.76 Q153.103 1363.44 154.06 1362.48 Q155.018 1361.49 156.469 1361.49 Q157.858 1361.49 158.785 1362.42 Q159.742 1363.31 159.742 1364.79 Q159.742 1366.25 158.723 1367.2 Q157.735 1368.13 156.469 1368.13 Q155.018 1368.13 154.06 1367.11 Z" fill="#000000" fill-rule="evenodd" fill-opacity="1" /><path clip-path="url(#clip700)" d="M167.771 1347.9 Q167.771 1338.61 170.118 1333.54 Q173.391 1326.01 181.111 1326.01 Q182.747 1326.01 184.445 1326.47 Q186.175 1326.91 188.336 1328.6 Q190.529 1330.3 191.856 1333.08 Q194.389 1338.45 194.389 1347.9 Q194.389 1357.14 192.042 1362.17 Q188.614 1369.52 181.049 1369.52 Q178.208 1369.52 175.305 1368.07 Q172.433 1366.62 170.612 1363.13 Q167.771 1357.91 167.771 1347.9 M173.02 1347.13 Q173.02 1356.67 173.7 1360.47 Q174.472 1364.58 176.571 1366.37 Q178.702 1368.13 181.049 1368.13 Q183.581 1368.13 185.681 1366.25 Q187.811 1364.33 188.46 1360.22 Q189.17 1356.18 189.139 1347.13 Q189.139 1338.33 188.522 1334.81 Q187.688 1330.7 185.465 1329.07 Q183.272 1327.4 181.049 1327.4 Q180.215 1327.4 179.32 1327.65 Q178.455 1327.89 177.189 1328.6 Q175.923 1329.31 174.935 1331.07 Q173.977 1332.83 173.514 1335.49 Q173.02 1338.92 173.02 1347.13 Z" fill="#000000" fill-rule="evenodd" fill-opacity="1" /><path clip-path="url(#clip700)" d="M199.391 1347.9 Q199.391 1338.61 201.738 1333.54 Q205.011 1326.01 212.731 1326.01 Q214.367 1326.01 216.066 1326.47 Q217.795 1326.91 219.957 1328.6 Q222.149 1330.3 223.477 1333.08 Q226.009 1338.45 226.009 1347.9 Q226.009 1357.14 223.662 1362.17 Q220.234 1369.52 212.669 1369.52 Q209.828 1369.52 206.926 1368.07 Q204.054 1366.62 202.232 1363.13 Q199.391 1357.91 199.391 1347.9 M204.64 1347.13 Q204.64 1356.67 205.32 1360.47 Q206.092 1364.58 208.192 1366.37 Q210.322 1368.13 212.669 1368.13 Q215.201 1368.13 217.301 1366.25 Q219.432 1364.33 220.08 1360.22 Q220.79 1356.18 220.759 1347.13 Q220.759 1338.33 220.142 1334.81 Q219.308 1330.7 217.085 1329.07 Q214.892 1327.4 212.669 1327.4 Q211.835 1327.4 210.94 1327.65 Q210.075 1327.89 208.809 1328.6 Q207.543 1329.31 206.555 1331.07 Q205.598 1332.83 205.135 1335.49 Q204.64 1338.92 204.64 1347.13 Z" fill="#000000" fill-rule="evenodd" fill-opacity="1" /><path clip-path="url(#clip700)" d="M119.259 1029.45 Q119.259 1020.16 121.606 1015.09 Q124.88 1007.56 132.599 1007.56 Q134.236 1007.56 135.934 1008.02 Q137.664 1008.45 139.825 1010.15 Q142.017 1011.85 143.345 1014.63 Q145.877 1020 145.877 1029.45 Q145.877 1038.68 143.531 1043.72 Q140.103 1051.07 132.538 1051.07 Q129.697 1051.07 126.794 1049.62 Q123.922 1048.16 122.1 1044.67 Q119.259 1039.46 119.259 1029.45 M124.509 1028.68 Q124.509 1038.22 125.188 1042.02 Q125.96 1046.13 128.06 1047.92 Q130.191 1049.68 132.538 1049.68 Q135.07 1049.68 137.169 1047.79 Q139.3 1045.88 139.949 1041.77 Q140.659 1037.73 140.628 1028.68 Q140.628 1019.88 140.01 1016.36 Q139.177 1012.25 136.953 1010.61 Q134.761 1008.95 132.538 1008.95 Q131.704 1008.95 130.808 1009.19 Q129.944 1009.44 128.678 1010.15 Q127.412 1010.86 126.423 1012.62 Q125.466 1014.38 125.003 1017.04 Q124.509 1020.47 124.509 1028.68 Z" fill="#000000" fill-rule="evenodd" fill-opacity="1" /><path clip-path="url(#clip700)" d="M154.74 1048.66 Q153.782 1047.64 153.782 1046.31 Q153.782 1044.98 154.74 1044.03 Q155.697 1043.04 157.148 1043.04 Q158.538 1043.04 159.464 1043.96 Q160.421 1044.86 160.421 1046.34 Q160.421 1047.79 159.402 1048.75 Q158.414 1049.68 157.148 1049.68 Q155.697 1049.68 154.74 1048.66 Z" fill="#000000" fill-rule="evenodd" fill-opacity="1" /><path clip-path="url(#clip700)" d="M169.129 1049.68 Q169.129 1048.53 169.222 1048.19 Q169.346 1047.86 169.84 1047.33 L181.975 1033.81 Q188.614 1026.33 188.614 1019.82 Q188.614 1015.59 186.391 1012.56 Q184.198 1009.53 180.153 1009.53 Q177.374 1009.53 175.027 1011.23 Q172.681 1012.93 171.6 1015.96 Q171.785 1015.9 172.433 1015.9 Q174.008 1015.9 174.873 1016.88 Q175.768 1017.87 175.768 1019.2 Q175.768 1020.9 174.657 1021.73 Q173.576 1022.53 172.495 1022.53 Q172.063 1022.53 171.476 1022.44 Q170.92 1022.35 170.025 1021.48 Q169.129 1020.59 169.129 1019.01 Q169.129 1014.6 172.464 1011.08 Q175.83 1007.56 180.956 1007.56 Q186.761 1007.56 190.56 1011.02 Q194.389 1014.44 194.389 1019.82 Q194.389 1021.7 193.802 1023.43 Q193.246 1025.13 192.474 1026.46 Q191.733 1027.78 189.695 1029.91 Q187.657 1032.05 186.02 1033.56 Q184.384 1035.07 180.709 1038.28 L174.008 1044.8 L185.403 1044.8 Q190.961 1044.8 191.393 1044.3 Q192.011 1043.41 192.783 1038.68 L194.389 1038.68 L192.598 1049.68 L169.129 1049.68 Z" fill="#000000" fill-rule="evenodd" fill-opacity="1" /><path clip-path="url(#clip700)" d="M200.75 1039.49 Q200.75 1037.6 201.769 1036.89 Q202.788 1036.15 203.869 1036.15 Q205.32 1036.15 206.154 1037.08 Q207.018 1037.97 207.018 1039.24 Q207.018 1040.51 206.154 1041.43 Q205.32 1042.33 203.869 1042.33 Q203.158 1042.33 202.788 1042.2 Q203.621 1045.11 206.154 1047.21 Q208.717 1049.31 212.082 1049.31 Q216.313 1049.31 218.845 1045.2 Q220.358 1042.54 220.358 1036.52 Q220.358 1031.21 219.215 1028.56 Q217.455 1024.51 213.842 1024.51 Q208.717 1024.51 205.69 1028.93 Q205.32 1029.48 204.888 1029.51 Q204.27 1029.51 204.116 1029.17 Q203.992 1028.8 203.992 1027.85 L203.992 1009.13 Q203.992 1007.62 204.61 1007.62 Q204.857 1007.62 205.382 1007.8 Q209.365 1009.57 213.781 1009.6 Q218.32 1009.6 222.396 1007.74 Q222.705 1007.56 222.89 1007.56 Q223.508 1007.56 223.539 1008.27 Q223.539 1008.52 223.014 1009.26 Q222.52 1009.97 221.439 1010.92 Q220.358 1011.85 218.968 1012.75 Q217.579 1013.64 215.541 1014.26 Q213.534 1014.85 211.31 1014.85 Q208.655 1014.85 205.937 1014.01 L205.937 1026.33 Q209.211 1023.12 213.966 1023.12 Q219.03 1023.12 222.52 1027.2 Q226.009 1031.27 226.009 1036.95 Q226.009 1042.91 221.871 1046.99 Q217.764 1051.07 212.206 1051.07 Q207.142 1051.07 203.93 1047.45 Q200.75 1043.84 200.75 1039.49 Z" fill="#000000" fill-rule="evenodd" fill-opacity="1" /><path clip-path="url(#clip700)" d="M118.58 710.999 Q118.58 701.704 120.927 696.64 Q124.2 689.106 131.92 689.106 Q133.557 689.106 135.255 689.569 Q136.984 690.001 139.146 691.699 Q141.338 693.398 142.666 696.177 Q145.198 701.55 145.198 710.999 Q145.198 720.232 142.851 725.265 Q139.424 732.614 131.858 732.614 Q129.017 732.614 126.115 731.163 Q123.243 729.712 121.421 726.222 Q118.58 721.004 118.58 710.999 M123.83 710.227 Q123.83 719.769 124.509 723.567 Q125.281 727.674 127.381 729.465 Q129.511 731.225 131.858 731.225 Q134.39 731.225 136.49 729.341 Q138.621 727.427 139.269 723.32 Q139.979 719.275 139.949 710.227 Q139.949 701.426 139.331 697.906 Q138.497 693.799 136.274 692.163 Q134.082 690.495 131.858 690.495 Q131.024 690.495 130.129 690.742 Q129.264 690.989 127.998 691.699 Q126.732 692.41 125.744 694.17 Q124.787 695.93 124.324 698.586 Q123.83 702.013 123.83 710.227 Z" fill="#000000" fill-rule="evenodd" fill-opacity="1" /><path clip-path="url(#clip700)" d="M154.06 730.206 Q153.103 729.187 153.103 727.859 Q153.103 726.531 154.06 725.574 Q155.018 724.586 156.469 724.586 Q157.858 724.586 158.785 725.512 Q159.742 726.408 159.742 727.89 Q159.742 729.341 158.723 730.298 Q157.735 731.225 156.469 731.225 Q155.018 731.225 154.06 730.206 Z" fill="#000000" fill-rule="evenodd" fill-opacity="1" /><path clip-path="url(#clip700)" d="M168.45 721.035 Q168.45 719.151 169.469 718.441 Q170.488 717.7 171.569 717.7 Q173.02 717.7 173.854 718.626 Q174.719 719.522 174.719 720.788 Q174.719 722.054 173.854 722.98 Q173.02 723.876 171.569 723.876 Q170.859 723.876 170.488 723.752 Q171.322 726.655 173.854 728.754 Q176.417 730.854 179.783 730.854 Q184.013 730.854 186.545 726.747 Q188.058 724.092 188.058 718.07 Q188.058 712.759 186.916 710.103 Q185.156 706.058 181.543 706.058 Q176.417 706.058 173.391 710.474 Q173.02 711.03 172.588 711.061 Q171.97 711.061 171.816 710.721 Q171.692 710.35 171.692 709.393 L171.692 690.68 Q171.692 689.167 172.31 689.167 Q172.557 689.167 173.082 689.353 Q177.065 691.113 181.481 691.144 Q186.02 691.144 190.096 689.291 Q190.405 689.106 190.59 689.106 Q191.208 689.106 191.239 689.816 Q191.239 690.063 190.714 690.804 Q190.22 691.514 189.139 692.471 Q188.058 693.398 186.669 694.293 Q185.279 695.189 183.241 695.806 Q181.234 696.393 179.011 696.393 Q176.355 696.393 173.638 695.559 L173.638 707.88 Q176.911 704.669 181.666 704.669 Q186.731 704.669 190.22 708.745 Q193.709 712.821 193.709 718.503 Q193.709 724.462 189.571 728.538 Q185.465 732.614 179.906 732.614 Q174.842 732.614 171.631 729.002 Q168.45 725.389 168.45 721.035 Z" fill="#000000" fill-rule="evenodd" fill-opacity="1" /><path clip-path="url(#clip700)" d="M199.391 710.999 Q199.391 701.704 201.738 696.64 Q205.011 689.106 212.731 689.106 Q214.367 689.106 216.066 689.569 Q217.795 690.001 219.957 691.699 Q222.149 693.398 223.477 696.177 Q226.009 701.55 226.009 710.999 Q226.009 720.232 223.662 725.265 Q220.234 732.614 212.669 732.614 Q209.828 732.614 206.926 731.163 Q204.054 729.712 202.232 726.222 Q199.391 721.004 199.391 710.999 M204.64 710.227 Q204.64 719.769 205.32 723.567 Q206.092 727.674 208.192 729.465 Q210.322 731.225 212.669 731.225 Q215.201 731.225 217.301 729.341 Q219.432 727.427 220.08 723.32 Q220.79 719.275 220.759 710.227 Q220.759 701.426 220.142 697.906 Q219.308 693.799 217.085 692.163 Q214.892 690.495 212.669 690.495 Q211.835 690.495 210.94 690.742 Q210.075 690.989 208.809 691.699 Q207.543 692.41 206.555 694.17 Q205.598 695.93 205.135 698.586 Q204.64 702.013 204.64 710.227 Z" fill="#000000" fill-rule="evenodd" fill-opacity="1" /><path clip-path="url(#clip700)" d="M119.259 392.547 Q119.259 383.252 121.606 378.188 Q124.88 370.653 132.599 370.653 Q134.236 370.653 135.934 371.117 Q137.664 371.549 139.825 373.247 Q142.017 374.946 143.345 377.725 Q145.877 383.098 145.877 392.547 Q145.877 401.78 143.531 406.813 Q140.103 414.162 132.538 414.162 Q129.697 414.162 126.794 412.711 Q123.922 411.259 122.1 407.77 Q119.259 402.552 119.259 392.547 M124.509 391.775 Q124.509 401.316 125.188 405.115 Q125.96 409.221 128.06 411.012 Q130.191 412.773 132.538 412.773 Q135.07 412.773 137.169 410.889 Q139.3 408.974 139.949 404.867 Q140.659 400.822 140.628 391.775 Q140.628 382.974 140.01 379.454 Q139.177 375.347 136.953 373.71 Q134.761 372.043 132.538 372.043 Q131.704 372.043 130.808 372.29 Q129.944 372.537 128.678 373.247 Q127.412 373.957 126.423 375.718 Q125.466 377.478 125.003 380.133 Q124.509 383.561 124.509 391.775 Z" fill="#000000" fill-rule="evenodd" fill-opacity="1" /><path clip-path="url(#clip700)" d="M154.74 411.754 Q153.782 410.735 153.782 409.407 Q153.782 408.079 154.74 407.122 Q155.697 406.134 157.148 406.134 Q158.538 406.134 159.464 407.06 Q160.421 407.955 160.421 409.438 Q160.421 410.889 159.402 411.846 Q158.414 412.773 157.148 412.773 Q155.697 412.773 154.74 411.754 Z" fill="#000000" fill-rule="evenodd" fill-opacity="1" /><path clip-path="url(#clip700)" d="M169.531 383.036 L171.6 370.036 L173.175 370.036 Q173.36 370.808 173.669 371.147 Q174.008 371.487 175.799 371.765 Q177.621 372.043 181.296 372.043 L196.643 372.043 Q196.643 373.494 196.087 374.266 L187.533 386.278 Q184.816 390.076 183.612 397.086 Q182.902 401.78 182.932 407.461 L182.932 410.673 Q182.932 414.162 179.999 414.162 Q177.096 414.162 177.096 410.673 Q177.096 398.599 184.878 386.896 Q185.712 385.691 188.769 381.399 Q191.856 377.107 191.98 376.922 L178.887 376.922 Q173.144 376.922 172.681 377.292 Q172.063 377.848 171.106 383.036 L169.531 383.036 Z" fill="#000000" fill-rule="evenodd" fill-opacity="1" /><path clip-path="url(#clip700)" d="M200.75 402.582 Q200.75 400.699 201.769 399.989 Q202.788 399.247 203.869 399.247 Q205.32 399.247 206.154 400.174 Q207.018 401.069 207.018 402.335 Q207.018 403.601 206.154 404.528 Q205.32 405.423 203.869 405.423 Q203.158 405.423 202.788 405.3 Q203.621 408.202 206.154 410.302 Q208.717 412.402 212.082 412.402 Q216.313 412.402 218.845 408.295 Q220.358 405.639 220.358 399.618 Q220.358 394.307 219.215 391.651 Q217.455 387.606 213.842 387.606 Q208.717 387.606 205.69 392.022 Q205.32 392.578 204.888 392.608 Q204.27 392.608 204.116 392.269 Q203.992 391.898 203.992 390.941 L203.992 372.228 Q203.992 370.715 204.61 370.715 Q204.857 370.715 205.382 370.9 Q209.365 372.66 213.781 372.691 Q218.32 372.691 222.396 370.839 Q222.705 370.653 222.89 370.653 Q223.508 370.653 223.539 371.364 Q223.539 371.611 223.014 372.352 Q222.52 373.062 221.439 374.019 Q220.358 374.946 218.968 375.841 Q217.579 376.737 215.541 377.354 Q213.534 377.941 211.31 377.941 Q208.655 377.941 205.937 377.107 L205.937 389.428 Q209.211 386.216 213.966 386.216 Q219.03 386.216 222.52 390.292 Q226.009 394.369 226.009 400.05 Q226.009 406.01 221.871 410.086 Q217.764 414.162 212.206 414.162 Q207.142 414.162 203.93 410.549 Q200.75 406.936 200.75 402.582 Z" fill="#000000" fill-rule="evenodd" fill-opacity="1" /><path clip-path="url(#clip700)" d="M121.73 58.2225 L121.73 56.2462 Q129.326 56.2462 133.248 52.201 Q134.329 52.201 134.514 52.4481 Q134.699 52.6951 134.699 53.8376 L134.699 89.3178 Q134.699 91.2015 135.625 91.7882 Q136.552 92.3749 140.597 92.3749 L142.604 92.3749 L142.604 94.3203 Q140.381 94.135 132.352 94.135 Q124.324 94.135 122.131 94.3203 L122.131 92.3749 L124.138 92.3749 Q128.122 92.3749 129.079 91.8191 Q130.036 91.2324 130.036 89.3178 L130.036 56.555 Q126.732 58.2225 121.73 58.2225 Z" fill="#000000" fill-rule="evenodd" fill-opacity="1" /><path clip-path="url(#clip700)" d="M154.06 93.3013 Q153.103 92.2822 153.103 90.9544 Q153.103 89.6266 154.06 88.6694 Q155.018 87.6812 156.469 87.6812 Q157.858 87.6812 158.785 88.6076 Q159.742 89.5031 159.742 90.9853 Q159.742 92.4366 158.723 93.3939 Q157.735 94.3203 156.469 94.3203 Q155.018 94.3203 154.06 93.3013 Z" fill="#000000" fill-rule="evenodd" fill-opacity="1" /><path clip-path="url(#clip700)" d="M167.771 74.0944 Q167.771 64.7998 170.118 59.7356 Q173.391 52.201 181.111 52.201 Q182.747 52.201 184.445 52.6642 Q186.175 53.0965 188.336 54.7949 Q190.529 56.4933 191.856 59.2724 Q194.389 64.6454 194.389 74.0944 Q194.389 83.3273 192.042 88.3606 Q188.614 95.7098 181.049 95.7098 Q178.208 95.7098 175.305 94.2585 Q172.433 92.8072 170.612 89.3178 Q167.771 84.0993 167.771 74.0944 M173.02 73.3224 Q173.02 82.8641 173.7 86.6622 Q174.472 90.7692 176.571 92.5602 Q178.702 94.3203 181.049 94.3203 Q183.581 94.3203 185.681 92.4366 Q187.811 90.5221 188.46 86.4152 Q189.17 82.37 189.139 73.3224 Q189.139 64.5218 188.522 61.0016 Q187.688 56.8947 185.465 55.2581 Q183.272 53.5906 181.049 53.5906 Q180.215 53.5906 179.32 53.8376 Q178.455 54.0847 177.189 54.7949 Q175.923 55.5051 174.935 57.2652 Q173.977 59.0254 173.514 61.681 Q173.02 65.1086 173.02 73.3224 Z" fill="#000000" fill-rule="evenodd" fill-opacity="1" /><path clip-path="url(#clip700)" d="M199.391 74.0944 Q199.391 64.7998 201.738 59.7356 Q205.011 52.201 212.731 52.201 Q214.367 52.201 216.066 52.6642 Q217.795 53.0965 219.957 54.7949 Q222.149 56.4933 223.477 59.2724 Q226.009 64.6454 226.009 74.0944 Q226.009 83.3273 223.662 88.3606 Q220.234 95.7098 212.669 95.7098 Q209.828 95.7098 206.926 94.2585 Q204.054 92.8072 202.232 89.3178 Q199.391 84.0993 199.391 74.0944 M204.64 73.3224 Q204.64 82.8641 205.32 86.6622 Q206.092 90.7692 208.192 92.5602 Q210.322 94.3203 212.669 94.3203 Q215.201 94.3203 217.301 92.4366 Q219.432 90.5221 220.08 86.4152 Q220.79 82.37 220.759 73.3224 Q220.759 64.5218 220.142 61.0016 Q219.308 56.8947 217.085 55.2581 Q214.892 53.5906 212.669 53.5906 Q211.835 53.5906 210.94 53.8376 Q210.075 54.0847 208.809 54.7949 Q207.543 55.5051 206.555 57.2652 Q205.598 59.0254 205.135 61.681 Q204.64 65.1086 204.64 73.3224 Z" fill="#000000" fill-rule="evenodd" fill-opacity="1" /><path clip-path="url(#clip700)" d="M85.8444 810.112 Q86.4417 810.112 86.8633 810.533 Q87.2849 810.955 87.2849 811.552 Q87.2849 812.571 86.3363 812.922 L51.7999 826.308 Q51.6594 826.379 51.308 826.379 Q50.9567 826.379 50.8162 826.308 L16.2798 812.922 Q15.3312 812.571 15.3312 811.552 Q15.3312 810.955 15.7528 810.533 Q16.1744 810.112 16.7716 810.112 Q17.123 810.112 17.2635 810.182 L51.308 823.427 L85.3526 810.182 Q85.4931 810.112 85.8444 810.112 Z" fill="#000000" fill-rule="evenodd" fill-opacity="1" /><path clip-path="url(#clip700)" d="M69.1559 798.68 L54.7511 798.68 Q53.9431 798.68 53.662 798.645 Q53.3809 798.609 53.1701 798.399 Q52.9593 798.188 52.9593 797.766 Q52.9593 796.958 53.6971 796.888 Q60.8293 796.677 64.7642 792.426 Q68.6641 788.245 68.6641 781.078 Q68.6641 776.756 65.5723 774.086 Q62.4454 771.416 58.3699 771.416 Q54.4701 771.416 51.7296 773.664 Q50.5 774.613 49.727 775.808 Q48.9189 776.967 48.673 777.705 Q48.4271 778.408 48.0757 779.778 Q45.9326 788.702 45.6866 789.264 Q44.2462 793.515 40.6274 796.115 Q36.9735 798.68 32.5115 798.68 Q26.7496 798.68 22.6741 794.639 Q18.5635 790.564 18.5635 784.661 Q18.5635 781.71 19.5121 779.251 Q20.4255 776.756 21.2687 775.737 Q22.112 774.719 23.6227 773.137 L19.5121 770.643 Q18.5635 770.081 18.5635 769.554 Q18.5635 768.992 18.9148 768.886 Q19.231 768.746 20.285 768.746 L34.7601 768.746 Q35.5681 768.746 35.8492 768.781 Q36.1303 768.816 36.306 769.062 Q36.4816 769.273 36.4816 769.694 Q36.4816 770.397 35.6384 770.573 Q20.6012 772.575 20.6012 784.591 Q20.6012 788.702 23.3768 791.407 Q26.1172 794.077 30.017 794.077 Q33.1791 794.077 35.779 792.11 Q38.3437 790.142 39.1518 786.804 L41.3652 777.599 Q42.4543 772.997 46.5299 769.905 Q50.6054 766.813 55.9105 766.813 Q62.0238 766.813 66.4506 770.819 Q70.8775 774.789 70.8775 781.007 Q70.8775 785.469 69.4019 788.913 Q67.9263 792.356 65.8534 794.218 Q68.2425 795.658 69.5775 796.607 L69.9289 796.818 Q70.8775 797.38 70.8775 797.907 Q70.8775 798.469 70.5261 798.574 Q70.1748 798.68 69.1559 798.68 Z" fill="#000000" fill-rule="evenodd" fill-opacity="1" /><path clip-path="url(#clip700)" d="M69.2965 757.422 L67.083 757.422 Q67.083 753.592 66.6263 752.714 Q66.1344 751.835 63.8156 751.835 L44.457 751.835 Q41.7868 751.835 41.1544 752.749 Q40.522 753.627 40.522 757.14 L38.2734 757.14 L37.5005 747.092 L63.8859 747.092 Q66.029 747.092 66.556 746.319 Q67.083 745.546 67.083 742.033 L69.2965 742.033 Q69.0857 749.376 69.0857 749.516 Q69.0857 750.5 69.2965 757.422 M24.9578 754.4 Q23.5173 754.4 22.3579 753.311 Q21.1633 752.187 21.1633 750.606 Q21.1633 749.025 22.2525 747.9 Q23.3065 746.776 24.9929 746.776 Q26.6442 746.776 27.7333 747.9 Q28.7874 749.025 28.7874 750.606 Q28.7874 752.257 27.6279 753.346 Q26.4685 754.4 24.9578 754.4 Z" fill="#000000" fill-rule="evenodd" fill-opacity="1" /><path clip-path="url(#clip700)" d="M74.9881 738.555 Q72.6693 738.555 70.6667 736.799 Q68.6641 735.007 67.7857 731.915 Q65.7831 735.077 61.3914 735.077 Q58.0186 735.077 55.4187 732.864 Q52.608 736.236 48.0055 736.236 Q43.7543 736.236 40.6274 732.864 Q37.5005 729.491 37.5005 724.572 Q37.5005 720.251 40.1004 716.948 Q36.7276 713.505 36.6924 709.324 Q36.6924 707.462 37.8518 706.584 Q39.0112 705.67 40.2409 705.67 Q41.3301 705.67 41.8571 706.373 Q42.3841 707.04 42.3841 707.743 Q42.3841 708.621 41.8219 709.254 Q41.2247 709.851 40.3112 709.851 Q38.8004 709.851 38.3437 708.692 Q38.2734 708.902 38.2734 709.394 Q38.2734 712.908 41.0841 715.894 Q43.8246 712.943 48.0757 712.943 Q52.3269 712.943 55.4538 716.316 Q58.5807 719.688 58.5807 724.572 Q58.5807 728.612 56.3321 731.704 Q57.7726 732.934 59.7401 732.934 Q61.5319 732.934 62.9373 731.845 Q64.3426 730.756 64.5534 729.104 Q64.6237 728.612 64.6237 723.729 Q64.6237 720.848 64.694 719.267 Q64.7642 717.686 65.2561 715.437 Q65.7128 713.154 66.6263 711.362 Q69.2262 706.689 74.8476 706.654 Q78.9582 706.654 81.523 711.397 Q84.1229 716.105 84.1229 722.64 Q84.1229 729.245 81.4879 733.918 Q78.888 738.555 74.9881 738.555 M74.9881 734.796 Q77.9394 734.796 80.1879 731.318 Q82.4716 727.839 82.4716 722.569 Q82.4716 717.405 80.223 713.927 Q78.0096 710.413 74.9881 710.413 Q72.845 710.413 71.4748 711.643 Q70.1045 712.873 69.5424 715.402 Q69.0154 717.897 68.91 719.653 Q68.8046 721.41 68.8046 724.642 L68.8046 728.893 Q68.9451 731.353 70.737 733.074 Q72.5288 734.796 74.9881 734.796 M48.0757 730.861 Q56.9294 730.861 56.9294 724.572 Q56.9294 721.41 54.0485 719.478 Q52.1161 718.318 48.0055 718.318 Q39.1518 718.318 39.1518 724.572 Q39.1518 727.734 42.0327 729.702 Q43.9651 730.861 48.0757 730.861 Z" fill="#000000" fill-rule="evenodd" fill-opacity="1" /><path clip-path="url(#clip700)" d="M69.2965 698.314 L67.083 698.314 Q67.083 694.485 66.6263 693.607 Q66.1344 692.728 63.8156 692.728 L44.5272 692.728 Q41.8571 692.728 41.1895 693.677 Q40.522 694.59 40.522 698.314 L38.2734 698.314 L37.5005 688.196 L45.0542 688.196 Q37.5005 684.823 37.5005 677.55 Q37.5005 672.14 40.1707 669.997 Q41.9625 668.416 43.9651 668.099 Q45.9677 667.748 51.1675 667.748 L64.9048 667.748 Q66.4155 667.678 66.7668 666.518 Q67.083 665.359 67.083 662.127 L69.2965 662.127 Q69.0857 669.47 69.0857 670.207 Q69.0857 670.77 69.2965 678.323 L67.083 678.323 Q67.083 674.494 66.6263 673.615 Q66.1344 672.702 63.8156 672.702 L47.0569 672.702 Q43.403 672.702 41.2598 673.826 Q39.0815 674.951 39.0815 678.042 Q39.0815 681.766 42.2084 684.753 Q45.3353 687.739 50.6054 687.739 L63.8156 687.739 Q66.1344 687.739 66.6263 686.861 Q67.083 685.947 67.083 682.153 L69.2965 682.153 Q69.0857 689.496 69.0857 690.199 Q69.0857 690.761 69.2965 698.314 Z" fill="#000000" fill-rule="evenodd" fill-opacity="1" /><path clip-path="url(#clip700)" d="M50.8162 642.623 Q50.9567 642.553 51.308 642.553 Q51.6594 642.553 51.7999 642.623 L86.3363 656.009 Q87.2849 656.36 87.2849 657.344 Q87.2849 657.941 86.8633 658.363 Q86.4417 658.784 85.8444 658.784 Q85.4931 658.784 85.3526 658.714 L51.308 645.504 L17.2635 658.714 Q17.123 658.784 16.7716 658.784 Q16.1744 658.784 15.7528 658.363 Q15.3312 657.941 15.3312 657.344 Q15.3312 656.36 16.2798 656.009 L50.8162 642.623 Z" fill="#000000" fill-rule="evenodd" fill-opacity="1" /><polyline clip-path="url(#clip702)" style="stroke:#009af9; stroke-linecap:butt; stroke-linejoin:round; stroke-width:4; stroke-opacity:1; fill:none" points="
  321.181,72.7203 437.094,380.982 669.129,383.53 785.251,85.4584 901.164,566.958 1133.2,709.625 1249.32,108.387 1365.44,946.553 1597.48,1122.34 1829.51,1392.39 
  2061.55,1285.39 2177.46,1315.96 2293.58,72.7203 
  "/>
<path clip-path="url(#clip702)" d="M305.181 56.7203 L305.181 88.7203 L337.181 88.7203 L337.181 56.7203 L305.181 56.7203 Z" fill="#009af9" fill-rule="evenodd" fill-opacity="1" stroke="none"/>
<path clip-path="url(#clip702)" d="M421.094 364.982 L421.094 396.982 L453.094 396.982 L453.094 364.982 L421.094 364.982 Z" fill="#009af9" fill-rule="evenodd" fill-opacity="1" stroke="none"/>
<path clip-path="url(#clip702)" d="M653.129 367.53 L653.129 399.53 L685.129 399.53 L685.129 367.53 L653.129 367.53 Z" fill="#009af9" fill-rule="evenodd" fill-opacity="1" stroke="none"/>
<path clip-path="url(#clip702)" d="M769.251 69.4584 L769.251 101.458 L801.251 101.458 L801.251 69.4584 L769.251 69.4584 Z" fill="#009af9" fill-rule="evenodd" fill-opacity="1" stroke="none"/>
<path clip-path="url(#clip702)" d="M885.164 550.958 L885.164 582.958 L917.164 582.958 L917.164 550.958 L885.164 550.958 Z" fill="#009af9" fill-rule="evenodd" fill-opacity="1" stroke="none"/>
<path clip-path="url(#clip702)" d="M1117.2 693.625 L1117.2 725.625 L1149.2 725.625 L1149.2 693.625 L1117.2 693.625 Z" fill="#009af9" fill-rule="evenodd" fill-opacity="1" stroke="none"/>
<path clip-path="url(#clip702)" d="M1233.32 92.3869 L1233.32 124.387 L1265.32 124.387 L1265.32 92.3869 L1233.32 92.3869 Z" fill="#009af9" fill-rule="evenodd" fill-opacity="1" stroke="none"/>
<path clip-path="url(#clip702)" d="M1349.44 930.553 L1349.44 962.553 L1381.44 962.553 L1381.44 930.553 L1349.44 930.553 Z" fill="#009af9" fill-rule="evenodd" fill-opacity="1" stroke="none"/>
<path clip-path="url(#clip702)" d="M1581.48 1106.34 L1581.48 1138.34 L1613.48 1138.34 L1613.48 1106.34 L1581.48 1106.34 Z" fill="#009af9" fill-rule="evenodd" fill-opacity="1" stroke="none"/>
<path clip-path="url(#clip702)" d="M1813.51 1376.39 L1813.51 1408.39 L1845.51 1408.39 L1845.51 1376.39 L1813.51 1376.39 Z" fill="#009af9" fill-rule="evenodd" fill-opacity="1" stroke="none"/>
<path clip-path="url(#clip702)" d="M2045.55 1269.39 L2045.55 1301.39 L2077.55 1301.39 L2077.55 1269.39 L2045.55 1269.39 Z" fill="#009af9" fill-rule="evenodd" fill-opacity="1" stroke="none"/>
<path clip-path="url(#clip702)" d="M2161.46 1299.96 L2161.46 1331.96 L2193.46 1331.96 L2193.46 1299.96 L2161.46 1299.96 Z" fill="#009af9" fill-rule="evenodd" fill-opacity="1" stroke="none"/>
<path clip-path="url(#clip702)" d="M2277.58 56.7203 L2277.58 88.7203 L2309.58 88.7203 L2309.58 56.7203 L2277.58 56.7203 Z" fill="#009af9" fill-rule="evenodd" fill-opacity="1" stroke="none"/>
<polyline clip-path="url(#clip702)" style="stroke:#009af9; stroke-linecap:butt; stroke-linejoin:round; stroke-width:6; stroke-opacity:1; fill:none" points="
  321.181,72.7203 321.181,72.7203 
  "/>
<polyline clip-path="url(#clip702)" style="stroke:#009af9; stroke-linecap:butt; stroke-linejoin:round; stroke-width:6; stroke-opacity:1; fill:none" points="
  437.094,407.223 437.094,354.742 
  "/>
<polyline clip-path="url(#clip702)" style="stroke:#009af9; stroke-linecap:butt; stroke-linejoin:round; stroke-width:6; stroke-opacity:1; fill:none" points="
  669.129,409.898 669.129,357.162 
  "/>
<polyline clip-path="url(#clip702)" style="stroke:#009af9; stroke-linecap:butt; stroke-linejoin:round; stroke-width:6; stroke-opacity:1; fill:none" points="
  785.251,91.0631 785.251,79.8536 
  "/>
<polyline clip-path="url(#clip702)" style="stroke:#009af9; stroke-linecap:butt; stroke-linejoin:round; stroke-width:6; stroke-opacity:1; fill:none" points="
  901.164,598.803 901.164,535.113 
  "/>
<polyline clip-path="url(#clip702)" style="stroke:#009af9; stroke-linecap:butt; stroke-linejoin:round; stroke-width:6; stroke-opacity:1; fill:none" points="
  1133.2,744.527 1133.2,674.722 
  "/>
<polyline clip-path="url(#clip702)" style="stroke:#009af9; stroke-linecap:butt; stroke-linejoin:round; stroke-width:6; stroke-opacity:1; fill:none" points="
  1249.32,117.813 1249.32,98.9607 
  "/>
<polyline clip-path="url(#clip702)" style="stroke:#009af9; stroke-linecap:butt; stroke-linejoin:round; stroke-width:6; stroke-opacity:1; fill:none" points="
  1365.44,984.768 1365.44,908.339 
  "/>
<polyline clip-path="url(#clip702)" style="stroke:#009af9; stroke-linecap:butt; stroke-linejoin:round; stroke-width:6; stroke-opacity:1; fill:none" points="
  1597.48,1161.95 1597.48,1082.72 
  "/>
<polyline clip-path="url(#clip702)" style="stroke:#009af9; stroke-linecap:butt; stroke-linejoin:round; stroke-width:6; stroke-opacity:1; fill:none" points="
  1829.51,1432.64 1829.51,1352.13 
  "/>
<polyline clip-path="url(#clip702)" style="stroke:#009af9; stroke-linecap:butt; stroke-linejoin:round; stroke-width:6; stroke-opacity:1; fill:none" points="
  2061.55,1325.64 2061.55,1245.13 
  "/>
<polyline clip-path="url(#clip702)" style="stroke:#009af9; stroke-linecap:butt; stroke-linejoin:round; stroke-width:6; stroke-opacity:1; fill:none" points="
  2177.46,1356.21 2177.46,1275.71 
  "/>
<polyline clip-path="url(#clip702)" style="stroke:#009af9; stroke-linecap:butt; stroke-linejoin:round; stroke-width:6; stroke-opacity:1; fill:none" points="
  2293.58,72.7203 2293.58,72.7203 
  "/>
<line clip-path="url(#clip702)" x1="337.181" y1="72.7203" x2="305.181" y2="72.7203" style="stroke:#009af9; stroke-width:4.8; stroke-opacity:1"/>
<line clip-path="url(#clip702)" x1="337.181" y1="72.7203" x2="305.181" y2="72.7203" style="stroke:#009af9; stroke-width:4.8; stroke-opacity:1"/>
<line clip-path="url(#clip702)" x1="453.094" y1="407.223" x2="421.094" y2="407.223" style="stroke:#009af9; stroke-width:4.8; stroke-opacity:1"/>
<line clip-path="url(#clip702)" x1="453.094" y1="354.742" x2="421.094" y2="354.742" style="stroke:#009af9; stroke-width:4.8; stroke-opacity:1"/>
<line clip-path="url(#clip702)" x1="685.129" y1="409.898" x2="653.129" y2="409.898" style="stroke:#009af9; stroke-width:4.8; stroke-opacity:1"/>
<line clip-path="url(#clip702)" x1="685.129" y1="357.162" x2="653.129" y2="357.162" style="stroke:#009af9; stroke-width:4.8; stroke-opacity:1"/>
<line clip-path="url(#clip702)" x1="801.251" y1="91.0631" x2="769.251" y2="91.0631" style="stroke:#009af9; stroke-width:4.8; stroke-opacity:1"/>
<line clip-path="url(#clip702)" x1="801.251" y1="79.8536" x2="769.251" y2="79.8536" style="stroke:#009af9; stroke-width:4.8; stroke-opacity:1"/>
<line clip-path="url(#clip702)" x1="917.164" y1="598.803" x2="885.164" y2="598.803" style="stroke:#009af9; stroke-width:4.8; stroke-opacity:1"/>
<line clip-path="url(#clip702)" x1="917.164" y1="535.113" x2="885.164" y2="535.113" style="stroke:#009af9; stroke-width:4.8; stroke-opacity:1"/>
<line clip-path="url(#clip702)" x1="1149.2" y1="744.527" x2="1117.2" y2="744.527" style="stroke:#009af9; stroke-width:4.8; stroke-opacity:1"/>
<line clip-path="url(#clip702)" x1="1149.2" y1="674.722" x2="1117.2" y2="674.722" style="stroke:#009af9; stroke-width:4.8; stroke-opacity:1"/>
<line clip-path="url(#clip702)" x1="1265.32" y1="117.813" x2="1233.32" y2="117.813" style="stroke:#009af9; stroke-width:4.8; stroke-opacity:1"/>
<line clip-path="url(#clip702)" x1="1265.32" y1="98.9607" x2="1233.32" y2="98.9607" style="stroke:#009af9; stroke-width:4.8; stroke-opacity:1"/>
<line clip-path="url(#clip702)" x1="1381.44" y1="984.768" x2="1349.44" y2="984.768" style="stroke:#009af9; stroke-width:4.8; stroke-opacity:1"/>
<line clip-path="url(#clip702)" x1="1381.44" y1="908.339" x2="1349.44" y2="908.339" style="stroke:#009af9; stroke-width:4.8; stroke-opacity:1"/>
<line clip-path="url(#clip702)" x1="1613.48" y1="1161.95" x2="1581.48" y2="1161.95" style="stroke:#009af9; stroke-width:4.8; stroke-opacity:1"/>
<line clip-path="url(#clip702)" x1="1613.48" y1="1082.72" x2="1581.48" y2="1082.72" style="stroke:#009af9; stroke-width:4.8; stroke-opacity:1"/>
<line clip-path="url(#clip702)" x1="1845.51" y1="1352.13" x2="1813.51" y2="1352.13" style="stroke:#009af9; stroke-width:4.8; stroke-opacity:1"/>
<line clip-path="url(#clip702)" x1="2077.55" y1="1325.64" x2="2045.55" y2="1325.64" style="stroke:#009af9; stroke-width:4.8; stroke-opacity:1"/>
<line clip-path="url(#clip702)" x1="2077.55" y1="1245.13" x2="2045.55" y2="1245.13" style="stroke:#009af9; stroke-width:4.8; stroke-opacity:1"/>
<line clip-path="url(#clip702)" x1="2193.46" y1="1356.21" x2="2161.46" y2="1356.21" style="stroke:#009af9; stroke-width:4.8; stroke-opacity:1"/>
<line clip-path="url(#clip702)" x1="2193.46" y1="1275.71" x2="2161.46" y2="1275.71" style="stroke:#009af9; stroke-width:4.8; stroke-opacity:1"/>
<line clip-path="url(#clip702)" x1="2309.58" y1="72.7203" x2="2277.58" y2="72.7203" style="stroke:#009af9; stroke-width:4.8; stroke-opacity:1"/>
<line clip-path="url(#clip702)" x1="2309.58" y1="72.7203" x2="2277.58" y2="72.7203" style="stroke:#009af9; stroke-width:4.8; stroke-opacity:1"/>
<path clip-path="url(#clip702)" d="M305.181 56.7203 L305.181 88.7203 L337.181 88.7203 L337.181 56.7203 L305.181 56.7203 Z" fill="#009af9" fill-rule="evenodd" fill-opacity="1" stroke="#000000" stroke-opacity="1" stroke-width="4.8"/>
<path clip-path="url(#clip702)" d="M421.094 364.982 L421.094 396.982 L453.094 396.982 L453.094 364.982 L421.094 364.982 Z" fill="#009af9" fill-rule="evenodd" fill-opacity="1" stroke="#000000" stroke-opacity="1" stroke-width="4.8"/>
<path clip-path="url(#clip702)" d="M653.129 367.53 L653.129 399.53 L685.129 399.53 L685.129 367.53 L653.129 367.53 Z" fill="#009af9" fill-rule="evenodd" fill-opacity="1" stroke="#000000" stroke-opacity="1" stroke-width="4.8"/>
<path clip-path="url(#clip702)" d="M769.251 69.4584 L769.251 101.458 L801.251 101.458 L801.251 69.4584 L769.251 69.4584 Z" fill="#009af9" fill-rule="evenodd" fill-opacity="1" stroke="#000000" stroke-opacity="1" stroke-width="4.8"/>
<path clip-path="url(#clip702)" d="M885.164 550.958 L885.164 582.958 L917.164 582.958 L917.164 550.958 L885.164 550.958 Z" fill="#009af9" fill-rule="evenodd" fill-opacity="1" stroke="#000000" stroke-opacity="1" stroke-width="4.8"/>
<path clip-path="url(#clip702)" d="M1117.2 693.625 L1117.2 725.625 L1149.2 725.625 L1149.2 693.625 L1117.2 693.625 Z" fill="#009af9" fill-rule="evenodd" fill-opacity="1" stroke="#000000" stroke-opacity="1" stroke-width="4.8"/>
<path clip-path="url(#clip702)" d="M1233.32 92.3869 L1233.32 124.387 L1265.32 124.387 L1265.32 92.3869 L1233.32 92.3869 Z" fill="#009af9" fill-rule="evenodd" fill-opacity="1" stroke="#000000" stroke-opacity="1" stroke-width="4.8"/>
<path clip-path="url(#clip702)" d="M1349.44 930.553 L1349.44 962.553 L1381.44 962.553 L1381.44 930.553 L1349.44 930.553 Z" fill="#009af9" fill-rule="evenodd" fill-opacity="1" stroke="#000000" stroke-opacity="1" stroke-width="4.8"/>
<path clip-path="url(#clip702)" d="M1581.48 1106.34 L1581.48 1138.34 L1613.48 1138.34 L1613.48 1106.34 L1581.48 1106.34 Z" fill="#009af9" fill-rule="evenodd" fill-opacity="1" stroke="#000000" stroke-opacity="1" stroke-width="4.8"/>
<path clip-path="url(#clip702)" d="M1813.51 1376.39 L1813.51 1408.39 L1845.51 1408.39 L1845.51 1376.39 L1813.51 1376.39 Z" fill="#009af9" fill-rule="evenodd" fill-opacity="1" stroke="#000000" stroke-opacity="1" stroke-width="4.8"/>
<path clip-path="url(#clip702)" d="M2045.55 1269.39 L2045.55 1301.39 L2077.55 1301.39 L2077.55 1269.39 L2045.55 1269.39 Z" fill="#009af9" fill-rule="evenodd" fill-opacity="1" stroke="#000000" stroke-opacity="1" stroke-width="4.8"/>
<path clip-path="url(#clip702)" d="M2161.46 1299.96 L2161.46 1331.96 L2193.46 1331.96 L2193.46 1299.96 L2161.46 1299.96 Z" fill="#009af9" fill-rule="evenodd" fill-opacity="1" stroke="#000000" stroke-opacity="1" stroke-width="4.8"/>
<path clip-path="url(#clip702)" d="M2277.58 56.7203 L2277.58 88.7203 L2309.58 88.7203 L2309.58 56.7203 L2277.58 56.7203 Z" fill="#009af9" fill-rule="evenodd" fill-opacity="1" stroke="#000000" stroke-opacity="1" stroke-width="4.8"/>
<polyline clip-path="url(#clip702)" style="stroke:#e26f46; stroke-linecap:butt; stroke-linejoin:round; stroke-width:4; stroke-opacity:1; fill:none" points="
  326.675,79.0893 671.375,249.78 791.72,98.1965 908.316,435.756 1134.89,479.065 1255.32,149.149 1399.29,840.827 1644.31,987.315 1766.01,1262.46 2049.4,1296.85 
  2168.1,1315.96 2200.09,1268.83 2293.58,72.7203 
  "/>
<path clip-path="url(#clip702)" d="M310.675 63.0893 L310.675 95.0893 L342.675 95.0893 L342.675 63.0893 L310.675 63.0893 Z" fill="#e26f46" fill-rule="evenodd" fill-opacity="1" stroke="none"/>
<path clip-path="url(#clip702)" d="M655.375 233.78 L655.375 265.78 L687.375 265.78 L687.375 233.78 L655.375 233.78 Z" fill="#e26f46" fill-rule="evenodd" fill-opacity="1" stroke="none"/>
<path clip-path="url(#clip702)" d="M775.72 82.1965 L775.72 114.196 L807.72 114.196 L807.72 82.1965 L775.72 82.1965 Z" fill="#e26f46" fill-rule="evenodd" fill-opacity="1" stroke="none"/>
<path clip-path="url(#clip702)" d="M892.316 419.756 L892.316 451.756 L924.316 451.756 L924.316 419.756 L892.316 419.756 Z" fill="#e26f46" fill-rule="evenodd" fill-opacity="1" stroke="none"/>
<path clip-path="url(#clip702)" d="M1118.89 463.065 L1118.89 495.065 L1150.89 495.065 L1150.89 463.065 L1118.89 463.065 Z" fill="#e26f46" fill-rule="evenodd" fill-opacity="1" stroke="none"/>
<path clip-path="url(#clip702)" d="M1239.32 133.149 L1239.32 165.149 L1271.32 165.149 L1271.32 133.149 L1239.32 133.149 Z" fill="#e26f46" fill-rule="evenodd" fill-opacity="1" stroke="none"/>
<path clip-path="url(#clip702)" d="M1383.29 824.827 L1383.29 856.827 L1415.29 856.827 L1415.29 824.827 L1383.29 824.827 Z" fill="#e26f46" fill-rule="evenodd" fill-opacity="1" stroke="none"/>
<path clip-path="url(#clip702)" d="M1628.31 971.315 L1628.31 1003.32 L1660.31 1003.32 L1660.31 971.315 L1628.31 971.315 Z" fill="#e26f46" fill-rule="evenodd" fill-opacity="1" stroke="none"/>
<path clip-path="url(#clip702)" d="M1750.01 1246.46 L1750.01 1278.46 L1782.01 1278.46 L1782.01 1246.46 L1750.01 1246.46 Z" fill="#e26f46" fill-rule="evenodd" fill-opacity="1" stroke="none"/>
<path clip-path="url(#clip702)" d="M2033.4 1280.85 L2033.4 1312.85 L2065.4 1312.85 L2065.4 1280.85 L2033.4 1280.85 Z" fill="#e26f46" fill-rule="evenodd" fill-opacity="1" stroke="none"/>
<path clip-path="url(#clip702)" d="M2152.1 1299.96 L2152.1 1331.96 L2184.1 1331.96 L2184.1 1299.96 L2152.1 1299.96 Z" fill="#e26f46" fill-rule="evenodd" fill-opacity="1" stroke="none"/>
<path clip-path="url(#clip702)" d="M2184.09 1252.83 L2184.09 1284.83 L2216.09 1284.83 L2216.09 1252.83 L2184.09 1252.83 Z" fill="#e26f46" fill-rule="evenodd" fill-opacity="1" stroke="none"/>
<path clip-path="url(#clip702)" d="M2277.58 56.7203 L2277.58 88.7203 L2309.58 88.7203 L2309.58 56.7203 L2277.58 56.7203 Z" fill="#e26f46" fill-rule="evenodd" fill-opacity="1" stroke="none"/>
<polyline clip-path="url(#clip702)" style="stroke:#e26f46; stroke-linecap:butt; stroke-linejoin:round; stroke-width:6; stroke-opacity:1; fill:none" points="
  326.675,81.9348 326.675,76.2438 
  "/>
<polyline clip-path="url(#clip702)" style="stroke:#e26f46; stroke-linecap:butt; stroke-linejoin:round; stroke-width:6; stroke-opacity:1; fill:none" points="
  671.375,264.27 671.375,235.289 
  "/>
<polyline clip-path="url(#clip702)" style="stroke:#e26f46; stroke-linecap:butt; stroke-linejoin:round; stroke-width:6; stroke-opacity:1; fill:none" points="
  791.72,103.866 791.72,92.5269 
  "/>
<polyline clip-path="url(#clip702)" style="stroke:#e26f46; stroke-linecap:butt; stroke-linejoin:round; stroke-width:6; stroke-opacity:1; fill:none" points="
  908.316,455.674 908.316,415.838 
  "/>
<polyline clip-path="url(#clip702)" style="stroke:#e26f46; stroke-linecap:butt; stroke-linejoin:round; stroke-width:6; stroke-opacity:1; fill:none" points="
  1134.89,499.928 1134.89,458.202 
  "/>
<polyline clip-path="url(#clip702)" style="stroke:#e26f46; stroke-linecap:butt; stroke-linejoin:round; stroke-width:6; stroke-opacity:1; fill:none" points="
  1255.32,158.869 1255.32,139.429 
  "/>
<polyline clip-path="url(#clip702)" style="stroke:#e26f46; stroke-linecap:butt; stroke-linejoin:round; stroke-width:6; stroke-opacity:1; fill:none" points="
  1399.29,866.976 1399.29,814.678 
  "/>
<polyline clip-path="url(#clip702)" style="stroke:#e26f46; stroke-linecap:butt; stroke-linejoin:round; stroke-width:6; stroke-opacity:1; fill:none" points="
  1644.31,1014.65 1644.31,959.981 
  "/>
<polyline clip-path="url(#clip702)" style="stroke:#e26f46; stroke-linecap:butt; stroke-linejoin:round; stroke-width:6; stroke-opacity:1; fill:none" points="
  1766.01,1290.89 1766.01,1234.03 
  "/>
<polyline clip-path="url(#clip702)" style="stroke:#e26f46; stroke-linecap:butt; stroke-linejoin:round; stroke-width:6; stroke-opacity:1; fill:none" points="
  2049.4,1325.32 2049.4,1268.38 
  "/>
<polyline clip-path="url(#clip702)" style="stroke:#e26f46; stroke-linecap:butt; stroke-linejoin:round; stroke-width:6; stroke-opacity:1; fill:none" points="
  2168.1,1344.44 2168.1,1287.48 
  "/>
<polyline clip-path="url(#clip702)" style="stroke:#e26f46; stroke-linecap:butt; stroke-linejoin:round; stroke-width:6; stroke-opacity:1; fill:none" points="
  2200.09,1297.26 2200.09,1240.39 
  "/>
<polyline clip-path="url(#clip702)" style="stroke:#e26f46; stroke-linecap:butt; stroke-linejoin:round; stroke-width:6; stroke-opacity:1; fill:none" points="
  2293.58,72.7203 2293.58,72.7203 
  "/>
<line clip-path="url(#clip702)" x1="342.675" y1="81.9348" x2="310.675" y2="81.9348" style="stroke:#e26f46; stroke-width:4.8; stroke-opacity:1"/>
<line clip-path="url(#clip702)" x1="342.675" y1="76.2438" x2="310.675" y2="76.2438" style="stroke:#e26f46; stroke-width:4.8; stroke-opacity:1"/>
<line clip-path="url(#clip702)" x1="687.375" y1="264.27" x2="655.375" y2="264.27" style="stroke:#e26f46; stroke-width:4.8; stroke-opacity:1"/>
<line clip-path="url(#clip702)" x1="687.375" y1="235.289" x2="655.375" y2="235.289" style="stroke:#e26f46; stroke-width:4.8; stroke-opacity:1"/>
<line clip-path="url(#clip702)" x1="807.72" y1="103.866" x2="775.72" y2="103.866" style="stroke:#e26f46; stroke-width:4.8; stroke-opacity:1"/>
<line clip-path="url(#clip702)" x1="807.72" y1="92.5269" x2="775.72" y2="92.5269" style="stroke:#e26f46; stroke-width:4.8; stroke-opacity:1"/>
<line clip-path="url(#clip702)" x1="924.316" y1="455.674" x2="892.316" y2="455.674" style="stroke:#e26f46; stroke-width:4.8; stroke-opacity:1"/>
<line clip-path="url(#clip702)" x1="924.316" y1="415.838" x2="892.316" y2="415.838" style="stroke:#e26f46; stroke-width:4.8; stroke-opacity:1"/>
<line clip-path="url(#clip702)" x1="1150.89" y1="499.928" x2="1118.89" y2="499.928" style="stroke:#e26f46; stroke-width:4.8; stroke-opacity:1"/>
<line clip-path="url(#clip702)" x1="1150.89" y1="458.202" x2="1118.89" y2="458.202" style="stroke:#e26f46; stroke-width:4.8; stroke-opacity:1"/>
<line clip-path="url(#clip702)" x1="1271.32" y1="158.869" x2="1239.32" y2="158.869" style="stroke:#e26f46; stroke-width:4.8; stroke-opacity:1"/>
<line clip-path="url(#clip702)" x1="1271.32" y1="139.429" x2="1239.32" y2="139.429" style="stroke:#e26f46; stroke-width:4.8; stroke-opacity:1"/>
<line clip-path="url(#clip702)" x1="1415.29" y1="866.976" x2="1383.29" y2="866.976" style="stroke:#e26f46; stroke-width:4.8; stroke-opacity:1"/>
<line clip-path="url(#clip702)" x1="1415.29" y1="814.678" x2="1383.29" y2="814.678" style="stroke:#e26f46; stroke-width:4.8; stroke-opacity:1"/>
<line clip-path="url(#clip702)" x1="1660.31" y1="1014.65" x2="1628.31" y2="1014.65" style="stroke:#e26f46; stroke-width:4.8; stroke-opacity:1"/>
<line clip-path="url(#clip702)" x1="1660.31" y1="959.981" x2="1628.31" y2="959.981" style="stroke:#e26f46; stroke-width:4.8; stroke-opacity:1"/>
<line clip-path="url(#clip702)" x1="1782.01" y1="1290.89" x2="1750.01" y2="1290.89" style="stroke:#e26f46; stroke-width:4.8; stroke-opacity:1"/>
<line clip-path="url(#clip702)" x1="1782.01" y1="1234.03" x2="1750.01" y2="1234.03" style="stroke:#e26f46; stroke-width:4.8; stroke-opacity:1"/>
<line clip-path="url(#clip702)" x1="2065.4" y1="1325.32" x2="2033.4" y2="1325.32" style="stroke:#e26f46; stroke-width:4.8; stroke-opacity:1"/>
<line clip-path="url(#clip702)" x1="2065.4" y1="1268.38" x2="2033.4" y2="1268.38" style="stroke:#e26f46; stroke-width:4.8; stroke-opacity:1"/>
<line clip-path="url(#clip702)" x1="2184.1" y1="1344.44" x2="2152.1" y2="1344.44" style="stroke:#e26f46; stroke-width:4.8; stroke-opacity:1"/>
<line clip-path="url(#clip702)" x1="2184.1" y1="1287.48" x2="2152.1" y2="1287.48" style="stroke:#e26f46; stroke-width:4.8; stroke-opacity:1"/>
<line clip-path="url(#clip702)" x1="2216.09" y1="1297.26" x2="2184.09" y2="1297.26" style="stroke:#e26f46; stroke-width:4.8; stroke-opacity:1"/>
<line clip-path="url(#clip702)" x1="2216.09" y1="1240.39" x2="2184.09" y2="1240.39" style="stroke:#e26f46; stroke-width:4.8; stroke-opacity:1"/>
<line clip-path="url(#clip702)" x1="2309.58" y1="72.7203" x2="2277.58" y2="72.7203" style="stroke:#e26f46; stroke-width:4.8; stroke-opacity:1"/>
<line clip-path="url(#clip702)" x1="2309.58" y1="72.7203" x2="2277.58" y2="72.7203" style="stroke:#e26f46; stroke-width:4.8; stroke-opacity:1"/>
<path clip-path="url(#clip702)" d="M310.675 63.0893 L310.675 95.0893 L342.675 95.0893 L342.675 63.0893 L310.675 63.0893 Z" fill="#e26f46" fill-rule="evenodd" fill-opacity="1" stroke="#000000" stroke-opacity="1" stroke-width="4.8"/>
<path clip-path="url(#clip702)" d="M655.375 233.78 L655.375 265.78 L687.375 265.78 L687.375 233.78 L655.375 233.78 Z" fill="#e26f46" fill-rule="evenodd" fill-opacity="1" stroke="#000000" stroke-opacity="1" stroke-width="4.8"/>
<path clip-path="url(#clip702)" d="M775.72 82.1965 L775.72 114.196 L807.72 114.196 L807.72 82.1965 L775.72 82.1965 Z" fill="#e26f46" fill-rule="evenodd" fill-opacity="1" stroke="#000000" stroke-opacity="1" stroke-width="4.8"/>
<path clip-path="url(#clip702)" d="M892.316 419.756 L892.316 451.756 L924.316 451.756 L924.316 419.756 L892.316 419.756 Z" fill="#e26f46" fill-rule="evenodd" fill-opacity="1" stroke="#000000" stroke-opacity="1" stroke-width="4.8"/>
<path clip-path="url(#clip702)" d="M1118.89 463.065 L1118.89 495.065 L1150.89 495.065 L1150.89 463.065 L1118.89 463.065 Z" fill="#e26f46" fill-rule="evenodd" fill-opacity="1" stroke="#000000" stroke-opacity="1" stroke-width="4.8"/>
<path clip-path="url(#clip702)" d="M1239.32 133.149 L1239.32 165.149 L1271.32 165.149 L1271.32 133.149 L1239.32 133.149 Z" fill="#e26f46" fill-rule="evenodd" fill-opacity="1" stroke="#000000" stroke-opacity="1" stroke-width="4.8"/>
<path clip-path="url(#clip702)" d="M1383.29 824.827 L1383.29 856.827 L1415.29 856.827 L1415.29 824.827 L1383.29 824.827 Z" fill="#e26f46" fill-rule="evenodd" fill-opacity="1" stroke="#000000" stroke-opacity="1" stroke-width="4.8"/>
<path clip-path="url(#clip702)" d="M1628.31 971.315 L1628.31 1003.32 L1660.31 1003.32 L1660.31 971.315 L1628.31 971.315 Z" fill="#e26f46" fill-rule="evenodd" fill-opacity="1" stroke="#000000" stroke-opacity="1" stroke-width="4.8"/>
<path clip-path="url(#clip702)" d="M1750.01 1246.46 L1750.01 1278.46 L1782.01 1278.46 L1782.01 1246.46 L1750.01 1246.46 Z" fill="#e26f46" fill-rule="evenodd" fill-opacity="1" stroke="#000000" stroke-opacity="1" stroke-width="4.8"/>
<path clip-path="url(#clip702)" d="M2033.4 1280.85 L2033.4 1312.85 L2065.4 1312.85 L2065.4 1280.85 L2033.4 1280.85 Z" fill="#e26f46" fill-rule="evenodd" fill-opacity="1" stroke="#000000" stroke-opacity="1" stroke-width="4.8"/>
<path clip-path="url(#clip702)" d="M2152.1 1299.96 L2152.1 1331.96 L2184.1 1331.96 L2184.1 1299.96 L2152.1 1299.96 Z" fill="#e26f46" fill-rule="evenodd" fill-opacity="1" stroke="#000000" stroke-opacity="1" stroke-width="4.8"/>
<path clip-path="url(#clip702)" d="M2184.09 1252.83 L2184.09 1284.83 L2216.09 1284.83 L2216.09 1252.83 L2184.09 1252.83 Z" fill="#e26f46" fill-rule="evenodd" fill-opacity="1" stroke="#000000" stroke-opacity="1" stroke-width="4.8"/>
<path clip-path="url(#clip702)" d="M2277.58 56.7203 L2277.58 88.7203 L2309.58 88.7203 L2309.58 56.7203 L2277.58 56.7203 Z" fill="#e26f46" fill-rule="evenodd" fill-opacity="1" stroke="#000000" stroke-opacity="1" stroke-width="4.8"/>
<path clip-path="url(#clip700)" d="
M331.7 1364.79 L698.098 1364.79 L698.098 1170.39 L331.7 1170.39  Z
  " fill="#ffffff" fill-rule="evenodd" fill-opacity="1"/>
<polyline clip-path="url(#clip700)" style="stroke:#000000; stroke-linecap:butt; stroke-linejoin:round; stroke-width:4; stroke-opacity:0; fill:none" points="
  331.7,1364.79 698.098,1364.79 698.098,1170.39 331.7,1170.39 331.7,1364.79 
  "/>
<polyline clip-path="url(#clip700)" style="stroke:#009af9; stroke-linecap:butt; stroke-linejoin:round; stroke-width:5; stroke-opacity:1; fill:none" points="
  354.931,1235.19 494.314,1235.19 
  "/>
<path clip-path="url(#clip700)" d="M407.415 1217.98 L407.415 1252.4 L441.83 1252.4 L441.83 1217.98 L407.415 1217.98 Z" fill="#009af9" fill-rule="evenodd" fill-opacity="1" stroke="none"/>
<path clip-path="url(#clip700)" d="M517.545 1234.97 Q517.545 1225.93 523.722 1219.57 Q529.9 1213.19 538.391 1213.19 Q541.026 1213.19 543.368 1214.16 Q545.71 1215.12 546.793 1215.97 Q547.877 1216.79 549.428 1218.34 L552.444 1213.92 Q552.913 1213.19 553.381 1213.19 Q553.879 1213.19 553.967 1213.48 Q554.054 1213.75 554.054 1214.63 L554.054 1228.85 Q554.054 1229.82 553.937 1230.06 Q553.82 1230.29 553.088 1230.29 Q552.503 1230.29 552.356 1230.11 Q552.239 1229.94 552.122 1229.26 Q551.214 1222.79 547.613 1218.93 Q544.041 1215.06 539.064 1215.06 Q537.629 1215.06 536.019 1215.39 Q534.438 1215.71 532.125 1216.94 Q529.841 1218.17 528.055 1220.22 Q526.299 1222.24 525.011 1226.1 Q523.722 1229.94 523.722 1235.03 Q523.722 1240.07 525.011 1243.93 Q526.299 1247.8 528.055 1249.82 Q529.841 1251.81 532.125 1253.04 Q534.438 1254.27 536.048 1254.62 Q537.688 1254.94 539.123 1254.94 Q544.276 1254.94 548.228 1251.28 Q552.181 1247.62 552.561 1241.44 Q552.62 1241.15 552.62 1241.03 Q552.62 1240.89 552.678 1240.74 Q552.737 1240.6 552.883 1240.54 Q553.03 1240.48 553.264 1240.48 Q554.054 1240.48 554.054 1241.5 Q554.054 1247.21 549.663 1252.01 Q545.3 1256.79 538.391 1256.79 Q529.871 1256.79 523.693 1250.46 Q517.545 1244.14 517.545 1234.97 Z" fill="#000000" fill-rule="evenodd" fill-opacity="1" /><path clip-path="url(#clip700)" d="M565.206 1255.47 L565.206 1253.62 L566.64 1253.62 Q569.89 1253.62 570.622 1253.1 Q571.383 1252.54 571.383 1250.78 L571.383 1219.37 Q571.383 1217.64 570.622 1217.11 Q569.861 1216.56 566.64 1216.56 L565.206 1216.56 L565.206 1214.68 L598.963 1214.68 L600.632 1228.18 L599.139 1228.18 Q598.729 1224.76 598.173 1222.79 Q597.646 1220.8 596.328 1219.28 Q595.04 1217.76 592.903 1217.17 Q590.795 1216.56 587.369 1216.56 L579.64 1216.56 Q577.59 1216.56 577.151 1217 Q576.712 1217.41 576.712 1218.96 L576.712 1233.33 L582.099 1233.33 Q586.227 1233.33 587.398 1231.9 Q588.57 1230.47 588.57 1226.34 L590.092 1226.34 L590.092 1242.21 L588.57 1242.21 Q588.57 1238.14 587.398 1236.67 Q586.227 1235.21 582.099 1235.21 L576.712 1235.21 L576.712 1251.22 Q576.712 1252.77 577.151 1253.21 Q577.62 1253.62 579.64 1253.62 L587.633 1253.62 Q590.209 1253.62 592.083 1253.3 Q593.986 1252.95 595.303 1252.13 Q596.621 1251.28 597.499 1250.32 Q598.407 1249.35 599.022 1247.62 Q599.666 1245.87 600.017 1244.26 Q600.398 1242.64 600.808 1240.01 L602.301 1240.01 L599.783 1255.47 L565.206 1255.47 Z" fill="#000000" fill-rule="evenodd" fill-opacity="1" /><polyline clip-path="url(#clip700)" style="stroke:#e26f46; stroke-linecap:butt; stroke-linejoin:round; stroke-width:5; stroke-opacity:1; fill:none" points="
  354.931,1299.99 494.314,1299.99 
  "/>
<path clip-path="url(#clip700)" d="M407.415 1282.78 L407.415 1317.2 L441.83 1317.2 L441.83 1282.78 L407.415 1282.78 Z" fill="#e26f46" fill-rule="evenodd" fill-opacity="1" stroke="none"/>
<path clip-path="url(#clip700)" d="M523.693 1315.23 Q517.545 1308.88 517.545 1299.77 Q517.545 1290.64 523.752 1284.32 Q529.959 1277.99 538.391 1277.99 Q540.499 1277.99 542.285 1278.49 Q544.1 1278.96 545.534 1279.92 Q546.969 1280.86 547.701 1281.5 Q548.462 1282.12 549.487 1283.14 L552.503 1278.72 Q552.971 1277.99 553.44 1277.99 Q553.937 1277.99 554.025 1278.28 Q554.113 1278.55 554.113 1279.43 L554.113 1293.65 Q554.113 1294.62 553.996 1294.86 Q553.879 1295.09 553.147 1295.09 Q552.561 1295.09 552.444 1294.91 Q552.327 1294.74 552.181 1294.06 Q551.273 1287.59 547.642 1283.73 Q544.041 1279.86 539.123 1279.86 Q537.688 1279.86 536.078 1280.19 Q534.497 1280.51 532.154 1281.74 Q529.841 1282.97 528.055 1284.99 Q526.299 1286.98 525.011 1290.84 Q523.722 1294.68 523.722 1299.77 Q523.722 1304.81 525.011 1308.67 Q526.299 1312.54 528.085 1314.56 Q529.9 1316.55 532.242 1317.81 Q534.614 1319.07 536.283 1319.42 Q537.981 1319.74 539.474 1319.74 Q540.499 1319.74 541.699 1319.54 Q542.899 1319.3 544.685 1318.66 Q546.501 1317.98 547.642 1316.4 Q548.784 1314.82 548.784 1312.48 L548.784 1308.65 Q548.784 1306.86 547.906 1306.3 Q547.028 1305.75 543.192 1305.75 L541.289 1305.75 L541.289 1303.9 Q543.456 1304.08 550.922 1304.08 Q551.595 1304.08 558.241 1303.9 L558.241 1305.75 Q555.372 1305.75 554.728 1306.19 Q554.113 1306.6 554.113 1308.38 L554.113 1318.83 Q554.113 1320.21 553.586 1320.21 Q553.117 1320.21 551.712 1318.86 Q550.336 1317.52 549.721 1316.49 Q548.287 1319.01 545.154 1320.3 Q542.05 1321.59 538.508 1321.59 Q529.871 1321.59 523.693 1315.23 Z" fill="#000000" fill-rule="evenodd" fill-opacity="1" /><path clip-path="url(#clip700)" d="M563.609 1299.77 Q563.609 1290.73 569.786 1284.37 Q575.964 1277.99 584.455 1277.99 Q587.09 1277.99 589.432 1278.96 Q591.774 1279.92 592.857 1280.77 Q593.941 1281.59 595.492 1283.14 L598.508 1278.72 Q598.976 1277.99 599.445 1277.99 Q599.943 1277.99 600.03 1278.28 Q600.118 1278.55 600.118 1279.43 L600.118 1293.65 Q600.118 1294.62 600.001 1294.86 Q599.884 1295.09 599.152 1295.09 Q598.567 1295.09 598.42 1294.91 Q598.303 1294.74 598.186 1294.06 Q597.278 1287.59 593.677 1283.73 Q590.105 1279.86 585.128 1279.86 Q583.693 1279.86 582.083 1280.19 Q580.502 1280.51 578.189 1281.74 Q575.905 1282.97 574.119 1285.02 Q572.363 1287.04 571.074 1290.9 Q569.786 1294.74 569.786 1299.83 Q569.786 1304.87 571.074 1308.73 Q572.363 1312.6 574.119 1314.62 Q575.905 1316.61 578.189 1317.84 Q580.502 1319.07 582.112 1319.42 Q583.752 1319.74 585.186 1319.74 Q590.339 1319.74 594.292 1316.08 Q598.244 1312.42 598.625 1306.24 Q598.684 1305.95 598.684 1305.83 Q598.684 1305.69 598.742 1305.54 Q598.801 1305.4 598.947 1305.34 Q599.094 1305.28 599.328 1305.28 Q600.118 1305.28 600.118 1306.3 Q600.118 1312.01 595.727 1316.81 Q591.364 1321.59 584.455 1321.59 Q575.935 1321.59 569.757 1315.26 Q563.609 1308.94 563.609 1299.77 Z" fill="#000000" fill-rule="evenodd" fill-opacity="1" /><path clip-path="url(#clip700)" d="M611.27 1320.27 L611.27 1318.42 L612.704 1318.42 Q615.954 1318.42 616.686 1317.9 Q617.447 1317.34 617.447 1315.58 L617.447 1284.17 Q617.447 1282.44 616.686 1281.91 Q615.925 1281.36 612.704 1281.36 L611.27 1281.36 L611.27 1279.48 L645.027 1279.48 L646.696 1292.98 L645.203 1292.98 Q644.793 1289.56 644.237 1287.59 Q643.71 1285.6 642.392 1284.08 Q641.104 1282.56 638.967 1281.97 Q636.859 1281.36 633.433 1281.36 L625.704 1281.36 Q623.654 1281.36 623.215 1281.8 Q622.776 1282.21 622.776 1283.76 L622.776 1298.13 L628.163 1298.13 Q632.291 1298.13 633.462 1296.7 Q634.633 1295.27 634.633 1291.14 L636.156 1291.14 L636.156 1307.01 L634.633 1307.01 Q634.633 1302.94 633.462 1301.47 Q632.291 1300.01 628.163 1300.01 L622.776 1300.01 L622.776 1316.02 Q622.776 1317.57 623.215 1318.01 Q623.683 1318.42 625.704 1318.42 L633.697 1318.42 Q636.273 1318.42 638.147 1318.1 Q640.05 1317.75 641.367 1316.93 Q642.685 1316.08 643.563 1315.12 Q644.471 1314.15 645.086 1312.42 Q645.73 1310.67 646.081 1309.06 Q646.462 1307.44 646.872 1304.81 L648.365 1304.81 L645.847 1320.27 L611.27 1320.27 Z" fill="#000000" fill-rule="evenodd" fill-opacity="1" /></svg>
